<?xml version="1.0" encoding="utf-8" standalone="no"?>
<!DOCTYPE svg PUBLIC "-//W3C//DTD SVG 1.1//EN"
  "http://www.w3.org/Graphics/SVG/1.1/DTD/svg11.dtd">
<!-- Created with matplotlib (https://matplotlib.org/) -->
<svg height="432pt" version="1.1" viewBox="0 0 504 432" width="504pt" xmlns="http://www.w3.org/2000/svg" xmlns:xlink="http://www.w3.org/1999/xlink">
 <defs>
  <style type="text/css">
*{stroke-linecap:butt;stroke-linejoin:round;}
  </style>
 </defs>
 <g id="figure_1">
  <g id="patch_1">
   <path d="M 0 432 
L 504 432 
L 504 0 
L 0 0 
z
" style="fill:#ffffff;"/>
  </g>
  <g id="axes_1">
   <g id="patch_2">
    <path d="M 63 384.48 
L 453.6 384.48 
L 453.6 51.84 
L 63 51.84 
z
" style="fill:#ffffff;"/>
   </g>
   <g id="line2d_1">
    <path clip-path="url(#pf872cec451)" d="M 63 112.148487 
L 453.6 112.148487 
" style="fill:none;stroke:#777777;stroke-dasharray:5.55,2.4;stroke-dashoffset:0;stroke-width:1.5;"/>
   </g>
   <g id="matplotlib.axis_1">
    <g id="xtick_1">
     <g id="text_1">
      <!-- 0.0 -->
      <defs>
       <path d="M 4.15625 35.296875 
Q 4.15625 48 6.765625 55.734375 
Q 9.375 63.484375 14.515625 67.671875 
Q 19.671875 71.875 27.484375 71.875 
Q 33.25 71.875 37.59375 69.546875 
Q 41.9375 67.234375 44.765625 62.859375 
Q 47.609375 58.5 49.21875 52.21875 
Q 50.828125 45.953125 50.828125 35.296875 
Q 50.828125 22.703125 48.234375 14.96875 
Q 45.65625 7.234375 40.5 3 
Q 35.359375 -1.21875 27.484375 -1.21875 
Q 17.140625 -1.21875 11.234375 6.203125 
Q 4.15625 15.140625 4.15625 35.296875 
z
M 13.1875 35.296875 
Q 13.1875 17.671875 17.3125 11.828125 
Q 21.4375 6 27.484375 6 
Q 33.546875 6 37.671875 11.859375 
Q 41.796875 17.71875 41.796875 35.296875 
Q 41.796875 52.984375 37.671875 58.78125 
Q 33.546875 64.59375 27.390625 64.59375 
Q 21.34375 64.59375 17.71875 59.46875 
Q 13.1875 52.9375 13.1875 35.296875 
z
" id="ArialMT-48"/>
       <path d="M 9.078125 0 
L 9.078125 10.015625 
L 19.09375 10.015625 
L 19.09375 0 
z
" id="ArialMT-46"/>
      </defs>
      <g style="fill:#262626;" transform="translate(57.606175 398.637812)scale(0.1 -0.1)">
       <use xlink:href="#ArialMT-48"/>
       <use x="55.615234" xlink:href="#ArialMT-46"/>
       <use x="83.398438" xlink:href="#ArialMT-48"/>
      </g>
     </g>
    </g>
    <g id="xtick_2">
     <g id="text_2">
      <!-- 0.2 -->
      <defs>
       <path d="M 50.34375 8.453125 
L 50.34375 0 
L 3.03125 0 
Q 2.9375 3.171875 4.046875 6.109375 
Q 5.859375 10.9375 9.828125 15.625 
Q 13.8125 20.3125 21.34375 26.46875 
Q 33.015625 36.03125 37.109375 41.625 
Q 41.21875 47.21875 41.21875 52.203125 
Q 41.21875 57.421875 37.46875 61 
Q 33.734375 64.59375 27.734375 64.59375 
Q 21.390625 64.59375 17.578125 60.78125 
Q 13.765625 56.984375 13.71875 50.25 
L 4.6875 51.171875 
Q 5.609375 61.28125 11.65625 66.578125 
Q 17.71875 71.875 27.9375 71.875 
Q 38.234375 71.875 44.234375 66.15625 
Q 50.25 60.453125 50.25 52 
Q 50.25 47.703125 48.484375 43.546875 
Q 46.734375 39.40625 42.65625 34.8125 
Q 38.578125 30.21875 29.109375 22.21875 
Q 21.1875 15.578125 18.9375 13.203125 
Q 16.703125 10.84375 15.234375 8.453125 
z
" id="ArialMT-50"/>
      </defs>
      <g style="fill:#262626;" transform="translate(135.41494 398.637812)scale(0.1 -0.1)">
       <use xlink:href="#ArialMT-48"/>
       <use x="55.615234" xlink:href="#ArialMT-46"/>
       <use x="83.398438" xlink:href="#ArialMT-50"/>
      </g>
     </g>
    </g>
    <g id="xtick_3">
     <g id="text_3">
      <!-- 0.4 -->
      <defs>
       <path d="M 32.328125 0 
L 32.328125 17.140625 
L 1.265625 17.140625 
L 1.265625 25.203125 
L 33.9375 71.578125 
L 41.109375 71.578125 
L 41.109375 25.203125 
L 50.78125 25.203125 
L 50.78125 17.140625 
L 41.109375 17.140625 
L 41.109375 0 
z
M 32.328125 25.203125 
L 32.328125 57.46875 
L 9.90625 25.203125 
z
" id="ArialMT-52"/>
      </defs>
      <g style="fill:#262626;" transform="translate(213.223705 398.637812)scale(0.1 -0.1)">
       <use xlink:href="#ArialMT-48"/>
       <use x="55.615234" xlink:href="#ArialMT-46"/>
       <use x="83.398438" xlink:href="#ArialMT-52"/>
      </g>
     </g>
    </g>
    <g id="xtick_4">
     <g id="text_4">
      <!-- 0.6 -->
      <defs>
       <path d="M 49.75 54.046875 
L 41.015625 53.375 
Q 39.84375 58.546875 37.703125 60.890625 
Q 34.125 64.65625 28.90625 64.65625 
Q 24.703125 64.65625 21.53125 62.3125 
Q 17.390625 59.28125 14.984375 53.46875 
Q 12.59375 47.65625 12.5 36.921875 
Q 15.671875 41.75 20.265625 44.09375 
Q 24.859375 46.4375 29.890625 46.4375 
Q 38.671875 46.4375 44.84375 39.96875 
Q 51.03125 33.5 51.03125 23.25 
Q 51.03125 16.5 48.125 10.71875 
Q 45.21875 4.9375 40.140625 1.859375 
Q 35.0625 -1.21875 28.609375 -1.21875 
Q 17.625 -1.21875 10.6875 6.859375 
Q 3.765625 14.9375 3.765625 33.5 
Q 3.765625 54.25 11.421875 63.671875 
Q 18.109375 71.875 29.4375 71.875 
Q 37.890625 71.875 43.28125 67.140625 
Q 48.6875 62.40625 49.75 54.046875 
z
M 13.875 23.1875 
Q 13.875 18.65625 15.796875 14.5 
Q 17.71875 10.359375 21.1875 8.171875 
Q 24.65625 6 28.46875 6 
Q 34.03125 6 38.03125 10.484375 
Q 42.046875 14.984375 42.046875 22.703125 
Q 42.046875 30.125 38.078125 34.390625 
Q 34.125 38.671875 28.125 38.671875 
Q 22.171875 38.671875 18.015625 34.390625 
Q 13.875 30.125 13.875 23.1875 
z
" id="ArialMT-54"/>
      </defs>
      <g style="fill:#262626;" transform="translate(291.03247 398.637812)scale(0.1 -0.1)">
       <use xlink:href="#ArialMT-48"/>
       <use x="55.615234" xlink:href="#ArialMT-46"/>
       <use x="83.398438" xlink:href="#ArialMT-54"/>
      </g>
     </g>
    </g>
    <g id="xtick_5">
     <g id="text_5">
      <!-- 0.8 -->
      <defs>
       <path d="M 17.671875 38.8125 
Q 12.203125 40.828125 9.5625 44.53125 
Q 6.9375 48.25 6.9375 53.421875 
Q 6.9375 61.234375 12.546875 66.546875 
Q 18.171875 71.875 27.484375 71.875 
Q 36.859375 71.875 42.578125 66.421875 
Q 48.296875 60.984375 48.296875 53.171875 
Q 48.296875 48.1875 45.671875 44.5 
Q 43.0625 40.828125 37.75 38.8125 
Q 44.34375 36.671875 47.78125 31.875 
Q 51.21875 27.09375 51.21875 20.453125 
Q 51.21875 11.28125 44.71875 5.03125 
Q 38.234375 -1.21875 27.640625 -1.21875 
Q 17.046875 -1.21875 10.546875 5.046875 
Q 4.046875 11.328125 4.046875 20.703125 
Q 4.046875 27.6875 7.59375 32.390625 
Q 11.140625 37.109375 17.671875 38.8125 
z
M 15.921875 53.71875 
Q 15.921875 48.640625 19.1875 45.40625 
Q 22.46875 42.1875 27.6875 42.1875 
Q 32.765625 42.1875 36.015625 45.375 
Q 39.265625 48.578125 39.265625 53.21875 
Q 39.265625 58.0625 35.90625 61.359375 
Q 32.5625 64.65625 27.59375 64.65625 
Q 22.5625 64.65625 19.234375 61.421875 
Q 15.921875 58.203125 15.921875 53.71875 
z
M 13.09375 20.65625 
Q 13.09375 16.890625 14.875 13.375 
Q 16.65625 9.859375 20.171875 7.921875 
Q 23.6875 6 27.734375 6 
Q 34.03125 6 38.125 10.046875 
Q 42.234375 14.109375 42.234375 20.359375 
Q 42.234375 26.703125 38.015625 30.859375 
Q 33.796875 35.015625 27.4375 35.015625 
Q 21.234375 35.015625 17.15625 30.90625 
Q 13.09375 26.8125 13.09375 20.65625 
z
" id="ArialMT-56"/>
      </defs>
      <g style="fill:#262626;" transform="translate(368.841235 398.637812)scale(0.1 -0.1)">
       <use xlink:href="#ArialMT-48"/>
       <use x="55.615234" xlink:href="#ArialMT-46"/>
       <use x="83.398438" xlink:href="#ArialMT-56"/>
      </g>
     </g>
    </g>
    <g id="xtick_6">
     <g id="text_6">
      <!-- 1.0 -->
      <defs>
       <path d="M 37.25 0 
L 28.46875 0 
L 28.46875 56 
Q 25.296875 52.984375 20.140625 49.953125 
Q 14.984375 46.921875 10.890625 45.40625 
L 10.890625 53.90625 
Q 18.265625 57.375 23.78125 62.296875 
Q 29.296875 67.234375 31.59375 71.875 
L 37.25 71.875 
z
" id="ArialMT-49"/>
      </defs>
      <g style="fill:#262626;" transform="translate(446.65 398.637812)scale(0.1 -0.1)">
       <use xlink:href="#ArialMT-49"/>
       <use x="55.615234" xlink:href="#ArialMT-46"/>
       <use x="83.398438" xlink:href="#ArialMT-48"/>
      </g>
     </g>
    </g>
    <g id="text_7">
     <!-- Recall -->
     <defs>
      <path d="M 7.859375 0 
L 7.859375 71.578125 
L 39.59375 71.578125 
Q 49.171875 71.578125 54.140625 69.640625 
Q 59.125 67.71875 62.109375 62.828125 
Q 65.09375 57.953125 65.09375 52.046875 
Q 65.09375 44.4375 60.15625 39.203125 
Q 55.21875 33.984375 44.921875 32.5625 
Q 48.6875 30.765625 50.640625 29 
Q 54.78125 25.203125 58.5 19.484375 
L 70.953125 0 
L 59.03125 0 
L 49.5625 14.890625 
Q 45.40625 21.34375 42.71875 24.75 
Q 40.046875 28.171875 37.921875 29.53125 
Q 35.796875 30.90625 33.59375 31.453125 
Q 31.984375 31.78125 28.328125 31.78125 
L 17.328125 31.78125 
L 17.328125 0 
z
M 17.328125 39.984375 
L 37.703125 39.984375 
Q 44.1875 39.984375 47.84375 41.328125 
Q 51.515625 42.671875 53.421875 45.625 
Q 55.328125 48.578125 55.328125 52.046875 
Q 55.328125 57.125 51.640625 60.390625 
Q 47.953125 63.671875 39.984375 63.671875 
L 17.328125 63.671875 
z
" id="ArialMT-82"/>
      <path d="M 42.09375 16.703125 
L 51.171875 15.578125 
Q 49.03125 7.625 43.21875 3.21875 
Q 37.40625 -1.171875 28.375 -1.171875 
Q 17 -1.171875 10.328125 5.828125 
Q 3.65625 12.84375 3.65625 25.484375 
Q 3.65625 38.578125 10.390625 45.796875 
Q 17.140625 53.03125 27.875 53.03125 
Q 38.28125 53.03125 44.875 45.953125 
Q 51.46875 38.875 51.46875 26.03125 
Q 51.46875 25.25 51.421875 23.6875 
L 12.75 23.6875 
Q 13.234375 15.140625 17.578125 10.59375 
Q 21.921875 6.0625 28.421875 6.0625 
Q 33.25 6.0625 36.671875 8.59375 
Q 40.09375 11.140625 42.09375 16.703125 
z
M 13.234375 30.90625 
L 42.1875 30.90625 
Q 41.609375 37.453125 38.875 40.71875 
Q 34.671875 45.796875 27.984375 45.796875 
Q 21.921875 45.796875 17.796875 41.75 
Q 13.671875 37.703125 13.234375 30.90625 
z
" id="ArialMT-101"/>
      <path d="M 40.4375 19 
L 49.078125 17.875 
Q 47.65625 8.9375 41.8125 3.875 
Q 35.984375 -1.171875 27.484375 -1.171875 
Q 16.84375 -1.171875 10.375 5.78125 
Q 3.90625 12.75 3.90625 25.734375 
Q 3.90625 34.125 6.6875 40.421875 
Q 9.46875 46.734375 15.15625 49.875 
Q 20.84375 53.03125 27.546875 53.03125 
Q 35.984375 53.03125 41.359375 48.75 
Q 46.734375 44.484375 48.25 36.625 
L 39.703125 35.296875 
Q 38.484375 40.53125 35.375 43.15625 
Q 32.28125 45.796875 27.875 45.796875 
Q 21.234375 45.796875 17.078125 41.03125 
Q 12.9375 36.28125 12.9375 25.984375 
Q 12.9375 15.53125 16.9375 10.796875 
Q 20.953125 6.0625 27.390625 6.0625 
Q 32.5625 6.0625 36.03125 9.234375 
Q 39.5 12.40625 40.4375 19 
z
" id="ArialMT-99"/>
      <path d="M 40.4375 6.390625 
Q 35.546875 2.25 31.03125 0.53125 
Q 26.515625 -1.171875 21.34375 -1.171875 
Q 12.796875 -1.171875 8.203125 3 
Q 3.609375 7.171875 3.609375 13.671875 
Q 3.609375 17.484375 5.34375 20.625 
Q 7.078125 23.78125 9.890625 25.6875 
Q 12.703125 27.59375 16.21875 28.5625 
Q 18.796875 29.25 24.03125 29.890625 
Q 34.671875 31.15625 39.703125 32.90625 
Q 39.75 34.71875 39.75 35.203125 
Q 39.75 40.578125 37.25 42.78125 
Q 33.890625 45.75 27.25 45.75 
Q 21.046875 45.75 18.09375 43.578125 
Q 15.140625 41.40625 13.71875 35.890625 
L 5.125 37.0625 
Q 6.296875 42.578125 8.984375 45.96875 
Q 11.671875 49.359375 16.75 51.1875 
Q 21.828125 53.03125 28.515625 53.03125 
Q 35.15625 53.03125 39.296875 51.46875 
Q 43.453125 49.90625 45.40625 47.53125 
Q 47.359375 45.171875 48.140625 41.546875 
Q 48.578125 39.3125 48.578125 33.453125 
L 48.578125 21.734375 
Q 48.578125 9.46875 49.140625 6.21875 
Q 49.703125 2.984375 51.375 0 
L 42.1875 0 
Q 40.828125 2.734375 40.4375 6.390625 
z
M 39.703125 26.03125 
Q 34.90625 24.078125 25.34375 22.703125 
Q 19.921875 21.921875 17.671875 20.9375 
Q 15.4375 19.96875 14.203125 18.09375 
Q 12.984375 16.21875 12.984375 13.921875 
Q 12.984375 10.40625 15.640625 8.0625 
Q 18.3125 5.71875 23.4375 5.71875 
Q 28.515625 5.71875 32.46875 7.9375 
Q 36.421875 10.15625 38.28125 14.015625 
Q 39.703125 17 39.703125 22.796875 
z
" id="ArialMT-97"/>
      <path d="M 6.390625 0 
L 6.390625 71.578125 
L 15.1875 71.578125 
L 15.1875 0 
z
" id="ArialMT-108"/>
     </defs>
     <g style="fill:#262626;" transform="translate(244.40625 411.783125)scale(0.1 -0.1)">
      <use xlink:href="#ArialMT-82"/>
      <use x="72.216797" xlink:href="#ArialMT-101"/>
      <use x="127.832031" xlink:href="#ArialMT-99"/>
      <use x="177.832031" xlink:href="#ArialMT-97"/>
      <use x="233.447266" xlink:href="#ArialMT-108"/>
      <use x="255.664062" xlink:href="#ArialMT-108"/>
     </g>
    </g>
   </g>
   <g id="matplotlib.axis_2">
    <g id="ytick_1">
     <g id="text_8">
      <!-- 0.0 -->
      <g style="fill:#262626;" transform="translate(42.1 388.058906)scale(0.1 -0.1)">
       <use xlink:href="#ArialMT-48"/>
       <use x="55.615234" xlink:href="#ArialMT-46"/>
       <use x="83.398438" xlink:href="#ArialMT-48"/>
      </g>
     </g>
    </g>
    <g id="ytick_2">
     <g id="text_9">
      <!-- 0.2 -->
      <g style="fill:#262626;" transform="translate(42.1 321.530906)scale(0.1 -0.1)">
       <use xlink:href="#ArialMT-48"/>
       <use x="55.615234" xlink:href="#ArialMT-46"/>
       <use x="83.398438" xlink:href="#ArialMT-50"/>
      </g>
     </g>
    </g>
    <g id="ytick_3">
     <g id="text_10">
      <!-- 0.4 -->
      <g style="fill:#262626;" transform="translate(42.1 255.002906)scale(0.1 -0.1)">
       <use xlink:href="#ArialMT-48"/>
       <use x="55.615234" xlink:href="#ArialMT-46"/>
       <use x="83.398438" xlink:href="#ArialMT-52"/>
      </g>
     </g>
    </g>
    <g id="ytick_4">
     <g id="text_11">
      <!-- 0.6 -->
      <g style="fill:#262626;" transform="translate(42.1 188.474906)scale(0.1 -0.1)">
       <use xlink:href="#ArialMT-48"/>
       <use x="55.615234" xlink:href="#ArialMT-46"/>
       <use x="83.398438" xlink:href="#ArialMT-54"/>
      </g>
     </g>
    </g>
    <g id="ytick_5">
     <g id="text_12">
      <!-- 0.8 -->
      <g style="fill:#262626;" transform="translate(42.1 121.946906)scale(0.1 -0.1)">
       <use xlink:href="#ArialMT-48"/>
       <use x="55.615234" xlink:href="#ArialMT-46"/>
       <use x="83.398438" xlink:href="#ArialMT-56"/>
      </g>
     </g>
    </g>
    <g id="ytick_6">
     <g id="text_13">
      <!-- 1.0 -->
      <g style="fill:#262626;" transform="translate(42.1 55.418906)scale(0.1 -0.1)">
       <use xlink:href="#ArialMT-49"/>
       <use x="55.615234" xlink:href="#ArialMT-46"/>
       <use x="83.398438" xlink:href="#ArialMT-48"/>
      </g>
     </g>
    </g>
    <g id="text_14">
     <!-- Precision -->
     <defs>
      <path d="M 7.71875 0 
L 7.71875 71.578125 
L 34.71875 71.578125 
Q 41.84375 71.578125 45.609375 70.90625 
Q 50.875 70.015625 54.4375 67.546875 
Q 58.015625 65.09375 60.1875 60.640625 
Q 62.359375 56.203125 62.359375 50.875 
Q 62.359375 41.75 56.546875 35.421875 
Q 50.734375 29.109375 35.546875 29.109375 
L 17.1875 29.109375 
L 17.1875 0 
z
M 17.1875 37.546875 
L 35.6875 37.546875 
Q 44.875 37.546875 48.734375 40.96875 
Q 52.59375 44.390625 52.59375 50.59375 
Q 52.59375 55.078125 50.3125 58.265625 
Q 48.046875 61.46875 44.34375 62.5 
Q 41.9375 63.140625 35.5 63.140625 
L 17.1875 63.140625 
z
" id="ArialMT-80"/>
      <path d="M 6.5 0 
L 6.5 51.859375 
L 14.40625 51.859375 
L 14.40625 44 
Q 17.4375 49.515625 20 51.265625 
Q 22.5625 53.03125 25.640625 53.03125 
Q 30.078125 53.03125 34.671875 50.203125 
L 31.640625 42.046875 
Q 28.421875 43.953125 25.203125 43.953125 
Q 22.3125 43.953125 20.015625 42.21875 
Q 17.71875 40.484375 16.75 37.40625 
Q 15.28125 32.71875 15.28125 27.15625 
L 15.28125 0 
z
" id="ArialMT-114"/>
      <path d="M 6.640625 61.46875 
L 6.640625 71.578125 
L 15.4375 71.578125 
L 15.4375 61.46875 
z
M 6.640625 0 
L 6.640625 51.859375 
L 15.4375 51.859375 
L 15.4375 0 
z
" id="ArialMT-105"/>
      <path d="M 3.078125 15.484375 
L 11.765625 16.84375 
Q 12.5 11.625 15.84375 8.84375 
Q 19.1875 6.0625 25.203125 6.0625 
Q 31.25 6.0625 34.171875 8.515625 
Q 37.109375 10.984375 37.109375 14.3125 
Q 37.109375 17.28125 34.515625 19 
Q 32.71875 20.171875 25.53125 21.96875 
Q 15.875 24.421875 12.140625 26.203125 
Q 8.40625 27.984375 6.46875 31.125 
Q 4.546875 34.28125 4.546875 38.09375 
Q 4.546875 41.546875 6.125 44.5 
Q 7.71875 47.46875 10.453125 49.421875 
Q 12.5 50.921875 16.03125 51.96875 
Q 19.578125 53.03125 23.640625 53.03125 
Q 29.734375 53.03125 34.34375 51.265625 
Q 38.96875 49.515625 41.15625 46.5 
Q 43.359375 43.5 44.1875 38.484375 
L 35.59375 37.3125 
Q 35.015625 41.3125 32.203125 43.546875 
Q 29.390625 45.796875 24.265625 45.796875 
Q 18.21875 45.796875 15.625 43.796875 
Q 13.03125 41.796875 13.03125 39.109375 
Q 13.03125 37.40625 14.109375 36.03125 
Q 15.1875 34.625 17.484375 33.6875 
Q 18.796875 33.203125 25.25 31.453125 
Q 34.578125 28.953125 38.25 27.359375 
Q 41.9375 25.78125 44.03125 22.75 
Q 46.140625 19.734375 46.140625 15.234375 
Q 46.140625 10.84375 43.578125 6.953125 
Q 41.015625 3.078125 36.171875 0.953125 
Q 31.34375 -1.171875 25.25 -1.171875 
Q 15.140625 -1.171875 9.84375 3.03125 
Q 4.546875 7.234375 3.078125 15.484375 
z
" id="ArialMT-115"/>
      <path d="M 3.328125 25.921875 
Q 3.328125 40.328125 11.328125 47.265625 
Q 18.015625 53.03125 27.640625 53.03125 
Q 38.328125 53.03125 45.109375 46.015625 
Q 51.90625 39.015625 51.90625 26.65625 
Q 51.90625 16.65625 48.90625 10.90625 
Q 45.90625 5.171875 40.15625 2 
Q 34.421875 -1.171875 27.640625 -1.171875 
Q 16.75 -1.171875 10.03125 5.8125 
Q 3.328125 12.796875 3.328125 25.921875 
z
M 12.359375 25.921875 
Q 12.359375 15.96875 16.703125 11.015625 
Q 21.046875 6.0625 27.640625 6.0625 
Q 34.1875 6.0625 38.53125 11.03125 
Q 42.875 16.015625 42.875 26.21875 
Q 42.875 35.84375 38.5 40.796875 
Q 34.125 45.75 27.640625 45.75 
Q 21.046875 45.75 16.703125 40.8125 
Q 12.359375 35.890625 12.359375 25.921875 
z
" id="ArialMT-111"/>
      <path d="M 6.59375 0 
L 6.59375 51.859375 
L 14.5 51.859375 
L 14.5 44.484375 
Q 20.21875 53.03125 31 53.03125 
Q 35.6875 53.03125 39.625 51.34375 
Q 43.5625 49.65625 45.515625 46.921875 
Q 47.46875 44.1875 48.25 40.4375 
Q 48.734375 37.984375 48.734375 31.890625 
L 48.734375 0 
L 39.9375 0 
L 39.9375 31.546875 
Q 39.9375 36.921875 38.90625 39.578125 
Q 37.890625 42.234375 35.28125 43.8125 
Q 32.671875 45.40625 29.15625 45.40625 
Q 23.53125 45.40625 19.453125 41.84375 
Q 15.375 38.28125 15.375 28.328125 
L 15.375 0 
z
" id="ArialMT-110"/>
     </defs>
     <g style="fill:#262626;" transform="translate(36.1125 238.723281)rotate(-90)scale(0.1 -0.1)">
      <use xlink:href="#ArialMT-80"/>
      <use x="66.699219" xlink:href="#ArialMT-114"/>
      <use x="100" xlink:href="#ArialMT-101"/>
      <use x="155.615234" xlink:href="#ArialMT-99"/>
      <use x="205.615234" xlink:href="#ArialMT-105"/>
      <use x="227.832031" xlink:href="#ArialMT-115"/>
      <use x="277.832031" xlink:href="#ArialMT-105"/>
      <use x="300.048828" xlink:href="#ArialMT-111"/>
      <use x="355.664062" xlink:href="#ArialMT-110"/>
     </g>
    </g>
   </g>
   <g id="line2d_2">
    <path clip-path="url(#pf872cec451)" d="M 453.6 120.464871 
L 384.779973 65.816471 
L 384.779973 63.115932 
L 377.757522 63.36 
L 373.544051 62.097621 
L 362.308128 60.995229 
L 346.858734 61.481739 
L 331.40934 62.022857 
L 321.577908 62.4 
L 306.128514 61.23661 
L 294.892591 61.68142 
L 286.465649 60.053333 
L 278.038707 60.369231 
L 271.016256 58.4928 
L 254.162371 59.071304 
L 245.735429 56.918473 
L 241.521958 57.0375 
L 237.308487 57.16224 
L 228.881545 57.430588 
L 226.072565 57.526154 
L 216.241132 57.888 
L 212.027661 58.05757 
L 209.218681 58.176 
L 205.005209 58.362353 
L 200.791738 55.234286 
L 197.982758 55.305 
L 188.151325 55.577528 
L 183.937854 51.84 
L 182.533364 51.84 
L 179.724383 51.84 
L 171.297441 51.84 
L 167.08397 51.84 
L 164.27499 51.84 
L 162.870499 51.84 
L 161.466009 51.84 
L 148.825596 51.84 
L 146.016615 51.84 
L 143.207634 51.84 
L 141.803144 51.84 
L 140.398654 51.84 
L 137.589673 51.84 
L 136.185183 51.84 
L 133.376202 51.84 
L 122.140279 51.84 
L 120.735789 51.84 
L 117.926808 51.84 
L 116.522318 51.84 
L 106.690886 51.84 
L 105.286395 51.84 
L 98.263944 51.84 
L 94.050472 51.84 
L 70.174137 51.84 
L 64.556175 51.84 
" style="fill:none;stroke:#1f77b4;stroke-linecap:round;stroke-width:1.5;"/>
   </g>
   <g id="line2d_3">
    <defs>
     <path d="M 0 3 
C 0.795609 3 1.55874 2.683901 2.12132 2.12132 
C 2.683901 1.55874 3 0.795609 3 0 
C 3 -0.795609 2.683901 -1.55874 2.12132 -2.12132 
C 1.55874 -2.683901 0.795609 -3 0 -3 
C -0.795609 -3 -1.55874 -2.683901 -2.12132 -2.12132 
C -2.683901 -1.55874 -3 -0.795609 -3 0 
C -3 0.795609 -2.683901 1.55874 -2.12132 2.12132 
C -1.55874 2.683901 -0.795609 3 0 3 
z
" id="m2c4678ccbb" style="stroke:#000000;"/>
    </defs>
    <g clip-path="url(#pf872cec451)">
     <use style="stroke:#000000;" x="384.779973" xlink:href="#m2c4678ccbb" y="65.816471"/>
    </g>
   </g>
   <g id="line2d_4">
    <path clip-path="url(#pf872cec451)" d="M 453.6 120.464871 
L 384.779973 56.16 
L 384.779973 53.292576 
L 377.757522 53.325 
L 370.73507 53.358904 
L 349.667715 53.470588 
L 328.60036 53.6 
L 314.555456 53.698324 
L 306.128514 53.762775 
L 290.67912 53.893333 
L 280.847688 53.986065 
L 275.229727 54.042914 
L 266.802785 54.134069 
L 259.780333 54.216 
L 245.735429 54.398769 
L 235.903997 51.84 
L 231.690526 51.84 
L 227.477055 51.84 
L 221.859094 51.84 
L 219.050113 51.84 
L 209.218681 51.84 
L 205.005209 51.84 
L 200.791738 51.84 
L 197.982758 51.84 
L 193.769287 51.84 
L 189.555816 51.84 
L 181.128874 51.84 
L 178.319893 51.84 
L 175.510912 51.84 
L 172.701932 51.84 
L 164.27499 51.84 
L 161.466009 51.84 
L 158.657028 51.84 
L 157.252538 51.84 
L 155.848048 51.84 
L 141.803144 51.84 
L 140.398654 51.84 
L 137.589673 51.84 
L 133.376202 51.84 
L 131.971712 51.84 
L 130.567221 51.84 
L 127.758241 51.84 
L 126.35375 51.84 
L 116.522318 51.84 
L 115.117828 51.84 
L 113.713337 51.84 
L 96.859453 51.84 
L 95.454963 51.84 
L 71.578627 51.84 
L 64.556175 51.84 
" style="fill:none;stroke:#ff7f0e;stroke-linecap:round;stroke-width:1.5;"/>
   </g>
   <g id="line2d_5">
    <g clip-path="url(#pf872cec451)">
     <use style="stroke:#000000;" x="384.779973" xlink:href="#m2c4678ccbb" y="56.16"/>
    </g>
   </g>
   <g id="line2d_6">
    <path clip-path="url(#pf872cec451)" d="M 453.6 120.464871 
L 384.779973 63.115932 
L 384.779973 60.369231 
L 377.757522 60.555459 
L 373.544051 60.67115 
L 359.499147 59.575814 
L 342.645263 60.033103 
L 327.195869 60.5025 
L 317.364437 60.83027 
L 300.510553 59.575814 
L 290.67912 59.904 
L 282.252178 60.208302 
L 273.825236 58.405263 
L 266.802785 58.628571 
L 252.757881 59.124088 
L 244.330939 56.957538 
L 240.117468 57.078425 
L 235.903997 57.205161 
L 228.881545 57.430588 
L 226.072565 57.526154 
L 216.241132 57.888 
L 212.027661 58.05757 
L 207.81419 58.236923 
L 203.600719 58.426931 
L 199.387248 55.269278 
L 196.578267 55.341474 
L 186.746835 55.62 
L 182.533364 51.84 
L 181.128874 51.84 
L 178.319893 51.84 
L 169.892951 51.84 
L 165.67948 51.84 
L 162.870499 51.84 
L 161.466009 51.84 
L 160.061519 51.84 
L 147.421105 51.84 
L 144.612125 51.84 
L 141.803144 51.84 
L 140.398654 51.84 
L 138.994163 51.84 
L 136.185183 51.84 
L 134.780692 51.84 
L 131.971712 51.84 
L 120.735789 51.84 
L 117.926808 51.84 
L 116.522318 51.84 
L 106.690886 51.84 
L 105.286395 51.84 
L 98.263944 51.84 
L 94.050472 51.84 
L 70.174137 51.84 
L 64.556175 51.84 
" style="fill:none;stroke:#2ca02c;stroke-linecap:round;stroke-width:1.5;"/>
   </g>
   <g id="line2d_7">
    <g clip-path="url(#pf872cec451)">
     <use style="stroke:#000000;" x="384.779973" xlink:href="#m2c4678ccbb" y="63.115932"/>
    </g>
   </g>
   <g id="line2d_8">
    <path clip-path="url(#pf872cec451)" d="M 453.6 115.432941 
L 388.523578 57.550558 
L 388.523578 56.141379 
L 387.108874 56.16 
L 385.694169 56.178783 
L 384.279464 56.197729 
L 382.864759 56.216842 
L 380.03535 56.255575 
L 375.791235 56.314978 
L 374.37653 56.335135 
L 367.303006 56.43871 
L 365.888301 56.46 
L 365.888301 54.934326 
L 361.644187 54.978113 
L 351.741253 55.085268 
L 350.326548 55.101176 
L 348.911844 55.117241 
L 347.497139 55.133465 
L 334.764795 55.287047 
L 333.350091 55.305 
L 331.935386 55.323141 
L 323.447157 55.436108 
L 323.447157 53.647826 
L 319.203042 53.67779 
L 317.788338 53.688 
L 310.714813 53.7408 
L 309.300109 53.751724 
L 307.885404 53.762775 
L 306.470699 53.773953 
L 302.226585 53.808284 
L 292.323651 53.893333 
L 292.323651 51.84 
L 290.908946 51.84 
L 286.664832 51.84 
L 285.250127 51.84 
L 281.006012 51.84 
L 276.761898 51.84 
L 275.347193 51.84 
L 272.517783 51.84 
L 271.103079 51.84 
L 269.688374 51.84 
L 265.444259 51.84 
L 264.029555 51.84 
L 261.200145 51.84 
L 258.370735 51.84 
L 256.95603 51.84 
L 255.541326 51.84 
L 254.126621 51.84 
L 252.711916 51.84 
L 251.297211 51.84 
L 249.882506 51.84 
L 247.053097 51.84 
L 244.223687 51.84 
L 238.564868 51.84 
L 234.320753 51.84 
L 232.906049 51.84 
L 230.076639 51.84 
L 228.661934 51.84 
L 227.247229 51.84 
L 223.003115 51.84 
L 221.58841 51.84 
L 220.173705 51.84 
L 218.759 51.84 
L 217.344296 51.84 
L 215.929591 51.84 
L 214.514886 51.84 
L 211.685476 51.84 
L 206.026657 51.84 
L 204.611952 51.84 
L 200.367838 51.84 
L 198.953133 51.84 
L 197.538428 51.84 
L 194.709018 51.84 
L 191.879609 51.84 
L 183.39138 51.84 
L 179.147265 51.84 
L 177.732561 51.84 
L 174.903151 51.84 
L 173.488446 51.84 
L 172.073741 51.84 
L 170.659037 51.84 
L 169.244332 51.84 
L 160.756103 51.84 
L 159.341398 51.84 
L 155.097284 51.84 
L 153.682579 51.84 
L 152.267874 51.84 
L 150.853169 51.84 
L 149.438464 51.84 
L 146.609055 51.84 
L 145.19435 51.84 
L 143.779645 51.84 
L 140.950235 51.84 
L 131.047302 51.84 
L 128.217892 51.84 
L 122.559073 51.84 
L 121.144368 51.84 
L 118.314958 51.84 
L 114.070844 51.84 
L 109.826729 51.84 
L 101.338501 51.84 
L 99.923796 51.84 
L 98.509091 51.84 
L 97.094386 51.84 
L 94.264976 51.84 
L 75.873814 51.84 
L 74.459109 51.84 
L 73.044404 51.84 
L 70.214995 51.84 
L 67.385585 51.84 
L 64.556175 51.84 
" style="fill:none;stroke:#d62728;stroke-linecap:round;stroke-width:1.5;"/>
   </g>
   <g id="line2d_9">
    <g clip-path="url(#pf872cec451)">
     <use style="stroke:#000000;" x="388.523578" xlink:href="#m2c4678ccbb" y="57.550558"/>
    </g>
   </g>
   <g id="line2d_10">
    <path clip-path="url(#pf872cec451)" d="M 453.6 120.464871 
L 384.779973 56.16 
L 384.779973 53.292576 
L 379.162012 53.3184 
L 373.544051 53.345158 
L 353.881186 53.446957 
L 338.431792 53.537143 
L 325.791379 53.618824 
L 317.364437 53.67779 
L 301.915043 53.796706 
L 292.083611 53.880736 
L 286.465649 53.932075 
L 278.038707 54.014118 
L 271.016256 54.087568 
L 255.566862 54.268029 
L 247.13992 51.84 
L 244.330939 51.84 
L 240.117468 51.84 
L 233.095016 51.84 
L 230.286036 51.84 
L 219.050113 51.84 
L 216.241132 51.84 
L 212.027661 51.84 
L 209.218681 51.84 
L 205.005209 51.84 
L 199.387248 51.84 
L 195.173777 51.84 
L 192.364796 51.84 
L 190.960306 51.84 
L 188.151325 51.84 
L 179.724383 51.84 
L 175.510912 51.84 
L 174.106422 51.84 
L 172.701932 51.84 
L 168.488461 51.84 
L 154.443557 51.84 
L 153.039067 51.84 
L 148.825596 51.84 
L 146.016615 51.84 
L 144.612125 51.84 
L 143.207634 51.84 
L 140.398654 51.84 
L 138.994163 51.84 
L 136.185183 51.84 
L 126.35375 51.84 
L 124.94926 51.84 
L 120.735789 51.84 
L 119.331299 51.84 
L 115.117828 51.84 
L 105.286395 51.84 
L 103.881905 51.84 
L 98.263944 51.84 
L 95.454963 51.84 
L 70.174137 51.84 
L 64.556175 51.84 
" style="fill:none;stroke:#9467bd;stroke-linecap:round;stroke-width:1.5;"/>
   </g>
   <g id="line2d_11">
    <g clip-path="url(#pf872cec451)">
     <use style="stroke:#000000;" x="384.779973" xlink:href="#m2c4678ccbb" y="56.16"/>
    </g>
   </g>
   <g id="line2d_12">
    <path clip-path="url(#pf872cec451)" d="M 453.6 120.662069 
L 387.349783 56.141379 
L 387.349783 53.286261 
L 383.121046 53.305374 
L 378.892309 53.325 
L 357.748623 53.431579 
L 340.833674 53.528528 
L 330.96662 53.590737 
L 323.918725 53.638054 
L 308.413355 53.751724 
L 298.546302 53.831856 
L 292.907985 53.880736 
L 283.040932 53.972308 
L 275.993037 54.042914 
L 263.306825 54.182535 
L 254.84935 51.84 
L 252.030192 51.84 
L 249.211034 51.84 
L 240.75356 51.84 
L 237.934402 51.84 
L 226.657769 51.84 
L 223.838611 51.84 
L 218.200294 51.84 
L 213.971557 51.84 
L 208.333241 51.84 
L 204.104504 51.84 
L 201.285346 51.84 
L 198.466187 51.84 
L 190.008713 51.84 
L 184.370397 51.84 
L 181.551239 51.84 
L 180.141659 51.84 
L 171.684185 51.84 
L 167.455448 51.84 
L 161.817131 51.84 
L 158.997973 51.84 
L 157.588394 51.84 
L 156.178815 51.84 
L 154.769236 51.84 
L 153.359657 51.84 
L 149.13092 51.84 
L 137.854287 51.84 
L 133.62555 51.84 
L 125.168076 51.84 
L 113.891443 51.84 
L 108.253127 51.84 
L 99.795652 51.84 
L 67.375333 51.84 
L 64.556175 51.84 
" style="fill:none;stroke:#8c564b;stroke-linecap:round;stroke-width:1.5;"/>
   </g>
   <g id="line2d_13">
    <g clip-path="url(#pf872cec451)">
     <use style="stroke:#000000;" x="387.349783" xlink:href="#m2c4678ccbb" y="56.141379"/>
    </g>
   </g>
   <g id="line2d_14">
    <path clip-path="url(#pf872cec451)" d="M 453.6 120.464871 
L 384.779973 63.115932 
L 384.779973 60.369231 
L 377.757522 60.555459 
L 373.544051 60.67115 
L 359.499147 59.575814 
L 342.645263 60.033103 
L 327.195869 60.5025 
L 317.364437 60.83027 
L 300.510553 59.575814 
L 290.67912 59.904 
L 282.252178 60.208302 
L 272.420746 58.448742 
L 265.398294 58.675068 
L 251.353391 59.177647 
L 242.926449 56.997209 
L 238.712978 57.12 
L 234.499507 57.24878 
L 227.477055 57.477966 
L 224.668074 57.575172 
L 214.836642 57.943486 
L 210.623171 58.116226 
L 206.4097 58.299029 
L 202.196229 58.4928 
L 197.982758 55.305 
L 195.173777 55.378723 
L 185.342345 55.663448 
L 181.128874 51.84 
L 179.724383 51.84 
L 176.915403 51.84 
L 168.488461 51.84 
L 164.27499 51.84 
L 161.466009 51.84 
L 160.061519 51.84 
L 158.657028 51.84 
L 144.612125 51.84 
L 141.803144 51.84 
L 138.994163 51.84 
L 137.589673 51.84 
L 136.185183 51.84 
L 133.376202 51.84 
L 131.971712 51.84 
L 129.162731 51.84 
L 119.331299 51.84 
L 117.926808 51.84 
L 116.522318 51.84 
L 115.117828 51.84 
L 101.072924 51.84 
L 98.263944 51.84 
L 94.050472 51.84 
L 70.174137 51.84 
L 64.556175 51.84 
" style="fill:none;stroke:#e377c2;stroke-linecap:round;stroke-width:1.5;"/>
   </g>
   <g id="line2d_15">
    <g clip-path="url(#pf872cec451)">
     <use style="stroke:#000000;" x="384.779973" xlink:href="#m2c4678ccbb" y="63.115932"/>
    </g>
   </g>
   <g id="line2d_16">
    <path clip-path="url(#pf872cec451)" d="M 453.6 120.464871 
L 384.779973 57.575172 
L 384.779973 54.732522 
L 377.757522 54.7968 
L 370.73507 53.358904 
L 349.667715 53.470588 
L 330.00485 53.590737 
L 314.555456 53.698324 
L 306.128514 53.762775 
L 290.67912 53.893333 
L 280.847688 53.986065 
L 275.229727 54.042914 
L 266.802785 54.134069 
L 259.780333 54.216 
L 245.735429 54.398769 
L 235.903997 51.84 
L 231.690526 51.84 
L 227.477055 51.84 
L 221.859094 51.84 
L 220.454603 51.84 
L 209.218681 51.84 
L 205.005209 51.84 
L 202.196229 51.84 
L 197.982758 51.84 
L 193.769287 51.84 
L 189.555816 51.84 
L 181.128874 51.84 
L 178.319893 51.84 
L 175.510912 51.84 
L 172.701932 51.84 
L 164.27499 51.84 
L 161.466009 51.84 
L 158.657028 51.84 
L 157.252538 51.84 
L 155.848048 51.84 
L 141.803144 51.84 
L 140.398654 51.84 
L 137.589673 51.84 
L 133.376202 51.84 
L 131.971712 51.84 
L 130.567221 51.84 
L 127.758241 51.84 
L 126.35375 51.84 
L 116.522318 51.84 
L 115.117828 51.84 
L 113.713337 51.84 
L 96.859453 51.84 
L 95.454963 51.84 
L 71.578627 51.84 
L 64.556175 51.84 
" style="fill:none;stroke:#7f7f7f;stroke-linecap:round;stroke-width:1.5;"/>
   </g>
   <g id="line2d_17">
    <g clip-path="url(#pf872cec451)">
     <use style="stroke:#000000;" x="384.779973" xlink:href="#m2c4678ccbb" y="57.575172"/>
    </g>
   </g>
   <g id="line2d_18">
    <path clip-path="url(#pf872cec451)" d="M 453.6 120.662069 
L 390.168942 56.104615 
L 390.168942 53.273793 
L 388.759363 53.28 
L 385.940204 53.292576 
L 370.434835 53.365872 
L 356.339044 53.439231 
L 346.47199 53.494925 
L 340.833674 53.528528 
L 325.328304 53.628387 
L 314.051672 53.708764 
L 308.413355 53.751724 
L 302.775039 53.796706 
L 301.36546 53.808284 
L 291.498406 53.893333 
L 278.812195 54.014118 
L 270.35472 51.84 
L 264.716404 51.84 
L 263.306825 51.84 
L 253.439771 51.84 
L 252.030192 51.84 
L 239.343981 51.84 
L 236.524822 51.84 
L 235.115243 51.84 
L 229.476927 51.84 
L 228.067348 51.84 
L 223.838611 51.84 
L 221.019453 51.84 
L 218.200294 51.84 
L 216.790715 51.84 
L 206.923662 51.84 
L 202.694925 51.84 
L 199.875766 51.84 
L 195.647029 51.84 
L 187.189555 51.84 
L 181.551239 51.84 
L 175.912922 51.84 
L 171.684185 51.84 
L 170.274606 51.84 
L 168.865027 51.84 
L 167.455448 51.84 
L 166.045869 51.84 
L 164.63629 51.84 
L 161.817131 51.84 
L 154.769236 51.84 
L 143.492603 51.84 
L 139.263866 51.84 
L 137.854287 51.84 
L 132.215971 51.84 
L 129.396813 51.84 
L 119.529759 51.84 
L 113.891443 51.84 
L 112.481864 51.84 
L 77.242387 51.84 
L 70.194492 51.84 
L 64.556175 51.84 
" style="fill:none;stroke:#bcbd22;stroke-linecap:round;stroke-width:1.5;"/>
   </g>
   <g id="line2d_19">
    <g clip-path="url(#pf872cec451)">
     <use style="stroke:#000000;" x="390.168942" xlink:href="#m2c4678ccbb" y="56.104615"/>
    </g>
   </g>
   <g id="patch_3">
    <path d="M 63 384.48 
L 63 51.84 
" style="fill:none;stroke:#262626;stroke-linecap:square;stroke-linejoin:miter;stroke-width:0.8;"/>
   </g>
   <g id="patch_4">
    <path d="M 63 384.48 
L 453.6 384.48 
" style="fill:none;stroke:#262626;stroke-linecap:square;stroke-linejoin:miter;stroke-width:0.8;"/>
   </g>
   <g id="legend_1">
    <g id="patch_5">
     <path d="M 35.153125 379.48 
L 446.6 379.48 
Q 448.6 379.48 448.6 377.48 
L 448.6 234.625312 
Q 448.6 232.625312 446.6 232.625312 
L 35.153125 232.625312 
Q 33.153125 232.625312 33.153125 234.625312 
L 33.153125 377.48 
Q 33.153125 379.48 35.153125 379.48 
z
" style="fill:#ffffff;opacity:0.8;stroke:#cccccc;stroke-linejoin:miter;"/>
    </g>
    <g id="text_15">
     <!-- method (F1 Score @ Peak J) -->
     <defs>
      <path d="M 6.59375 0 
L 6.59375 51.859375 
L 14.453125 51.859375 
L 14.453125 44.578125 
Q 16.890625 48.390625 20.9375 50.703125 
Q 25 53.03125 30.171875 53.03125 
Q 35.9375 53.03125 39.625 50.640625 
Q 43.3125 48.25 44.828125 43.953125 
Q 50.984375 53.03125 60.84375 53.03125 
Q 68.5625 53.03125 72.703125 48.75 
Q 76.859375 44.484375 76.859375 35.59375 
L 76.859375 0 
L 68.109375 0 
L 68.109375 32.671875 
Q 68.109375 37.9375 67.25 40.25 
Q 66.40625 42.578125 64.15625 43.984375 
Q 61.921875 45.40625 58.890625 45.40625 
Q 53.421875 45.40625 49.796875 41.765625 
Q 46.1875 38.140625 46.1875 30.125 
L 46.1875 0 
L 37.40625 0 
L 37.40625 33.6875 
Q 37.40625 39.546875 35.25 42.46875 
Q 33.109375 45.40625 28.21875 45.40625 
Q 24.515625 45.40625 21.359375 43.453125 
Q 18.21875 41.5 16.796875 37.734375 
Q 15.375 33.984375 15.375 26.90625 
L 15.375 0 
z
" id="ArialMT-109"/>
      <path d="M 25.78125 7.859375 
L 27.046875 0.09375 
Q 23.34375 -0.6875 20.40625 -0.6875 
Q 15.625 -0.6875 12.984375 0.828125 
Q 10.359375 2.34375 9.28125 4.8125 
Q 8.203125 7.28125 8.203125 15.1875 
L 8.203125 45.015625 
L 1.765625 45.015625 
L 1.765625 51.859375 
L 8.203125 51.859375 
L 8.203125 64.703125 
L 16.9375 69.96875 
L 16.9375 51.859375 
L 25.78125 51.859375 
L 25.78125 45.015625 
L 16.9375 45.015625 
L 16.9375 14.703125 
Q 16.9375 10.9375 17.40625 9.859375 
Q 17.875 8.796875 18.921875 8.15625 
Q 19.96875 7.515625 21.921875 7.515625 
Q 23.390625 7.515625 25.78125 7.859375 
z
" id="ArialMT-116"/>
      <path d="M 6.59375 0 
L 6.59375 71.578125 
L 15.375 71.578125 
L 15.375 45.90625 
Q 21.53125 53.03125 30.90625 53.03125 
Q 36.671875 53.03125 40.921875 50.75 
Q 45.171875 48.484375 47 44.484375 
Q 48.828125 40.484375 48.828125 32.859375 
L 48.828125 0 
L 40.046875 0 
L 40.046875 32.859375 
Q 40.046875 39.453125 37.1875 42.453125 
Q 34.328125 45.453125 29.109375 45.453125 
Q 25.203125 45.453125 21.75 43.421875 
Q 18.3125 41.40625 16.84375 37.9375 
Q 15.375 34.46875 15.375 28.375 
L 15.375 0 
z
" id="ArialMT-104"/>
      <path d="M 40.234375 0 
L 40.234375 6.546875 
Q 35.296875 -1.171875 25.734375 -1.171875 
Q 19.53125 -1.171875 14.328125 2.25 
Q 9.125 5.671875 6.265625 11.796875 
Q 3.421875 17.921875 3.421875 25.875 
Q 3.421875 33.640625 6 39.96875 
Q 8.59375 46.296875 13.765625 49.65625 
Q 18.953125 53.03125 25.34375 53.03125 
Q 30.03125 53.03125 33.6875 51.046875 
Q 37.359375 49.078125 39.65625 45.90625 
L 39.65625 71.578125 
L 48.390625 71.578125 
L 48.390625 0 
z
M 12.453125 25.875 
Q 12.453125 15.921875 16.640625 10.984375 
Q 20.84375 6.0625 26.5625 6.0625 
Q 32.328125 6.0625 36.34375 10.765625 
Q 40.375 15.484375 40.375 25.140625 
Q 40.375 35.796875 36.265625 40.765625 
Q 32.171875 45.75 26.171875 45.75 
Q 20.3125 45.75 16.375 40.96875 
Q 12.453125 36.1875 12.453125 25.875 
z
" id="ArialMT-100"/>
      <path id="ArialMT-32"/>
      <path d="M 23.390625 -21.046875 
Q 16.109375 -11.859375 11.078125 0.4375 
Q 6.0625 12.75 6.0625 25.921875 
Q 6.0625 37.546875 9.8125 48.1875 
Q 14.203125 60.546875 23.390625 72.796875 
L 29.6875 72.796875 
Q 23.78125 62.640625 21.875 58.296875 
Q 18.890625 51.5625 17.1875 44.234375 
Q 15.09375 35.109375 15.09375 25.875 
Q 15.09375 2.390625 29.6875 -21.046875 
z
" id="ArialMT-40"/>
      <path d="M 8.203125 0 
L 8.203125 71.578125 
L 56.5 71.578125 
L 56.5 63.140625 
L 17.671875 63.140625 
L 17.671875 40.96875 
L 51.265625 40.96875 
L 51.265625 32.515625 
L 17.671875 32.515625 
L 17.671875 0 
z
" id="ArialMT-70"/>
      <path d="M 4.5 23 
L 13.421875 23.78125 
Q 14.0625 18.40625 16.375 14.96875 
Q 18.703125 11.53125 23.578125 9.40625 
Q 28.46875 7.28125 34.578125 7.28125 
Q 39.984375 7.28125 44.140625 8.890625 
Q 48.296875 10.5 50.3125 13.296875 
Q 52.34375 16.109375 52.34375 19.4375 
Q 52.34375 22.796875 50.390625 25.3125 
Q 48.4375 27.828125 43.953125 29.546875 
Q 41.0625 30.671875 31.203125 33.03125 
Q 21.34375 35.40625 17.390625 37.5 
Q 12.25 40.1875 9.734375 44.15625 
Q 7.234375 48.140625 7.234375 53.078125 
Q 7.234375 58.5 10.296875 63.203125 
Q 13.375 67.921875 19.28125 70.359375 
Q 25.203125 72.796875 32.421875 72.796875 
Q 40.375 72.796875 46.453125 70.234375 
Q 52.546875 67.671875 55.8125 62.6875 
Q 59.078125 57.71875 59.328125 51.421875 
L 50.25 50.734375 
Q 49.515625 57.515625 45.28125 60.984375 
Q 41.0625 64.453125 32.8125 64.453125 
Q 24.21875 64.453125 20.28125 61.296875 
Q 16.359375 58.15625 16.359375 53.71875 
Q 16.359375 49.859375 19.140625 47.359375 
Q 21.875 44.875 33.421875 42.265625 
Q 44.96875 39.65625 49.265625 37.703125 
Q 55.515625 34.8125 58.484375 30.390625 
Q 61.46875 25.984375 61.46875 20.21875 
Q 61.46875 14.5 58.203125 9.4375 
Q 54.9375 4.390625 48.796875 1.578125 
Q 42.671875 -1.21875 35.015625 -1.21875 
Q 25.296875 -1.21875 18.71875 1.609375 
Q 12.15625 4.4375 8.421875 10.125 
Q 4.6875 15.828125 4.5 23 
z
" id="ArialMT-83"/>
      <path d="M 56.6875 7.953125 
Q 53.515625 4.296875 49.578125 2.078125 
Q 45.65625 -0.140625 41.703125 -0.140625 
Q 37.359375 -0.140625 33.25 2.390625 
Q 29.15625 4.9375 26.59375 10.203125 
Q 24.03125 15.484375 24.03125 21.78125 
Q 24.03125 29.546875 28 37.328125 
Q 31.984375 45.125 37.890625 49.03125 
Q 43.796875 52.9375 49.359375 52.9375 
Q 53.609375 52.9375 57.46875 50.703125 
Q 61.328125 48.484375 64.109375 43.953125 
L 65.765625 51.515625 
L 74.515625 51.515625 
L 67.484375 18.75 
Q 66.015625 11.921875 66.015625 11.1875 
Q 66.015625 9.859375 67.015625 8.90625 
Q 68.015625 7.953125 69.4375 7.953125 
Q 72.015625 7.953125 76.21875 10.9375 
Q 81.78125 14.84375 85.03125 21.40625 
Q 88.28125 27.984375 88.28125 34.96875 
Q 88.28125 43.109375 84.109375 50.1875 
Q 79.9375 57.28125 71.65625 61.515625 
Q 63.375 65.765625 53.375 65.765625 
Q 41.9375 65.765625 32.484375 60.421875 
Q 23.046875 55.078125 17.84375 45.09375 
Q 12.640625 35.109375 12.640625 23.6875 
Q 12.640625 11.71875 17.84375 3.078125 
Q 23.046875 -5.5625 32.875 -9.6875 
Q 42.71875 -13.8125 54.6875 -13.8125 
Q 67.484375 -13.8125 76.125 -9.515625 
Q 84.765625 -5.21875 89.0625 0.921875 
L 97.90625 0.921875 
Q 95.40625 -4.203125 89.34375 -9.515625 
Q 83.296875 -14.84375 74.953125 -17.9375 
Q 66.609375 -21.046875 54.828125 -21.046875 
Q 44 -21.046875 34.84375 -18.265625 
Q 25.6875 -15.484375 19.234375 -9.890625 
Q 12.796875 -4.296875 9.515625 2.984375 
Q 5.421875 12.203125 5.421875 22.90625 
Q 5.421875 34.8125 10.296875 45.609375 
Q 16.265625 58.84375 27.21875 65.875 
Q 38.1875 72.90625 53.8125 72.90625 
Q 65.921875 72.90625 75.5625 67.9375 
Q 85.203125 62.984375 90.765625 53.171875 
Q 95.515625 44.734375 95.515625 34.8125 
Q 95.515625 20.65625 85.546875 9.671875 
Q 76.65625 -0.203125 66.109375 -0.203125 
Q 62.75 -0.203125 60.671875 0.828125 
Q 58.59375 1.859375 57.625 3.765625 
Q 56.984375 4.984375 56.6875 7.953125 
z
M 33.0625 21.1875 
Q 33.0625 14.5 36.234375 10.78125 
Q 39.40625 7.078125 43.5 7.078125 
Q 46.234375 7.078125 49.265625 8.71875 
Q 52.296875 10.359375 55.046875 13.578125 
Q 57.8125 16.796875 59.5625 21.75 
Q 61.328125 26.703125 61.328125 31.6875 
Q 61.328125 38.328125 58.03125 41.984375 
Q 54.734375 45.65625 50 45.65625 
Q 46.875 45.65625 44.109375 44.0625 
Q 41.359375 42.484375 38.765625 38.96875 
Q 36.1875 35.453125 34.625 30.421875 
Q 33.0625 25.390625 33.0625 21.1875 
z
" id="ArialMT-64"/>
      <path d="M 6.640625 0 
L 6.640625 71.578125 
L 15.4375 71.578125 
L 15.4375 30.765625 
L 36.234375 51.859375 
L 47.609375 51.859375 
L 27.78125 32.625 
L 49.609375 0 
L 38.765625 0 
L 21.625 26.515625 
L 15.4375 20.5625 
L 15.4375 0 
z
" id="ArialMT-107"/>
      <path d="M 2.875 20.3125 
L 11.421875 21.484375 
Q 11.765625 13.28125 14.5 10.25 
Q 17.234375 7.234375 22.078125 7.234375 
Q 25.640625 7.234375 28.21875 8.859375 
Q 30.8125 10.5 31.78125 13.296875 
Q 32.765625 16.109375 32.765625 22.265625 
L 32.765625 71.578125 
L 42.234375 71.578125 
L 42.234375 22.796875 
Q 42.234375 13.8125 40.0625 8.875 
Q 37.890625 3.953125 33.171875 1.359375 
Q 28.46875 -1.21875 22.125 -1.21875 
Q 12.703125 -1.21875 7.6875 4.203125 
Q 2.6875 9.625 2.875 20.3125 
z
" id="ArialMT-74"/>
      <path d="M 12.359375 -21.046875 
L 6.0625 -21.046875 
Q 20.65625 2.390625 20.65625 25.875 
Q 20.65625 35.0625 18.5625 44.09375 
Q 16.890625 51.421875 13.921875 58.15625 
Q 12.015625 62.546875 6.0625 72.796875 
L 12.359375 72.796875 
Q 21.53125 60.546875 25.921875 48.1875 
Q 29.6875 37.546875 29.6875 25.921875 
Q 29.6875 12.75 24.625 0.4375 
Q 19.578125 -11.859375 12.359375 -21.046875 
z
" id="ArialMT-41"/>
     </defs>
     <g style="fill:#262626;" transform="translate(176.058594 243.915937)scale(0.1 -0.1)">
      <use xlink:href="#ArialMT-109"/>
      <use x="83.300781" xlink:href="#ArialMT-101"/>
      <use x="138.916016" xlink:href="#ArialMT-116"/>
      <use x="166.699219" xlink:href="#ArialMT-104"/>
      <use x="222.314453" xlink:href="#ArialMT-111"/>
      <use x="277.929688" xlink:href="#ArialMT-100"/>
      <use x="333.544922" xlink:href="#ArialMT-32"/>
      <use x="361.328125" xlink:href="#ArialMT-40"/>
      <use x="394.628906" xlink:href="#ArialMT-70"/>
      <use x="455.712891" xlink:href="#ArialMT-49"/>
      <use x="511.328125" xlink:href="#ArialMT-32"/>
      <use x="539.111328" xlink:href="#ArialMT-83"/>
      <use x="605.810547" xlink:href="#ArialMT-99"/>
      <use x="655.810547" xlink:href="#ArialMT-111"/>
      <use x="711.425781" xlink:href="#ArialMT-114"/>
      <use x="744.726562" xlink:href="#ArialMT-101"/>
      <use x="800.341797" xlink:href="#ArialMT-32"/>
      <use x="828.125" xlink:href="#ArialMT-64"/>
      <use x="929.638672" xlink:href="#ArialMT-32"/>
      <use x="957.421875" xlink:href="#ArialMT-80"/>
      <use x="1024.121094" xlink:href="#ArialMT-101"/>
      <use x="1079.736328" xlink:href="#ArialMT-97"/>
      <use x="1135.351562" xlink:href="#ArialMT-107"/>
      <use x="1185.351562" xlink:href="#ArialMT-32"/>
      <use x="1213.134766" xlink:href="#ArialMT-74"/>
      <use x="1263.134766" xlink:href="#ArialMT-41"/>
     </g>
    </g>
    <g id="line2d_20">
     <path d="M 37.153125 254.800312 
L 57.153125 254.800312 
" style="fill:none;stroke:#1f77b4;stroke-linecap:round;stroke-width:1.5;"/>
    </g>
    <g id="line2d_21"/>
    <g id="text_16">
     <!-- new_CCR_sift_cutoff_0.03_polyphen_cutoff_0.3_run (0.88) -->
     <defs>
      <path d="M 16.15625 0 
L 0.296875 51.859375 
L 9.375 51.859375 
L 17.625 21.921875 
L 20.703125 10.796875 
Q 20.90625 11.625 23.390625 21.484375 
L 31.640625 51.859375 
L 40.671875 51.859375 
L 48.4375 21.78125 
L 51.03125 11.859375 
L 54 21.875 
L 62.890625 51.859375 
L 71.4375 51.859375 
L 55.21875 0 
L 46.09375 0 
L 37.84375 31.0625 
L 35.84375 39.890625 
L 25.34375 0 
z
" id="ArialMT-119"/>
      <path d="M -1.515625 -19.875 
L -1.515625 -13.53125 
L 56.734375 -13.53125 
L 56.734375 -19.875 
z
" id="ArialMT-95"/>
      <path d="M 58.796875 25.09375 
L 68.265625 22.703125 
Q 65.28125 11.03125 57.546875 4.90625 
Q 49.8125 -1.21875 38.625 -1.21875 
Q 27.046875 -1.21875 19.796875 3.484375 
Q 12.546875 8.203125 8.765625 17.140625 
Q 4.984375 26.078125 4.984375 36.328125 
Q 4.984375 47.515625 9.25 55.828125 
Q 13.53125 64.15625 21.40625 68.46875 
Q 29.296875 72.796875 38.765625 72.796875 
Q 49.515625 72.796875 56.828125 67.328125 
Q 64.15625 61.859375 67.046875 51.953125 
L 57.71875 49.75 
Q 55.21875 57.5625 50.484375 61.125 
Q 45.75 64.703125 38.578125 64.703125 
Q 30.328125 64.703125 24.78125 60.734375 
Q 19.234375 56.78125 16.984375 50.109375 
Q 14.75 43.453125 14.75 36.375 
Q 14.75 27.25 17.40625 20.4375 
Q 20.0625 13.625 25.671875 10.25 
Q 31.296875 6.890625 37.84375 6.890625 
Q 45.796875 6.890625 51.3125 11.46875 
Q 56.84375 16.0625 58.796875 25.09375 
z
" id="ArialMT-67"/>
      <path d="M 8.6875 0 
L 8.6875 45.015625 
L 0.921875 45.015625 
L 0.921875 51.859375 
L 8.6875 51.859375 
L 8.6875 57.375 
Q 8.6875 62.59375 9.625 65.140625 
Q 10.890625 68.5625 14.078125 70.671875 
Q 17.28125 72.796875 23.046875 72.796875 
Q 26.765625 72.796875 31.25 71.921875 
L 29.9375 64.265625 
Q 27.203125 64.75 24.75 64.75 
Q 20.75 64.75 19.09375 63.03125 
Q 17.4375 61.328125 17.4375 56.640625 
L 17.4375 51.859375 
L 27.546875 51.859375 
L 27.546875 45.015625 
L 17.4375 45.015625 
L 17.4375 0 
z
" id="ArialMT-102"/>
      <path d="M 40.578125 0 
L 40.578125 7.625 
Q 34.515625 -1.171875 24.125 -1.171875 
Q 19.53125 -1.171875 15.546875 0.578125 
Q 11.578125 2.34375 9.640625 5 
Q 7.71875 7.671875 6.9375 11.53125 
Q 6.390625 14.109375 6.390625 19.734375 
L 6.390625 51.859375 
L 15.1875 51.859375 
L 15.1875 23.09375 
Q 15.1875 16.21875 15.71875 13.8125 
Q 16.546875 10.359375 19.234375 8.375 
Q 21.921875 6.390625 25.875 6.390625 
Q 29.828125 6.390625 33.296875 8.421875 
Q 36.765625 10.453125 38.203125 13.9375 
Q 39.65625 17.4375 39.65625 24.078125 
L 39.65625 51.859375 
L 48.4375 51.859375 
L 48.4375 0 
z
" id="ArialMT-117"/>
      <path d="M 4.203125 18.890625 
L 12.984375 20.0625 
Q 14.5 12.59375 18.140625 9.296875 
Q 21.78125 6 27 6 
Q 33.203125 6 37.46875 10.296875 
Q 41.75 14.59375 41.75 20.953125 
Q 41.75 27 37.796875 30.921875 
Q 33.84375 34.859375 27.734375 34.859375 
Q 25.25 34.859375 21.53125 33.890625 
L 22.515625 41.609375 
Q 23.390625 41.5 23.921875 41.5 
Q 29.546875 41.5 34.03125 44.421875 
Q 38.53125 47.359375 38.53125 53.46875 
Q 38.53125 58.296875 35.25 61.46875 
Q 31.984375 64.65625 26.8125 64.65625 
Q 21.6875 64.65625 18.265625 61.421875 
Q 14.84375 58.203125 13.875 51.765625 
L 5.078125 53.328125 
Q 6.6875 62.15625 12.390625 67.015625 
Q 18.109375 71.875 26.609375 71.875 
Q 32.46875 71.875 37.390625 69.359375 
Q 42.328125 66.84375 44.9375 62.5 
Q 47.5625 58.15625 47.5625 53.265625 
Q 47.5625 48.640625 45.0625 44.828125 
Q 42.578125 41.015625 37.703125 38.765625 
Q 44.046875 37.3125 47.5625 32.6875 
Q 51.078125 28.078125 51.078125 21.140625 
Q 51.078125 11.765625 44.234375 5.25 
Q 37.40625 -1.265625 26.953125 -1.265625 
Q 17.53125 -1.265625 11.296875 4.34375 
Q 5.078125 9.96875 4.203125 18.890625 
z
" id="ArialMT-51"/>
      <path d="M 6.59375 -19.875 
L 6.59375 51.859375 
L 14.59375 51.859375 
L 14.59375 45.125 
Q 17.4375 49.078125 21 51.046875 
Q 24.5625 53.03125 29.640625 53.03125 
Q 36.28125 53.03125 41.359375 49.609375 
Q 46.4375 46.1875 49.015625 39.953125 
Q 51.609375 33.734375 51.609375 26.3125 
Q 51.609375 18.359375 48.75 11.984375 
Q 45.90625 5.609375 40.453125 2.21875 
Q 35.015625 -1.171875 29 -1.171875 
Q 24.609375 -1.171875 21.109375 0.6875 
Q 17.625 2.546875 15.375 5.375 
L 15.375 -19.875 
z
M 14.546875 25.640625 
Q 14.546875 15.625 18.59375 10.84375 
Q 22.65625 6.0625 28.421875 6.0625 
Q 34.28125 6.0625 38.453125 11.015625 
Q 42.625 15.96875 42.625 26.375 
Q 42.625 36.28125 38.546875 41.203125 
Q 34.46875 46.140625 28.8125 46.140625 
Q 23.1875 46.140625 18.859375 40.890625 
Q 14.546875 35.640625 14.546875 25.640625 
z
" id="ArialMT-112"/>
      <path d="M 6.203125 -19.96875 
L 5.21875 -11.71875 
Q 8.109375 -12.5 10.25 -12.5 
Q 13.1875 -12.5 14.9375 -11.515625 
Q 16.703125 -10.546875 17.828125 -8.796875 
Q 18.65625 -7.46875 20.515625 -2.25 
Q 20.75 -1.515625 21.296875 -0.09375 
L 1.609375 51.859375 
L 11.078125 51.859375 
L 21.875 21.828125 
Q 23.96875 16.109375 25.640625 9.8125 
Q 27.15625 15.875 29.25 21.625 
L 40.328125 51.859375 
L 49.125 51.859375 
L 29.390625 -0.875 
Q 26.21875 -9.421875 24.46875 -12.640625 
Q 22.125 -17 19.09375 -19.015625 
Q 16.0625 -21.046875 11.859375 -21.046875 
Q 9.328125 -21.046875 6.203125 -19.96875 
z
" id="ArialMT-121"/>
     </defs>
     <g style="fill:#262626;" transform="translate(67.153125 258.300312)scale(0.1 -0.1)">
      <use xlink:href="#ArialMT-110"/>
      <use x="55.615234" xlink:href="#ArialMT-101"/>
      <use x="111.230469" xlink:href="#ArialMT-119"/>
      <use x="183.447266" xlink:href="#ArialMT-95"/>
      <use x="239.0625" xlink:href="#ArialMT-67"/>
      <use x="311.279297" xlink:href="#ArialMT-67"/>
      <use x="383.496094" xlink:href="#ArialMT-82"/>
      <use x="455.712891" xlink:href="#ArialMT-95"/>
      <use x="511.328125" xlink:href="#ArialMT-115"/>
      <use x="561.328125" xlink:href="#ArialMT-105"/>
      <use x="583.544922" xlink:href="#ArialMT-102"/>
      <use x="611.328125" xlink:href="#ArialMT-116"/>
      <use x="639.111328" xlink:href="#ArialMT-95"/>
      <use x="694.726562" xlink:href="#ArialMT-99"/>
      <use x="744.726562" xlink:href="#ArialMT-117"/>
      <use x="800.341797" xlink:href="#ArialMT-116"/>
      <use x="828.125" xlink:href="#ArialMT-111"/>
      <use x="883.740234" xlink:href="#ArialMT-102"/>
      <use x="911.507812" xlink:href="#ArialMT-102"/>
      <use x="939.291016" xlink:href="#ArialMT-95"/>
      <use x="994.90625" xlink:href="#ArialMT-48"/>
      <use x="1050.521484" xlink:href="#ArialMT-46"/>
      <use x="1078.304688" xlink:href="#ArialMT-48"/>
      <use x="1133.919922" xlink:href="#ArialMT-51"/>
      <use x="1189.535156" xlink:href="#ArialMT-95"/>
      <use x="1245.150391" xlink:href="#ArialMT-112"/>
      <use x="1300.765625" xlink:href="#ArialMT-111"/>
      <use x="1356.380859" xlink:href="#ArialMT-108"/>
      <use x="1378.597656" xlink:href="#ArialMT-121"/>
      <use x="1428.597656" xlink:href="#ArialMT-112"/>
      <use x="1484.212891" xlink:href="#ArialMT-104"/>
      <use x="1539.828125" xlink:href="#ArialMT-101"/>
      <use x="1595.443359" xlink:href="#ArialMT-110"/>
      <use x="1651.058594" xlink:href="#ArialMT-95"/>
      <use x="1706.673828" xlink:href="#ArialMT-99"/>
      <use x="1756.673828" xlink:href="#ArialMT-117"/>
      <use x="1812.289062" xlink:href="#ArialMT-116"/>
      <use x="1840.072266" xlink:href="#ArialMT-111"/>
      <use x="1895.6875" xlink:href="#ArialMT-102"/>
      <use x="1923.455078" xlink:href="#ArialMT-102"/>
      <use x="1951.238281" xlink:href="#ArialMT-95"/>
      <use x="2006.853516" xlink:href="#ArialMT-48"/>
      <use x="2062.46875" xlink:href="#ArialMT-46"/>
      <use x="2090.251953" xlink:href="#ArialMT-51"/>
      <use x="2145.867188" xlink:href="#ArialMT-95"/>
      <use x="2201.482422" xlink:href="#ArialMT-114"/>
      <use x="2234.783203" xlink:href="#ArialMT-117"/>
      <use x="2290.398438" xlink:href="#ArialMT-110"/>
      <use x="2346.013672" xlink:href="#ArialMT-32"/>
      <use x="2373.796875" xlink:href="#ArialMT-40"/>
      <use x="2407.097656" xlink:href="#ArialMT-48"/>
      <use x="2462.712891" xlink:href="#ArialMT-46"/>
      <use x="2490.496094" xlink:href="#ArialMT-56"/>
      <use x="2546.111328" xlink:href="#ArialMT-56"/>
      <use x="2601.726562" xlink:href="#ArialMT-41"/>
     </g>
    </g>
    <g id="line2d_22">
     <path d="M 37.153125 269.184687 
L 57.153125 269.184687 
" style="fill:none;stroke:#ff7f0e;stroke-linecap:round;stroke-width:1.5;"/>
    </g>
    <g id="line2d_23"/>
    <g id="text_17">
     <!-- new_CCR_no_sift_polyphen_filter (0.89) -->
     <defs>
      <path d="M 5.46875 16.546875 
L 13.921875 17.328125 
Q 14.984375 11.375 18.015625 8.6875 
Q 21.046875 6 25.78125 6 
Q 29.828125 6 32.875 7.859375 
Q 35.9375 9.71875 37.890625 12.8125 
Q 39.84375 15.921875 41.15625 21.1875 
Q 42.484375 26.46875 42.484375 31.9375 
Q 42.484375 32.515625 42.4375 33.6875 
Q 39.796875 29.5 35.234375 26.875 
Q 30.671875 24.265625 25.34375 24.265625 
Q 16.453125 24.265625 10.296875 30.703125 
Q 4.15625 37.15625 4.15625 47.703125 
Q 4.15625 58.59375 10.578125 65.234375 
Q 17 71.875 26.65625 71.875 
Q 33.640625 71.875 39.421875 68.109375 
Q 45.21875 64.359375 48.21875 57.390625 
Q 51.21875 50.4375 51.21875 37.25 
Q 51.21875 23.53125 48.234375 15.40625 
Q 45.265625 7.28125 39.375 3.03125 
Q 33.5 -1.21875 25.59375 -1.21875 
Q 17.1875 -1.21875 11.859375 3.4375 
Q 6.546875 8.109375 5.46875 16.546875 
z
M 41.453125 48.140625 
Q 41.453125 55.71875 37.421875 60.15625 
Q 33.40625 64.59375 27.734375 64.59375 
Q 21.875 64.59375 17.53125 59.8125 
Q 13.1875 55.03125 13.1875 47.40625 
Q 13.1875 40.578125 17.3125 36.296875 
Q 21.4375 32.03125 27.484375 32.03125 
Q 33.59375 32.03125 37.515625 36.296875 
Q 41.453125 40.578125 41.453125 48.140625 
z
" id="ArialMT-57"/>
     </defs>
     <g style="fill:#262626;" transform="translate(67.153125 272.684687)scale(0.1 -0.1)">
      <use xlink:href="#ArialMT-110"/>
      <use x="55.615234" xlink:href="#ArialMT-101"/>
      <use x="111.230469" xlink:href="#ArialMT-119"/>
      <use x="183.447266" xlink:href="#ArialMT-95"/>
      <use x="239.0625" xlink:href="#ArialMT-67"/>
      <use x="311.279297" xlink:href="#ArialMT-67"/>
      <use x="383.496094" xlink:href="#ArialMT-82"/>
      <use x="455.712891" xlink:href="#ArialMT-95"/>
      <use x="511.328125" xlink:href="#ArialMT-110"/>
      <use x="566.943359" xlink:href="#ArialMT-111"/>
      <use x="622.558594" xlink:href="#ArialMT-95"/>
      <use x="678.173828" xlink:href="#ArialMT-115"/>
      <use x="728.173828" xlink:href="#ArialMT-105"/>
      <use x="750.390625" xlink:href="#ArialMT-102"/>
      <use x="778.173828" xlink:href="#ArialMT-116"/>
      <use x="805.957031" xlink:href="#ArialMT-95"/>
      <use x="861.572266" xlink:href="#ArialMT-112"/>
      <use x="917.1875" xlink:href="#ArialMT-111"/>
      <use x="972.802734" xlink:href="#ArialMT-108"/>
      <use x="995.019531" xlink:href="#ArialMT-121"/>
      <use x="1045.019531" xlink:href="#ArialMT-112"/>
      <use x="1100.634766" xlink:href="#ArialMT-104"/>
      <use x="1156.25" xlink:href="#ArialMT-101"/>
      <use x="1211.865234" xlink:href="#ArialMT-110"/>
      <use x="1267.480469" xlink:href="#ArialMT-95"/>
      <use x="1323.095703" xlink:href="#ArialMT-102"/>
      <use x="1350.878906" xlink:href="#ArialMT-105"/>
      <use x="1373.095703" xlink:href="#ArialMT-108"/>
      <use x="1395.3125" xlink:href="#ArialMT-116"/>
      <use x="1423.095703" xlink:href="#ArialMT-101"/>
      <use x="1478.710938" xlink:href="#ArialMT-114"/>
      <use x="1512.011719" xlink:href="#ArialMT-32"/>
      <use x="1539.794922" xlink:href="#ArialMT-40"/>
      <use x="1573.095703" xlink:href="#ArialMT-48"/>
      <use x="1628.710938" xlink:href="#ArialMT-46"/>
      <use x="1656.494141" xlink:href="#ArialMT-56"/>
      <use x="1712.109375" xlink:href="#ArialMT-57"/>
      <use x="1767.724609" xlink:href="#ArialMT-41"/>
     </g>
    </g>
    <g id="line2d_24">
     <path d="M 37.153125 283.569062 
L 57.153125 283.569062 
" style="fill:none;stroke:#2ca02c;stroke-linecap:round;stroke-width:1.5;"/>
    </g>
    <g id="line2d_25"/>
    <g id="text_18">
     <!-- new_CCR_sift_cutoff_0.04_polyphen_cutoff_0.4_run (0.88) -->
     <g style="fill:#262626;" transform="translate(67.153125 287.069062)scale(0.1 -0.1)">
      <use xlink:href="#ArialMT-110"/>
      <use x="55.615234" xlink:href="#ArialMT-101"/>
      <use x="111.230469" xlink:href="#ArialMT-119"/>
      <use x="183.447266" xlink:href="#ArialMT-95"/>
      <use x="239.0625" xlink:href="#ArialMT-67"/>
      <use x="311.279297" xlink:href="#ArialMT-67"/>
      <use x="383.496094" xlink:href="#ArialMT-82"/>
      <use x="455.712891" xlink:href="#ArialMT-95"/>
      <use x="511.328125" xlink:href="#ArialMT-115"/>
      <use x="561.328125" xlink:href="#ArialMT-105"/>
      <use x="583.544922" xlink:href="#ArialMT-102"/>
      <use x="611.328125" xlink:href="#ArialMT-116"/>
      <use x="639.111328" xlink:href="#ArialMT-95"/>
      <use x="694.726562" xlink:href="#ArialMT-99"/>
      <use x="744.726562" xlink:href="#ArialMT-117"/>
      <use x="800.341797" xlink:href="#ArialMT-116"/>
      <use x="828.125" xlink:href="#ArialMT-111"/>
      <use x="883.740234" xlink:href="#ArialMT-102"/>
      <use x="911.507812" xlink:href="#ArialMT-102"/>
      <use x="939.291016" xlink:href="#ArialMT-95"/>
      <use x="994.90625" xlink:href="#ArialMT-48"/>
      <use x="1050.521484" xlink:href="#ArialMT-46"/>
      <use x="1078.304688" xlink:href="#ArialMT-48"/>
      <use x="1133.919922" xlink:href="#ArialMT-52"/>
      <use x="1189.535156" xlink:href="#ArialMT-95"/>
      <use x="1245.150391" xlink:href="#ArialMT-112"/>
      <use x="1300.765625" xlink:href="#ArialMT-111"/>
      <use x="1356.380859" xlink:href="#ArialMT-108"/>
      <use x="1378.597656" xlink:href="#ArialMT-121"/>
      <use x="1428.597656" xlink:href="#ArialMT-112"/>
      <use x="1484.212891" xlink:href="#ArialMT-104"/>
      <use x="1539.828125" xlink:href="#ArialMT-101"/>
      <use x="1595.443359" xlink:href="#ArialMT-110"/>
      <use x="1651.058594" xlink:href="#ArialMT-95"/>
      <use x="1706.673828" xlink:href="#ArialMT-99"/>
      <use x="1756.673828" xlink:href="#ArialMT-117"/>
      <use x="1812.289062" xlink:href="#ArialMT-116"/>
      <use x="1840.072266" xlink:href="#ArialMT-111"/>
      <use x="1895.6875" xlink:href="#ArialMT-102"/>
      <use x="1923.455078" xlink:href="#ArialMT-102"/>
      <use x="1951.238281" xlink:href="#ArialMT-95"/>
      <use x="2006.853516" xlink:href="#ArialMT-48"/>
      <use x="2062.46875" xlink:href="#ArialMT-46"/>
      <use x="2090.251953" xlink:href="#ArialMT-52"/>
      <use x="2145.867188" xlink:href="#ArialMT-95"/>
      <use x="2201.482422" xlink:href="#ArialMT-114"/>
      <use x="2234.783203" xlink:href="#ArialMT-117"/>
      <use x="2290.398438" xlink:href="#ArialMT-110"/>
      <use x="2346.013672" xlink:href="#ArialMT-32"/>
      <use x="2373.796875" xlink:href="#ArialMT-40"/>
      <use x="2407.097656" xlink:href="#ArialMT-48"/>
      <use x="2462.712891" xlink:href="#ArialMT-46"/>
      <use x="2490.496094" xlink:href="#ArialMT-56"/>
      <use x="2546.111328" xlink:href="#ArialMT-56"/>
      <use x="2601.726562" xlink:href="#ArialMT-41"/>
     </g>
    </g>
    <g id="line2d_26">
     <path d="M 37.153125 297.953437 
L 57.153125 297.953437 
" style="fill:none;stroke:#d62728;stroke-linecap:round;stroke-width:1.5;"/>
    </g>
    <g id="line2d_27"/>
    <g id="text_19">
     <!-- chr20_jim_ccr (0.90) -->
     <defs>
      <path d="M 6.546875 61.375 
L 6.546875 71.578125 
L 15.328125 71.578125 
L 15.328125 61.375 
z
M -4.59375 -20.125 
L -2.9375 -12.640625 
Q -0.296875 -13.328125 1.21875 -13.328125 
Q 3.90625 -13.328125 5.21875 -11.546875 
Q 6.546875 -9.765625 6.546875 -2.640625 
L 6.546875 51.859375 
L 15.328125 51.859375 
L 15.328125 -2.828125 
Q 15.328125 -12.40625 12.84375 -16.15625 
Q 9.671875 -21.046875 2.296875 -21.046875 
Q -1.265625 -21.046875 -4.59375 -20.125 
z
" id="ArialMT-106"/>
     </defs>
     <g style="fill:#262626;" transform="translate(67.153125 301.453437)scale(0.1 -0.1)">
      <use xlink:href="#ArialMT-99"/>
      <use x="50" xlink:href="#ArialMT-104"/>
      <use x="105.615234" xlink:href="#ArialMT-114"/>
      <use x="138.916016" xlink:href="#ArialMT-50"/>
      <use x="194.53125" xlink:href="#ArialMT-48"/>
      <use x="250.146484" xlink:href="#ArialMT-95"/>
      <use x="305.761719" xlink:href="#ArialMT-106"/>
      <use x="327.978516" xlink:href="#ArialMT-105"/>
      <use x="350.195312" xlink:href="#ArialMT-109"/>
      <use x="433.496094" xlink:href="#ArialMT-95"/>
      <use x="489.111328" xlink:href="#ArialMT-99"/>
      <use x="539.111328" xlink:href="#ArialMT-99"/>
      <use x="589.111328" xlink:href="#ArialMT-114"/>
      <use x="622.412109" xlink:href="#ArialMT-32"/>
      <use x="650.195312" xlink:href="#ArialMT-40"/>
      <use x="683.496094" xlink:href="#ArialMT-48"/>
      <use x="739.111328" xlink:href="#ArialMT-46"/>
      <use x="766.894531" xlink:href="#ArialMT-57"/>
      <use x="822.509766" xlink:href="#ArialMT-48"/>
      <use x="878.125" xlink:href="#ArialMT-41"/>
     </g>
    </g>
    <g id="line2d_28">
     <path d="M 37.153125 312.337812 
L 57.153125 312.337812 
" style="fill:none;stroke:#9467bd;stroke-linecap:round;stroke-width:1.5;"/>
    </g>
    <g id="line2d_29"/>
    <g id="text_20">
     <!-- new_CCR_sift_cutoff_0.05_polyphen_cutoff_0.908_vaf_cutoff_5th_percentile (0.89) -->
     <defs>
      <path d="M 4.15625 18.75 
L 13.375 19.53125 
Q 14.40625 12.796875 18.140625 9.390625 
Q 21.875 6 27.15625 6 
Q 33.5 6 37.890625 10.78125 
Q 42.28125 15.578125 42.28125 23.484375 
Q 42.28125 31 38.0625 35.34375 
Q 33.84375 39.703125 27 39.703125 
Q 22.75 39.703125 19.328125 37.765625 
Q 15.921875 35.84375 13.96875 32.765625 
L 5.71875 33.84375 
L 12.640625 70.609375 
L 48.25 70.609375 
L 48.25 62.203125 
L 19.671875 62.203125 
L 15.828125 42.96875 
Q 22.265625 47.46875 29.34375 47.46875 
Q 38.71875 47.46875 45.15625 40.96875 
Q 51.609375 34.46875 51.609375 24.265625 
Q 51.609375 14.546875 45.953125 7.46875 
Q 39.0625 -1.21875 27.15625 -1.21875 
Q 17.390625 -1.21875 11.203125 4.25 
Q 5.03125 9.71875 4.15625 18.75 
z
" id="ArialMT-53"/>
      <path d="M 21 0 
L 1.265625 51.859375 
L 10.546875 51.859375 
L 21.6875 20.796875 
Q 23.484375 15.765625 25 10.359375 
Q 26.171875 14.453125 28.265625 20.21875 
L 39.796875 51.859375 
L 48.828125 51.859375 
L 29.203125 0 
z
" id="ArialMT-118"/>
     </defs>
     <g style="fill:#262626;" transform="translate(67.153125 315.837812)scale(0.1 -0.1)">
      <use xlink:href="#ArialMT-110"/>
      <use x="55.615234" xlink:href="#ArialMT-101"/>
      <use x="111.230469" xlink:href="#ArialMT-119"/>
      <use x="183.447266" xlink:href="#ArialMT-95"/>
      <use x="239.0625" xlink:href="#ArialMT-67"/>
      <use x="311.279297" xlink:href="#ArialMT-67"/>
      <use x="383.496094" xlink:href="#ArialMT-82"/>
      <use x="455.712891" xlink:href="#ArialMT-95"/>
      <use x="511.328125" xlink:href="#ArialMT-115"/>
      <use x="561.328125" xlink:href="#ArialMT-105"/>
      <use x="583.544922" xlink:href="#ArialMT-102"/>
      <use x="611.328125" xlink:href="#ArialMT-116"/>
      <use x="639.111328" xlink:href="#ArialMT-95"/>
      <use x="694.726562" xlink:href="#ArialMT-99"/>
      <use x="744.726562" xlink:href="#ArialMT-117"/>
      <use x="800.341797" xlink:href="#ArialMT-116"/>
      <use x="828.125" xlink:href="#ArialMT-111"/>
      <use x="883.740234" xlink:href="#ArialMT-102"/>
      <use x="911.507812" xlink:href="#ArialMT-102"/>
      <use x="939.291016" xlink:href="#ArialMT-95"/>
      <use x="994.90625" xlink:href="#ArialMT-48"/>
      <use x="1050.521484" xlink:href="#ArialMT-46"/>
      <use x="1078.304688" xlink:href="#ArialMT-48"/>
      <use x="1133.919922" xlink:href="#ArialMT-53"/>
      <use x="1189.535156" xlink:href="#ArialMT-95"/>
      <use x="1245.150391" xlink:href="#ArialMT-112"/>
      <use x="1300.765625" xlink:href="#ArialMT-111"/>
      <use x="1356.380859" xlink:href="#ArialMT-108"/>
      <use x="1378.597656" xlink:href="#ArialMT-121"/>
      <use x="1428.597656" xlink:href="#ArialMT-112"/>
      <use x="1484.212891" xlink:href="#ArialMT-104"/>
      <use x="1539.828125" xlink:href="#ArialMT-101"/>
      <use x="1595.443359" xlink:href="#ArialMT-110"/>
      <use x="1651.058594" xlink:href="#ArialMT-95"/>
      <use x="1706.673828" xlink:href="#ArialMT-99"/>
      <use x="1756.673828" xlink:href="#ArialMT-117"/>
      <use x="1812.289062" xlink:href="#ArialMT-116"/>
      <use x="1840.072266" xlink:href="#ArialMT-111"/>
      <use x="1895.6875" xlink:href="#ArialMT-102"/>
      <use x="1923.455078" xlink:href="#ArialMT-102"/>
      <use x="1951.238281" xlink:href="#ArialMT-95"/>
      <use x="2006.853516" xlink:href="#ArialMT-48"/>
      <use x="2062.46875" xlink:href="#ArialMT-46"/>
      <use x="2090.251953" xlink:href="#ArialMT-57"/>
      <use x="2145.867188" xlink:href="#ArialMT-48"/>
      <use x="2201.482422" xlink:href="#ArialMT-56"/>
      <use x="2257.097656" xlink:href="#ArialMT-95"/>
      <use x="2312.712891" xlink:href="#ArialMT-118"/>
      <use x="2362.712891" xlink:href="#ArialMT-97"/>
      <use x="2418.328125" xlink:href="#ArialMT-102"/>
      <use x="2446.111328" xlink:href="#ArialMT-95"/>
      <use x="2501.726562" xlink:href="#ArialMT-99"/>
      <use x="2551.726562" xlink:href="#ArialMT-117"/>
      <use x="2607.341797" xlink:href="#ArialMT-116"/>
      <use x="2635.125" xlink:href="#ArialMT-111"/>
      <use x="2690.740234" xlink:href="#ArialMT-102"/>
      <use x="2718.507812" xlink:href="#ArialMT-102"/>
      <use x="2746.291016" xlink:href="#ArialMT-95"/>
      <use x="2801.90625" xlink:href="#ArialMT-53"/>
      <use x="2857.521484" xlink:href="#ArialMT-116"/>
      <use x="2885.304688" xlink:href="#ArialMT-104"/>
      <use x="2940.919922" xlink:href="#ArialMT-95"/>
      <use x="2996.535156" xlink:href="#ArialMT-112"/>
      <use x="3052.150391" xlink:href="#ArialMT-101"/>
      <use x="3107.765625" xlink:href="#ArialMT-114"/>
      <use x="3141.066406" xlink:href="#ArialMT-99"/>
      <use x="3191.066406" xlink:href="#ArialMT-101"/>
      <use x="3246.681641" xlink:href="#ArialMT-110"/>
      <use x="3302.296875" xlink:href="#ArialMT-116"/>
      <use x="3330.080078" xlink:href="#ArialMT-105"/>
      <use x="3352.296875" xlink:href="#ArialMT-108"/>
      <use x="3374.513672" xlink:href="#ArialMT-101"/>
      <use x="3430.128906" xlink:href="#ArialMT-32"/>
      <use x="3457.912109" xlink:href="#ArialMT-40"/>
      <use x="3491.212891" xlink:href="#ArialMT-48"/>
      <use x="3546.828125" xlink:href="#ArialMT-46"/>
      <use x="3574.611328" xlink:href="#ArialMT-56"/>
      <use x="3630.226562" xlink:href="#ArialMT-57"/>
      <use x="3685.841797" xlink:href="#ArialMT-41"/>
     </g>
    </g>
    <g id="line2d_30">
     <path d="M 37.153125 326.722187 
L 57.153125 326.722187 
" style="fill:none;stroke:#8c564b;stroke-linecap:round;stroke-width:1.5;"/>
    </g>
    <g id="line2d_31"/>
    <g id="text_21">
     <!-- new_CCR_no_sift_polyphen_filter_vaf_cutoff_10th_percentile (0.90) -->
     <g style="fill:#262626;" transform="translate(67.153125 330.222187)scale(0.1 -0.1)">
      <use xlink:href="#ArialMT-110"/>
      <use x="55.615234" xlink:href="#ArialMT-101"/>
      <use x="111.230469" xlink:href="#ArialMT-119"/>
      <use x="183.447266" xlink:href="#ArialMT-95"/>
      <use x="239.0625" xlink:href="#ArialMT-67"/>
      <use x="311.279297" xlink:href="#ArialMT-67"/>
      <use x="383.496094" xlink:href="#ArialMT-82"/>
      <use x="455.712891" xlink:href="#ArialMT-95"/>
      <use x="511.328125" xlink:href="#ArialMT-110"/>
      <use x="566.943359" xlink:href="#ArialMT-111"/>
      <use x="622.558594" xlink:href="#ArialMT-95"/>
      <use x="678.173828" xlink:href="#ArialMT-115"/>
      <use x="728.173828" xlink:href="#ArialMT-105"/>
      <use x="750.390625" xlink:href="#ArialMT-102"/>
      <use x="778.173828" xlink:href="#ArialMT-116"/>
      <use x="805.957031" xlink:href="#ArialMT-95"/>
      <use x="861.572266" xlink:href="#ArialMT-112"/>
      <use x="917.1875" xlink:href="#ArialMT-111"/>
      <use x="972.802734" xlink:href="#ArialMT-108"/>
      <use x="995.019531" xlink:href="#ArialMT-121"/>
      <use x="1045.019531" xlink:href="#ArialMT-112"/>
      <use x="1100.634766" xlink:href="#ArialMT-104"/>
      <use x="1156.25" xlink:href="#ArialMT-101"/>
      <use x="1211.865234" xlink:href="#ArialMT-110"/>
      <use x="1267.480469" xlink:href="#ArialMT-95"/>
      <use x="1323.095703" xlink:href="#ArialMT-102"/>
      <use x="1350.878906" xlink:href="#ArialMT-105"/>
      <use x="1373.095703" xlink:href="#ArialMT-108"/>
      <use x="1395.3125" xlink:href="#ArialMT-116"/>
      <use x="1423.095703" xlink:href="#ArialMT-101"/>
      <use x="1478.710938" xlink:href="#ArialMT-114"/>
      <use x="1512.011719" xlink:href="#ArialMT-95"/>
      <use x="1567.626953" xlink:href="#ArialMT-118"/>
      <use x="1617.626953" xlink:href="#ArialMT-97"/>
      <use x="1673.242188" xlink:href="#ArialMT-102"/>
      <use x="1701.025391" xlink:href="#ArialMT-95"/>
      <use x="1756.640625" xlink:href="#ArialMT-99"/>
      <use x="1806.640625" xlink:href="#ArialMT-117"/>
      <use x="1862.255859" xlink:href="#ArialMT-116"/>
      <use x="1890.039062" xlink:href="#ArialMT-111"/>
      <use x="1945.654297" xlink:href="#ArialMT-102"/>
      <use x="1973.421875" xlink:href="#ArialMT-102"/>
      <use x="2001.205078" xlink:href="#ArialMT-95"/>
      <use x="2056.820312" xlink:href="#ArialMT-49"/>
      <use x="2112.435547" xlink:href="#ArialMT-48"/>
      <use x="2168.050781" xlink:href="#ArialMT-116"/>
      <use x="2195.833984" xlink:href="#ArialMT-104"/>
      <use x="2251.449219" xlink:href="#ArialMT-95"/>
      <use x="2307.064453" xlink:href="#ArialMT-112"/>
      <use x="2362.679688" xlink:href="#ArialMT-101"/>
      <use x="2418.294922" xlink:href="#ArialMT-114"/>
      <use x="2451.595703" xlink:href="#ArialMT-99"/>
      <use x="2501.595703" xlink:href="#ArialMT-101"/>
      <use x="2557.210938" xlink:href="#ArialMT-110"/>
      <use x="2612.826172" xlink:href="#ArialMT-116"/>
      <use x="2640.609375" xlink:href="#ArialMT-105"/>
      <use x="2662.826172" xlink:href="#ArialMT-108"/>
      <use x="2685.042969" xlink:href="#ArialMT-101"/>
      <use x="2740.658203" xlink:href="#ArialMT-32"/>
      <use x="2768.441406" xlink:href="#ArialMT-40"/>
      <use x="2801.742188" xlink:href="#ArialMT-48"/>
      <use x="2857.357422" xlink:href="#ArialMT-46"/>
      <use x="2885.140625" xlink:href="#ArialMT-57"/>
      <use x="2940.755859" xlink:href="#ArialMT-48"/>
      <use x="2996.371094" xlink:href="#ArialMT-41"/>
     </g>
    </g>
    <g id="line2d_32">
     <path d="M 37.153125 341.106562 
L 57.153125 341.106562 
" style="fill:none;stroke:#e377c2;stroke-linecap:round;stroke-width:1.5;"/>
    </g>
    <g id="line2d_33"/>
    <g id="text_22">
     <!-- new_CCR_sift_cutoff_0.05_polyphen_cutoff_0.5_run (0.88) -->
     <g style="fill:#262626;" transform="translate(67.153125 344.606562)scale(0.1 -0.1)">
      <use xlink:href="#ArialMT-110"/>
      <use x="55.615234" xlink:href="#ArialMT-101"/>
      <use x="111.230469" xlink:href="#ArialMT-119"/>
      <use x="183.447266" xlink:href="#ArialMT-95"/>
      <use x="239.0625" xlink:href="#ArialMT-67"/>
      <use x="311.279297" xlink:href="#ArialMT-67"/>
      <use x="383.496094" xlink:href="#ArialMT-82"/>
      <use x="455.712891" xlink:href="#ArialMT-95"/>
      <use x="511.328125" xlink:href="#ArialMT-115"/>
      <use x="561.328125" xlink:href="#ArialMT-105"/>
      <use x="583.544922" xlink:href="#ArialMT-102"/>
      <use x="611.328125" xlink:href="#ArialMT-116"/>
      <use x="639.111328" xlink:href="#ArialMT-95"/>
      <use x="694.726562" xlink:href="#ArialMT-99"/>
      <use x="744.726562" xlink:href="#ArialMT-117"/>
      <use x="800.341797" xlink:href="#ArialMT-116"/>
      <use x="828.125" xlink:href="#ArialMT-111"/>
      <use x="883.740234" xlink:href="#ArialMT-102"/>
      <use x="911.507812" xlink:href="#ArialMT-102"/>
      <use x="939.291016" xlink:href="#ArialMT-95"/>
      <use x="994.90625" xlink:href="#ArialMT-48"/>
      <use x="1050.521484" xlink:href="#ArialMT-46"/>
      <use x="1078.304688" xlink:href="#ArialMT-48"/>
      <use x="1133.919922" xlink:href="#ArialMT-53"/>
      <use x="1189.535156" xlink:href="#ArialMT-95"/>
      <use x="1245.150391" xlink:href="#ArialMT-112"/>
      <use x="1300.765625" xlink:href="#ArialMT-111"/>
      <use x="1356.380859" xlink:href="#ArialMT-108"/>
      <use x="1378.597656" xlink:href="#ArialMT-121"/>
      <use x="1428.597656" xlink:href="#ArialMT-112"/>
      <use x="1484.212891" xlink:href="#ArialMT-104"/>
      <use x="1539.828125" xlink:href="#ArialMT-101"/>
      <use x="1595.443359" xlink:href="#ArialMT-110"/>
      <use x="1651.058594" xlink:href="#ArialMT-95"/>
      <use x="1706.673828" xlink:href="#ArialMT-99"/>
      <use x="1756.673828" xlink:href="#ArialMT-117"/>
      <use x="1812.289062" xlink:href="#ArialMT-116"/>
      <use x="1840.072266" xlink:href="#ArialMT-111"/>
      <use x="1895.6875" xlink:href="#ArialMT-102"/>
      <use x="1923.455078" xlink:href="#ArialMT-102"/>
      <use x="1951.238281" xlink:href="#ArialMT-95"/>
      <use x="2006.853516" xlink:href="#ArialMT-48"/>
      <use x="2062.46875" xlink:href="#ArialMT-46"/>
      <use x="2090.251953" xlink:href="#ArialMT-53"/>
      <use x="2145.867188" xlink:href="#ArialMT-95"/>
      <use x="2201.482422" xlink:href="#ArialMT-114"/>
      <use x="2234.783203" xlink:href="#ArialMT-117"/>
      <use x="2290.398438" xlink:href="#ArialMT-110"/>
      <use x="2346.013672" xlink:href="#ArialMT-32"/>
      <use x="2373.796875" xlink:href="#ArialMT-40"/>
      <use x="2407.097656" xlink:href="#ArialMT-48"/>
      <use x="2462.712891" xlink:href="#ArialMT-46"/>
      <use x="2490.496094" xlink:href="#ArialMT-56"/>
      <use x="2546.111328" xlink:href="#ArialMT-56"/>
      <use x="2601.726562" xlink:href="#ArialMT-41"/>
     </g>
    </g>
    <g id="line2d_34">
     <path d="M 37.153125 355.490937 
L 57.153125 355.490937 
" style="fill:none;stroke:#7f7f7f;stroke-linecap:round;stroke-width:1.5;"/>
    </g>
    <g id="line2d_35"/>
    <g id="text_23">
     <!-- new_CCR_no_combine_adjacent_variants (0.89) -->
     <defs>
      <path d="M 14.703125 0 
L 6.546875 0 
L 6.546875 71.578125 
L 15.328125 71.578125 
L 15.328125 46.046875 
Q 20.90625 53.03125 29.546875 53.03125 
Q 34.328125 53.03125 38.59375 51.09375 
Q 42.875 49.171875 45.625 45.671875 
Q 48.390625 42.1875 49.953125 37.25 
Q 51.515625 32.328125 51.515625 26.703125 
Q 51.515625 13.375 44.921875 6.09375 
Q 38.328125 -1.171875 29.109375 -1.171875 
Q 19.921875 -1.171875 14.703125 6.5 
z
M 14.59375 26.3125 
Q 14.59375 17 17.140625 12.84375 
Q 21.296875 6.0625 28.375 6.0625 
Q 34.125 6.0625 38.328125 11.0625 
Q 42.53125 16.0625 42.53125 25.984375 
Q 42.53125 36.140625 38.5 40.96875 
Q 34.46875 45.796875 28.765625 45.796875 
Q 23 45.796875 18.796875 40.796875 
Q 14.59375 35.796875 14.59375 26.3125 
z
" id="ArialMT-98"/>
     </defs>
     <g style="fill:#262626;" transform="translate(67.153125 358.990937)scale(0.1 -0.1)">
      <use xlink:href="#ArialMT-110"/>
      <use x="55.615234" xlink:href="#ArialMT-101"/>
      <use x="111.230469" xlink:href="#ArialMT-119"/>
      <use x="183.447266" xlink:href="#ArialMT-95"/>
      <use x="239.0625" xlink:href="#ArialMT-67"/>
      <use x="311.279297" xlink:href="#ArialMT-67"/>
      <use x="383.496094" xlink:href="#ArialMT-82"/>
      <use x="455.712891" xlink:href="#ArialMT-95"/>
      <use x="511.328125" xlink:href="#ArialMT-110"/>
      <use x="566.943359" xlink:href="#ArialMT-111"/>
      <use x="622.558594" xlink:href="#ArialMT-95"/>
      <use x="678.173828" xlink:href="#ArialMT-99"/>
      <use x="728.173828" xlink:href="#ArialMT-111"/>
      <use x="783.789062" xlink:href="#ArialMT-109"/>
      <use x="867.089844" xlink:href="#ArialMT-98"/>
      <use x="922.705078" xlink:href="#ArialMT-105"/>
      <use x="944.921875" xlink:href="#ArialMT-110"/>
      <use x="1000.537109" xlink:href="#ArialMT-101"/>
      <use x="1056.152344" xlink:href="#ArialMT-95"/>
      <use x="1111.767578" xlink:href="#ArialMT-97"/>
      <use x="1167.382812" xlink:href="#ArialMT-100"/>
      <use x="1222.998047" xlink:href="#ArialMT-106"/>
      <use x="1245.214844" xlink:href="#ArialMT-97"/>
      <use x="1300.830078" xlink:href="#ArialMT-99"/>
      <use x="1350.830078" xlink:href="#ArialMT-101"/>
      <use x="1406.445312" xlink:href="#ArialMT-110"/>
      <use x="1462.060547" xlink:href="#ArialMT-116"/>
      <use x="1489.84375" xlink:href="#ArialMT-95"/>
      <use x="1545.458984" xlink:href="#ArialMT-118"/>
      <use x="1595.458984" xlink:href="#ArialMT-97"/>
      <use x="1651.074219" xlink:href="#ArialMT-114"/>
      <use x="1684.375" xlink:href="#ArialMT-105"/>
      <use x="1706.591797" xlink:href="#ArialMT-97"/>
      <use x="1762.207031" xlink:href="#ArialMT-110"/>
      <use x="1817.822266" xlink:href="#ArialMT-116"/>
      <use x="1845.605469" xlink:href="#ArialMT-115"/>
      <use x="1895.605469" xlink:href="#ArialMT-32"/>
      <use x="1923.388672" xlink:href="#ArialMT-40"/>
      <use x="1956.689453" xlink:href="#ArialMT-48"/>
      <use x="2012.304688" xlink:href="#ArialMT-46"/>
      <use x="2040.087891" xlink:href="#ArialMT-56"/>
      <use x="2095.703125" xlink:href="#ArialMT-57"/>
      <use x="2151.318359" xlink:href="#ArialMT-41"/>
     </g>
    </g>
    <g id="line2d_36">
     <path d="M 37.153125 369.875312 
L 57.153125 369.875312 
" style="fill:none;stroke:#bcbd22;stroke-linecap:round;stroke-width:1.5;"/>
    </g>
    <g id="line2d_37"/>
    <g id="text_24">
     <!-- new_CCR_sift_cutoff_0.05_polyphen_cutoff_0.908_vaf_cutoff_15th_percentile (0.91) -->
     <g style="fill:#262626;" transform="translate(67.153125 373.375312)scale(0.1 -0.1)">
      <use xlink:href="#ArialMT-110"/>
      <use x="55.615234" xlink:href="#ArialMT-101"/>
      <use x="111.230469" xlink:href="#ArialMT-119"/>
      <use x="183.447266" xlink:href="#ArialMT-95"/>
      <use x="239.0625" xlink:href="#ArialMT-67"/>
      <use x="311.279297" xlink:href="#ArialMT-67"/>
      <use x="383.496094" xlink:href="#ArialMT-82"/>
      <use x="455.712891" xlink:href="#ArialMT-95"/>
      <use x="511.328125" xlink:href="#ArialMT-115"/>
      <use x="561.328125" xlink:href="#ArialMT-105"/>
      <use x="583.544922" xlink:href="#ArialMT-102"/>
      <use x="611.328125" xlink:href="#ArialMT-116"/>
      <use x="639.111328" xlink:href="#ArialMT-95"/>
      <use x="694.726562" xlink:href="#ArialMT-99"/>
      <use x="744.726562" xlink:href="#ArialMT-117"/>
      <use x="800.341797" xlink:href="#ArialMT-116"/>
      <use x="828.125" xlink:href="#ArialMT-111"/>
      <use x="883.740234" xlink:href="#ArialMT-102"/>
      <use x="911.507812" xlink:href="#ArialMT-102"/>
      <use x="939.291016" xlink:href="#ArialMT-95"/>
      <use x="994.90625" xlink:href="#ArialMT-48"/>
      <use x="1050.521484" xlink:href="#ArialMT-46"/>
      <use x="1078.304688" xlink:href="#ArialMT-48"/>
      <use x="1133.919922" xlink:href="#ArialMT-53"/>
      <use x="1189.535156" xlink:href="#ArialMT-95"/>
      <use x="1245.150391" xlink:href="#ArialMT-112"/>
      <use x="1300.765625" xlink:href="#ArialMT-111"/>
      <use x="1356.380859" xlink:href="#ArialMT-108"/>
      <use x="1378.597656" xlink:href="#ArialMT-121"/>
      <use x="1428.597656" xlink:href="#ArialMT-112"/>
      <use x="1484.212891" xlink:href="#ArialMT-104"/>
      <use x="1539.828125" xlink:href="#ArialMT-101"/>
      <use x="1595.443359" xlink:href="#ArialMT-110"/>
      <use x="1651.058594" xlink:href="#ArialMT-95"/>
      <use x="1706.673828" xlink:href="#ArialMT-99"/>
      <use x="1756.673828" xlink:href="#ArialMT-117"/>
      <use x="1812.289062" xlink:href="#ArialMT-116"/>
      <use x="1840.072266" xlink:href="#ArialMT-111"/>
      <use x="1895.6875" xlink:href="#ArialMT-102"/>
      <use x="1923.455078" xlink:href="#ArialMT-102"/>
      <use x="1951.238281" xlink:href="#ArialMT-95"/>
      <use x="2006.853516" xlink:href="#ArialMT-48"/>
      <use x="2062.46875" xlink:href="#ArialMT-46"/>
      <use x="2090.251953" xlink:href="#ArialMT-57"/>
      <use x="2145.867188" xlink:href="#ArialMT-48"/>
      <use x="2201.482422" xlink:href="#ArialMT-56"/>
      <use x="2257.097656" xlink:href="#ArialMT-95"/>
      <use x="2312.712891" xlink:href="#ArialMT-118"/>
      <use x="2362.712891" xlink:href="#ArialMT-97"/>
      <use x="2418.328125" xlink:href="#ArialMT-102"/>
      <use x="2446.111328" xlink:href="#ArialMT-95"/>
      <use x="2501.726562" xlink:href="#ArialMT-99"/>
      <use x="2551.726562" xlink:href="#ArialMT-117"/>
      <use x="2607.341797" xlink:href="#ArialMT-116"/>
      <use x="2635.125" xlink:href="#ArialMT-111"/>
      <use x="2690.740234" xlink:href="#ArialMT-102"/>
      <use x="2718.507812" xlink:href="#ArialMT-102"/>
      <use x="2746.291016" xlink:href="#ArialMT-95"/>
      <use x="2801.90625" xlink:href="#ArialMT-49"/>
      <use x="2857.521484" xlink:href="#ArialMT-53"/>
      <use x="2913.136719" xlink:href="#ArialMT-116"/>
      <use x="2940.919922" xlink:href="#ArialMT-104"/>
      <use x="2996.535156" xlink:href="#ArialMT-95"/>
      <use x="3052.150391" xlink:href="#ArialMT-112"/>
      <use x="3107.765625" xlink:href="#ArialMT-101"/>
      <use x="3163.380859" xlink:href="#ArialMT-114"/>
      <use x="3196.681641" xlink:href="#ArialMT-99"/>
      <use x="3246.681641" xlink:href="#ArialMT-101"/>
      <use x="3302.296875" xlink:href="#ArialMT-110"/>
      <use x="3357.912109" xlink:href="#ArialMT-116"/>
      <use x="3385.695312" xlink:href="#ArialMT-105"/>
      <use x="3407.912109" xlink:href="#ArialMT-108"/>
      <use x="3430.128906" xlink:href="#ArialMT-101"/>
      <use x="3485.744141" xlink:href="#ArialMT-32"/>
      <use x="3513.527344" xlink:href="#ArialMT-40"/>
      <use x="3546.828125" xlink:href="#ArialMT-48"/>
      <use x="3602.443359" xlink:href="#ArialMT-46"/>
      <use x="3630.226562" xlink:href="#ArialMT-57"/>
      <use x="3685.841797" xlink:href="#ArialMT-49"/>
      <use x="3741.457031" xlink:href="#ArialMT-41"/>
     </g>
    </g>
   </g>
  </g>
 </g>
 <defs>
  <clipPath id="pf872cec451">
   <rect height="332.64" width="390.6" x="63" y="51.84"/>
  </clipPath>
 </defs>
</svg>
