<?xml version="1.0" encoding="utf-8" standalone="no"?>
<!DOCTYPE svg PUBLIC "-//W3C//DTD SVG 1.1//EN"
  "http://www.w3.org/Graphics/SVG/1.1/DTD/svg11.dtd">
<!-- Created with matplotlib (https://matplotlib.org/) -->
<svg height="379.830625pt" version="1.1" viewBox="0 0 964.35625 379.830625" width="964.35625pt" xmlns="http://www.w3.org/2000/svg" xmlns:xlink="http://www.w3.org/1999/xlink">
 <defs>
  <style type="text/css">
*{stroke-linecap:butt;stroke-linejoin:round;}
  </style>
 </defs>
 <g id="figure_1">
  <g id="patch_1">
   <path d="M 0 379.830625 
L 964.35625 379.830625 
L 964.35625 0 
L 0 0 
z
" style="fill:#ffffff;"/>
  </g>
  <g id="axes_1">
   <g id="patch_2">
    <path d="M 41.245312 343.34 
L 431.845313 343.34 
L 431.845313 10.7 
L 41.245312 10.7 
z
" style="fill:#ffffff;"/>
   </g>
   <g id="matplotlib.axis_1">
    <g id="xtick_1">
     <g id="text_1">
      <!-- 0.0 -->
      <defs>
       <path d="M 4.15625 35.296875 
Q 4.15625 48 6.765625 55.734375 
Q 9.375 63.484375 14.515625 67.671875 
Q 19.671875 71.875 27.484375 71.875 
Q 33.25 71.875 37.59375 69.546875 
Q 41.9375 67.234375 44.765625 62.859375 
Q 47.609375 58.5 49.21875 52.21875 
Q 50.828125 45.953125 50.828125 35.296875 
Q 50.828125 22.703125 48.234375 14.96875 
Q 45.65625 7.234375 40.5 3 
Q 35.359375 -1.21875 27.484375 -1.21875 
Q 17.140625 -1.21875 11.234375 6.203125 
Q 4.15625 15.140625 4.15625 35.296875 
z
M 13.1875 35.296875 
Q 13.1875 17.671875 17.3125 11.828125 
Q 21.4375 6 27.484375 6 
Q 33.546875 6 37.671875 11.859375 
Q 41.796875 17.71875 41.796875 35.296875 
Q 41.796875 52.984375 37.671875 58.78125 
Q 33.546875 64.59375 27.390625 64.59375 
Q 21.34375 64.59375 17.71875 59.46875 
Q 13.1875 52.9375 13.1875 35.296875 
z
" id="ArialMT-48"/>
       <path d="M 9.078125 0 
L 9.078125 10.015625 
L 19.09375 10.015625 
L 19.09375 0 
z
" id="ArialMT-46"/>
      </defs>
      <g style="fill:#262626;" transform="translate(52.049858 357.497813)scale(0.1 -0.1)">
       <use xlink:href="#ArialMT-48"/>
       <use x="55.615234" xlink:href="#ArialMT-46"/>
       <use x="83.398438" xlink:href="#ArialMT-48"/>
      </g>
     </g>
    </g>
    <g id="xtick_2">
     <g id="text_2">
      <!-- 0.2 -->
      <defs>
       <path d="M 50.34375 8.453125 
L 50.34375 0 
L 3.03125 0 
Q 2.9375 3.171875 4.046875 6.109375 
Q 5.859375 10.9375 9.828125 15.625 
Q 13.8125 20.3125 21.34375 26.46875 
Q 33.015625 36.03125 37.109375 41.625 
Q 41.21875 47.21875 41.21875 52.203125 
Q 41.21875 57.421875 37.46875 61 
Q 33.734375 64.59375 27.734375 64.59375 
Q 21.390625 64.59375 17.578125 60.78125 
Q 13.765625 56.984375 13.71875 50.25 
L 4.6875 51.171875 
Q 5.609375 61.28125 11.65625 66.578125 
Q 17.71875 71.875 27.9375 71.875 
Q 38.234375 71.875 44.234375 66.15625 
Q 50.25 60.453125 50.25 52 
Q 50.25 47.703125 48.484375 43.546875 
Q 46.734375 39.40625 42.65625 34.8125 
Q 38.578125 30.21875 29.109375 22.21875 
Q 21.1875 15.578125 18.9375 13.203125 
Q 16.703125 10.84375 15.234375 8.453125 
z
" id="ArialMT-50"/>
      </defs>
      <g style="fill:#262626;" transform="translate(123.06804 357.497813)scale(0.1 -0.1)">
       <use xlink:href="#ArialMT-48"/>
       <use x="55.615234" xlink:href="#ArialMT-46"/>
       <use x="83.398438" xlink:href="#ArialMT-50"/>
      </g>
     </g>
    </g>
    <g id="xtick_3">
     <g id="text_3">
      <!-- 0.4 -->
      <defs>
       <path d="M 32.328125 0 
L 32.328125 17.140625 
L 1.265625 17.140625 
L 1.265625 25.203125 
L 33.9375 71.578125 
L 41.109375 71.578125 
L 41.109375 25.203125 
L 50.78125 25.203125 
L 50.78125 17.140625 
L 41.109375 17.140625 
L 41.109375 0 
z
M 32.328125 25.203125 
L 32.328125 57.46875 
L 9.90625 25.203125 
z
" id="ArialMT-52"/>
      </defs>
      <g style="fill:#262626;" transform="translate(194.086222 357.497813)scale(0.1 -0.1)">
       <use xlink:href="#ArialMT-48"/>
       <use x="55.615234" xlink:href="#ArialMT-46"/>
       <use x="83.398438" xlink:href="#ArialMT-52"/>
      </g>
     </g>
    </g>
    <g id="xtick_4">
     <g id="text_4">
      <!-- 0.6 -->
      <defs>
       <path d="M 49.75 54.046875 
L 41.015625 53.375 
Q 39.84375 58.546875 37.703125 60.890625 
Q 34.125 64.65625 28.90625 64.65625 
Q 24.703125 64.65625 21.53125 62.3125 
Q 17.390625 59.28125 14.984375 53.46875 
Q 12.59375 47.65625 12.5 36.921875 
Q 15.671875 41.75 20.265625 44.09375 
Q 24.859375 46.4375 29.890625 46.4375 
Q 38.671875 46.4375 44.84375 39.96875 
Q 51.03125 33.5 51.03125 23.25 
Q 51.03125 16.5 48.125 10.71875 
Q 45.21875 4.9375 40.140625 1.859375 
Q 35.0625 -1.21875 28.609375 -1.21875 
Q 17.625 -1.21875 10.6875 6.859375 
Q 3.765625 14.9375 3.765625 33.5 
Q 3.765625 54.25 11.421875 63.671875 
Q 18.109375 71.875 29.4375 71.875 
Q 37.890625 71.875 43.28125 67.140625 
Q 48.6875 62.40625 49.75 54.046875 
z
M 13.875 23.1875 
Q 13.875 18.65625 15.796875 14.5 
Q 17.71875 10.359375 21.1875 8.171875 
Q 24.65625 6 28.46875 6 
Q 34.03125 6 38.03125 10.484375 
Q 42.046875 14.984375 42.046875 22.703125 
Q 42.046875 30.125 38.078125 34.390625 
Q 34.125 38.671875 28.125 38.671875 
Q 22.171875 38.671875 18.015625 34.390625 
Q 13.875 30.125 13.875 23.1875 
z
" id="ArialMT-54"/>
      </defs>
      <g style="fill:#262626;" transform="translate(265.104403 357.497813)scale(0.1 -0.1)">
       <use xlink:href="#ArialMT-48"/>
       <use x="55.615234" xlink:href="#ArialMT-46"/>
       <use x="83.398438" xlink:href="#ArialMT-54"/>
      </g>
     </g>
    </g>
    <g id="xtick_5">
     <g id="text_5">
      <!-- 0.8 -->
      <defs>
       <path d="M 17.671875 38.8125 
Q 12.203125 40.828125 9.5625 44.53125 
Q 6.9375 48.25 6.9375 53.421875 
Q 6.9375 61.234375 12.546875 66.546875 
Q 18.171875 71.875 27.484375 71.875 
Q 36.859375 71.875 42.578125 66.421875 
Q 48.296875 60.984375 48.296875 53.171875 
Q 48.296875 48.1875 45.671875 44.5 
Q 43.0625 40.828125 37.75 38.8125 
Q 44.34375 36.671875 47.78125 31.875 
Q 51.21875 27.09375 51.21875 20.453125 
Q 51.21875 11.28125 44.71875 5.03125 
Q 38.234375 -1.21875 27.640625 -1.21875 
Q 17.046875 -1.21875 10.546875 5.046875 
Q 4.046875 11.328125 4.046875 20.703125 
Q 4.046875 27.6875 7.59375 32.390625 
Q 11.140625 37.109375 17.671875 38.8125 
z
M 15.921875 53.71875 
Q 15.921875 48.640625 19.1875 45.40625 
Q 22.46875 42.1875 27.6875 42.1875 
Q 32.765625 42.1875 36.015625 45.375 
Q 39.265625 48.578125 39.265625 53.21875 
Q 39.265625 58.0625 35.90625 61.359375 
Q 32.5625 64.65625 27.59375 64.65625 
Q 22.5625 64.65625 19.234375 61.421875 
Q 15.921875 58.203125 15.921875 53.71875 
z
M 13.09375 20.65625 
Q 13.09375 16.890625 14.875 13.375 
Q 16.65625 9.859375 20.171875 7.921875 
Q 23.6875 6 27.734375 6 
Q 34.03125 6 38.125 10.046875 
Q 42.234375 14.109375 42.234375 20.359375 
Q 42.234375 26.703125 38.015625 30.859375 
Q 33.796875 35.015625 27.4375 35.015625 
Q 21.234375 35.015625 17.15625 30.90625 
Q 13.09375 26.8125 13.09375 20.65625 
z
" id="ArialMT-56"/>
      </defs>
      <g style="fill:#262626;" transform="translate(336.122585 357.497813)scale(0.1 -0.1)">
       <use xlink:href="#ArialMT-48"/>
       <use x="55.615234" xlink:href="#ArialMT-46"/>
       <use x="83.398438" xlink:href="#ArialMT-56"/>
      </g>
     </g>
    </g>
    <g id="xtick_6">
     <g id="text_6">
      <!-- 1.0 -->
      <defs>
       <path d="M 37.25 0 
L 28.46875 0 
L 28.46875 56 
Q 25.296875 52.984375 20.140625 49.953125 
Q 14.984375 46.921875 10.890625 45.40625 
L 10.890625 53.90625 
Q 18.265625 57.375 23.78125 62.296875 
Q 29.296875 67.234375 31.59375 71.875 
L 37.25 71.875 
z
" id="ArialMT-49"/>
      </defs>
      <g style="fill:#262626;" transform="translate(407.140767 357.497813)scale(0.1 -0.1)">
       <use xlink:href="#ArialMT-49"/>
       <use x="55.615234" xlink:href="#ArialMT-46"/>
       <use x="83.398438" xlink:href="#ArialMT-48"/>
      </g>
     </g>
    </g>
    <g id="text_7">
     <!-- Normalized score -->
     <defs>
      <path d="M 7.625 0 
L 7.625 71.578125 
L 17.328125 71.578125 
L 54.9375 15.375 
L 54.9375 71.578125 
L 64.015625 71.578125 
L 64.015625 0 
L 54.296875 0 
L 16.703125 56.25 
L 16.703125 0 
z
" id="ArialMT-78"/>
      <path d="M 3.328125 25.921875 
Q 3.328125 40.328125 11.328125 47.265625 
Q 18.015625 53.03125 27.640625 53.03125 
Q 38.328125 53.03125 45.109375 46.015625 
Q 51.90625 39.015625 51.90625 26.65625 
Q 51.90625 16.65625 48.90625 10.90625 
Q 45.90625 5.171875 40.15625 2 
Q 34.421875 -1.171875 27.640625 -1.171875 
Q 16.75 -1.171875 10.03125 5.8125 
Q 3.328125 12.796875 3.328125 25.921875 
z
M 12.359375 25.921875 
Q 12.359375 15.96875 16.703125 11.015625 
Q 21.046875 6.0625 27.640625 6.0625 
Q 34.1875 6.0625 38.53125 11.03125 
Q 42.875 16.015625 42.875 26.21875 
Q 42.875 35.84375 38.5 40.796875 
Q 34.125 45.75 27.640625 45.75 
Q 21.046875 45.75 16.703125 40.8125 
Q 12.359375 35.890625 12.359375 25.921875 
z
" id="ArialMT-111"/>
      <path d="M 6.5 0 
L 6.5 51.859375 
L 14.40625 51.859375 
L 14.40625 44 
Q 17.4375 49.515625 20 51.265625 
Q 22.5625 53.03125 25.640625 53.03125 
Q 30.078125 53.03125 34.671875 50.203125 
L 31.640625 42.046875 
Q 28.421875 43.953125 25.203125 43.953125 
Q 22.3125 43.953125 20.015625 42.21875 
Q 17.71875 40.484375 16.75 37.40625 
Q 15.28125 32.71875 15.28125 27.15625 
L 15.28125 0 
z
" id="ArialMT-114"/>
      <path d="M 6.59375 0 
L 6.59375 51.859375 
L 14.453125 51.859375 
L 14.453125 44.578125 
Q 16.890625 48.390625 20.9375 50.703125 
Q 25 53.03125 30.171875 53.03125 
Q 35.9375 53.03125 39.625 50.640625 
Q 43.3125 48.25 44.828125 43.953125 
Q 50.984375 53.03125 60.84375 53.03125 
Q 68.5625 53.03125 72.703125 48.75 
Q 76.859375 44.484375 76.859375 35.59375 
L 76.859375 0 
L 68.109375 0 
L 68.109375 32.671875 
Q 68.109375 37.9375 67.25 40.25 
Q 66.40625 42.578125 64.15625 43.984375 
Q 61.921875 45.40625 58.890625 45.40625 
Q 53.421875 45.40625 49.796875 41.765625 
Q 46.1875 38.140625 46.1875 30.125 
L 46.1875 0 
L 37.40625 0 
L 37.40625 33.6875 
Q 37.40625 39.546875 35.25 42.46875 
Q 33.109375 45.40625 28.21875 45.40625 
Q 24.515625 45.40625 21.359375 43.453125 
Q 18.21875 41.5 16.796875 37.734375 
Q 15.375 33.984375 15.375 26.90625 
L 15.375 0 
z
" id="ArialMT-109"/>
      <path d="M 40.4375 6.390625 
Q 35.546875 2.25 31.03125 0.53125 
Q 26.515625 -1.171875 21.34375 -1.171875 
Q 12.796875 -1.171875 8.203125 3 
Q 3.609375 7.171875 3.609375 13.671875 
Q 3.609375 17.484375 5.34375 20.625 
Q 7.078125 23.78125 9.890625 25.6875 
Q 12.703125 27.59375 16.21875 28.5625 
Q 18.796875 29.25 24.03125 29.890625 
Q 34.671875 31.15625 39.703125 32.90625 
Q 39.75 34.71875 39.75 35.203125 
Q 39.75 40.578125 37.25 42.78125 
Q 33.890625 45.75 27.25 45.75 
Q 21.046875 45.75 18.09375 43.578125 
Q 15.140625 41.40625 13.71875 35.890625 
L 5.125 37.0625 
Q 6.296875 42.578125 8.984375 45.96875 
Q 11.671875 49.359375 16.75 51.1875 
Q 21.828125 53.03125 28.515625 53.03125 
Q 35.15625 53.03125 39.296875 51.46875 
Q 43.453125 49.90625 45.40625 47.53125 
Q 47.359375 45.171875 48.140625 41.546875 
Q 48.578125 39.3125 48.578125 33.453125 
L 48.578125 21.734375 
Q 48.578125 9.46875 49.140625 6.21875 
Q 49.703125 2.984375 51.375 0 
L 42.1875 0 
Q 40.828125 2.734375 40.4375 6.390625 
z
M 39.703125 26.03125 
Q 34.90625 24.078125 25.34375 22.703125 
Q 19.921875 21.921875 17.671875 20.9375 
Q 15.4375 19.96875 14.203125 18.09375 
Q 12.984375 16.21875 12.984375 13.921875 
Q 12.984375 10.40625 15.640625 8.0625 
Q 18.3125 5.71875 23.4375 5.71875 
Q 28.515625 5.71875 32.46875 7.9375 
Q 36.421875 10.15625 38.28125 14.015625 
Q 39.703125 17 39.703125 22.796875 
z
" id="ArialMT-97"/>
      <path d="M 6.390625 0 
L 6.390625 71.578125 
L 15.1875 71.578125 
L 15.1875 0 
z
" id="ArialMT-108"/>
      <path d="M 6.640625 61.46875 
L 6.640625 71.578125 
L 15.4375 71.578125 
L 15.4375 61.46875 
z
M 6.640625 0 
L 6.640625 51.859375 
L 15.4375 51.859375 
L 15.4375 0 
z
" id="ArialMT-105"/>
      <path d="M 1.953125 0 
L 1.953125 7.125 
L 34.96875 45.015625 
Q 29.34375 44.734375 25.046875 44.734375 
L 3.90625 44.734375 
L 3.90625 51.859375 
L 46.296875 51.859375 
L 46.296875 46.046875 
L 18.21875 13.140625 
L 12.796875 7.125 
Q 18.703125 7.5625 23.875 7.5625 
L 47.859375 7.5625 
L 47.859375 0 
z
" id="ArialMT-122"/>
      <path d="M 42.09375 16.703125 
L 51.171875 15.578125 
Q 49.03125 7.625 43.21875 3.21875 
Q 37.40625 -1.171875 28.375 -1.171875 
Q 17 -1.171875 10.328125 5.828125 
Q 3.65625 12.84375 3.65625 25.484375 
Q 3.65625 38.578125 10.390625 45.796875 
Q 17.140625 53.03125 27.875 53.03125 
Q 38.28125 53.03125 44.875 45.953125 
Q 51.46875 38.875 51.46875 26.03125 
Q 51.46875 25.25 51.421875 23.6875 
L 12.75 23.6875 
Q 13.234375 15.140625 17.578125 10.59375 
Q 21.921875 6.0625 28.421875 6.0625 
Q 33.25 6.0625 36.671875 8.59375 
Q 40.09375 11.140625 42.09375 16.703125 
z
M 13.234375 30.90625 
L 42.1875 30.90625 
Q 41.609375 37.453125 38.875 40.71875 
Q 34.671875 45.796875 27.984375 45.796875 
Q 21.921875 45.796875 17.796875 41.75 
Q 13.671875 37.703125 13.234375 30.90625 
z
" id="ArialMT-101"/>
      <path d="M 40.234375 0 
L 40.234375 6.546875 
Q 35.296875 -1.171875 25.734375 -1.171875 
Q 19.53125 -1.171875 14.328125 2.25 
Q 9.125 5.671875 6.265625 11.796875 
Q 3.421875 17.921875 3.421875 25.875 
Q 3.421875 33.640625 6 39.96875 
Q 8.59375 46.296875 13.765625 49.65625 
Q 18.953125 53.03125 25.34375 53.03125 
Q 30.03125 53.03125 33.6875 51.046875 
Q 37.359375 49.078125 39.65625 45.90625 
L 39.65625 71.578125 
L 48.390625 71.578125 
L 48.390625 0 
z
M 12.453125 25.875 
Q 12.453125 15.921875 16.640625 10.984375 
Q 20.84375 6.0625 26.5625 6.0625 
Q 32.328125 6.0625 36.34375 10.765625 
Q 40.375 15.484375 40.375 25.140625 
Q 40.375 35.796875 36.265625 40.765625 
Q 32.171875 45.75 26.171875 45.75 
Q 20.3125 45.75 16.375 40.96875 
Q 12.453125 36.1875 12.453125 25.875 
z
" id="ArialMT-100"/>
      <path id="ArialMT-32"/>
      <path d="M 3.078125 15.484375 
L 11.765625 16.84375 
Q 12.5 11.625 15.84375 8.84375 
Q 19.1875 6.0625 25.203125 6.0625 
Q 31.25 6.0625 34.171875 8.515625 
Q 37.109375 10.984375 37.109375 14.3125 
Q 37.109375 17.28125 34.515625 19 
Q 32.71875 20.171875 25.53125 21.96875 
Q 15.875 24.421875 12.140625 26.203125 
Q 8.40625 27.984375 6.46875 31.125 
Q 4.546875 34.28125 4.546875 38.09375 
Q 4.546875 41.546875 6.125 44.5 
Q 7.71875 47.46875 10.453125 49.421875 
Q 12.5 50.921875 16.03125 51.96875 
Q 19.578125 53.03125 23.640625 53.03125 
Q 29.734375 53.03125 34.34375 51.265625 
Q 38.96875 49.515625 41.15625 46.5 
Q 43.359375 43.5 44.1875 38.484375 
L 35.59375 37.3125 
Q 35.015625 41.3125 32.203125 43.546875 
Q 29.390625 45.796875 24.265625 45.796875 
Q 18.21875 45.796875 15.625 43.796875 
Q 13.03125 41.796875 13.03125 39.109375 
Q 13.03125 37.40625 14.109375 36.03125 
Q 15.1875 34.625 17.484375 33.6875 
Q 18.796875 33.203125 25.25 31.453125 
Q 34.578125 28.953125 38.25 27.359375 
Q 41.9375 25.78125 44.03125 22.75 
Q 46.140625 19.734375 46.140625 15.234375 
Q 46.140625 10.84375 43.578125 6.953125 
Q 41.015625 3.078125 36.171875 0.953125 
Q 31.34375 -1.171875 25.25 -1.171875 
Q 15.140625 -1.171875 9.84375 3.03125 
Q 4.546875 7.234375 3.078125 15.484375 
z
" id="ArialMT-115"/>
      <path d="M 40.4375 19 
L 49.078125 17.875 
Q 47.65625 8.9375 41.8125 3.875 
Q 35.984375 -1.171875 27.484375 -1.171875 
Q 16.84375 -1.171875 10.375 5.78125 
Q 3.90625 12.75 3.90625 25.734375 
Q 3.90625 34.125 6.6875 40.421875 
Q 9.46875 46.734375 15.15625 49.875 
Q 20.84375 53.03125 27.546875 53.03125 
Q 35.984375 53.03125 41.359375 48.75 
Q 46.734375 44.484375 48.25 36.625 
L 39.703125 35.296875 
Q 38.484375 40.53125 35.375 43.15625 
Q 32.28125 45.796875 27.875 45.796875 
Q 21.234375 45.796875 17.078125 41.03125 
Q 12.9375 36.28125 12.9375 25.984375 
Q 12.9375 15.53125 16.9375 10.796875 
Q 20.953125 6.0625 27.390625 6.0625 
Q 32.5625 6.0625 36.03125 9.234375 
Q 39.5 12.40625 40.4375 19 
z
" id="ArialMT-99"/>
     </defs>
     <g style="fill:#262626;" transform="translate(197.646094 370.643125)scale(0.1 -0.1)">
      <use xlink:href="#ArialMT-78"/>
      <use x="72.216797" xlink:href="#ArialMT-111"/>
      <use x="127.832031" xlink:href="#ArialMT-114"/>
      <use x="161.132812" xlink:href="#ArialMT-109"/>
      <use x="244.433594" xlink:href="#ArialMT-97"/>
      <use x="300.048828" xlink:href="#ArialMT-108"/>
      <use x="322.265625" xlink:href="#ArialMT-105"/>
      <use x="344.482422" xlink:href="#ArialMT-122"/>
      <use x="394.482422" xlink:href="#ArialMT-101"/>
      <use x="450.097656" xlink:href="#ArialMT-100"/>
      <use x="505.712891" xlink:href="#ArialMT-32"/>
      <use x="533.496094" xlink:href="#ArialMT-115"/>
      <use x="583.496094" xlink:href="#ArialMT-99"/>
      <use x="633.496094" xlink:href="#ArialMT-111"/>
      <use x="689.111328" xlink:href="#ArialMT-114"/>
      <use x="722.412109" xlink:href="#ArialMT-101"/>
     </g>
    </g>
   </g>
   <g id="matplotlib.axis_2">
    <g id="ytick_1">
     <g id="text_8">
      <!-- 0.0 -->
      <g style="fill:#262626;" transform="translate(20.345312 331.798906)scale(0.1 -0.1)">
       <use xlink:href="#ArialMT-48"/>
       <use x="55.615234" xlink:href="#ArialMT-46"/>
       <use x="83.398438" xlink:href="#ArialMT-48"/>
      </g>
     </g>
    </g>
    <g id="ytick_2">
     <g id="text_9">
      <!-- 0.2 -->
      <g style="fill:#262626;" transform="translate(20.345312 258.317703)scale(0.1 -0.1)">
       <use xlink:href="#ArialMT-48"/>
       <use x="55.615234" xlink:href="#ArialMT-46"/>
       <use x="83.398438" xlink:href="#ArialMT-50"/>
      </g>
     </g>
    </g>
    <g id="ytick_3">
     <g id="text_10">
      <!-- 0.4 -->
      <g style="fill:#262626;" transform="translate(20.345312 184.8365)scale(0.1 -0.1)">
       <use xlink:href="#ArialMT-48"/>
       <use x="55.615234" xlink:href="#ArialMT-46"/>
       <use x="83.398438" xlink:href="#ArialMT-52"/>
      </g>
     </g>
    </g>
    <g id="ytick_4">
     <g id="text_11">
      <!-- 0.6 -->
      <g style="fill:#262626;" transform="translate(20.345312 111.355297)scale(0.1 -0.1)">
       <use xlink:href="#ArialMT-48"/>
       <use x="55.615234" xlink:href="#ArialMT-46"/>
       <use x="83.398438" xlink:href="#ArialMT-54"/>
      </g>
     </g>
    </g>
    <g id="ytick_5">
     <g id="text_12">
      <!-- 0.8 -->
      <g style="fill:#262626;" transform="translate(20.345312 37.874093)scale(0.1 -0.1)">
       <use xlink:href="#ArialMT-48"/>
       <use x="55.615234" xlink:href="#ArialMT-46"/>
       <use x="83.398438" xlink:href="#ArialMT-56"/>
      </g>
     </g>
    </g>
    <g id="text_13">
     <!-- J-score -->
     <defs>
      <path d="M 2.875 20.3125 
L 11.421875 21.484375 
Q 11.765625 13.28125 14.5 10.25 
Q 17.234375 7.234375 22.078125 7.234375 
Q 25.640625 7.234375 28.21875 8.859375 
Q 30.8125 10.5 31.78125 13.296875 
Q 32.765625 16.109375 32.765625 22.265625 
L 32.765625 71.578125 
L 42.234375 71.578125 
L 42.234375 22.796875 
Q 42.234375 13.8125 40.0625 8.875 
Q 37.890625 3.953125 33.171875 1.359375 
Q 28.46875 -1.21875 22.125 -1.21875 
Q 12.703125 -1.21875 7.6875 4.203125 
Q 2.6875 9.625 2.875 20.3125 
z
" id="ArialMT-74"/>
      <path d="M 3.171875 21.484375 
L 3.171875 30.328125 
L 30.171875 30.328125 
L 30.171875 21.484375 
z
" id="ArialMT-45"/>
     </defs>
     <g style="fill:#262626;" transform="translate(14.357812 193.410625)rotate(-90)scale(0.1 -0.1)">
      <use xlink:href="#ArialMT-74"/>
      <use x="50" xlink:href="#ArialMT-45"/>
      <use x="83.300781" xlink:href="#ArialMT-115"/>
      <use x="133.300781" xlink:href="#ArialMT-99"/>
      <use x="183.300781" xlink:href="#ArialMT-111"/>
      <use x="238.916016" xlink:href="#ArialMT-114"/>
      <use x="272.216797" xlink:href="#ArialMT-101"/>
     </g>
    </g>
   </g>
   <g id="line2d_1">
    <path clip-path="url(#p24d7dde130)" d="M 414.090767 328.22 
L 409.411129 322.914498 
L 409.364323 300.366114 
L 409.317552 296.386988 
L 409.270746 289.75511 
L 409.223939 288.428735 
L 409.130362 279.144106 
L 409.03675 277.817731 
L 408.989979 275.16498 
L 408.896366 273.838604 
L 408.709176 263.2276 
L 408.66237 260.574849 
L 408.521987 259.248474 
L 408.24122 256.595722 
L 408.05403 253.942971 
L 407.773263 248.637469 
L 407.44569 236.70009 
L 407.164887 234.047339 
L 406.977733 231.394588 
L 406.743737 227.415461 
L 406.228974 219.457208 
L 405.901401 216.804457 
L 405.573828 215.478082 
L 405.199448 216.601816 
L 403.608388 207.317188 
L 402.906436 204.664437 
L 402.204483 205.788172 
L 401.26857 201.809045 
L 400.192237 199.156294 
L 399.162711 195.177168 
L 397.852418 185.892539 
L 396.261359 183.239788 
L 394.71707 175.281535 
L 389.850242 167.323282 
L 387.229656 164.46789 
L 383.813505 148.551384 
L 379.555053 147.022368 
L 369.868205 139.064115 
L 362.755135 136.208723 
L 355.829291 125.597719 
L 346.04883 116.11045 
L 333.788166 106.825821 
L 305.148806 77.64556 
L 284.043629 72.137417 
L 262.938453 73.261152 
L 232.708015 66.629275 
L 194.896534 76.834997 
L 58.999858 328.22 
" style="fill:none;stroke:#1f77b4;stroke-linecap:round;stroke-width:1.5;"/>
   </g>
   <g id="line2d_2">
    <defs>
     <path d="M 0 3 
C 0.795609 3 1.55874 2.683901 2.12132 2.12132 
C 2.683901 1.55874 3 0.795609 3 0 
C 3 -0.795609 2.683901 -1.55874 2.12132 -2.12132 
C 1.55874 -2.683901 0.795609 -3 0 -3 
C -0.795609 -3 -1.55874 -2.683901 -2.12132 -2.12132 
C -2.683901 -1.55874 -3 -0.795609 -3 0 
C -3 0.795609 -2.683901 1.55874 -2.12132 2.12132 
C -1.55874 2.683901 -0.795609 3 0 3 
z
" id="m996021fdc6" style="stroke:#000000;"/>
    </defs>
    <g clip-path="url(#p24d7dde130)">
     <use style="stroke:#000000;" x="232.708015" xlink:href="#m996021fdc6" y="66.629275"/>
    </g>
   </g>
   <g id="line2d_3">
    <path clip-path="url(#p24d7dde130)" d="M 414.090767 328.22 
L 409.411129 321.588122 
L 409.364323 299.039739 
L 409.317552 297.713363 
L 409.270746 281.796857 
L 409.177133 279.144106 
L 409.03675 269.859478 
L 408.755983 268.533102 
L 408.709176 265.880351 
L 408.615599 263.2276 
L 408.521987 259.248474 
L 408.42841 256.595722 
L 408.334797 255.269347 
L 408.24122 242.005592 
L 407.913647 239.352841 
L 407.586073 234.047339 
L 407.398884 226.089086 
L 406.743737 218.130833 
L 405.620634 210.17258 
L 404.637914 202.214327 
L 403.935962 199.561576 
L 402.344866 191.603323 
L 401.31534 182.318694 
L 400.005047 179.665943 
L 398.741561 174.360441 
L 394.810647 166.402188 
L 392.611247 162.220421 
L 389.663052 148.956666 
L 386.012941 142.324788 
L 377.262005 134.366535 
L 370.710541 129.061033 
L 364.252618 119.776404 
L 354.940149 105.186274 
L 343.007058 97.228021 
L 331.307964 83.964266 
L 292.607375 44.173 
L 237.902398 30.909245 
L 196.674801 41.114968 
L 58.999858 328.22 
" style="fill:none;stroke:#ff7f0e;stroke-linecap:round;stroke-width:1.5;"/>
   </g>
   <g id="line2d_4">
    <g clip-path="url(#p24d7dde130)">
     <use style="stroke:#000000;" x="237.902398" xlink:href="#m996021fdc6" y="30.909245"/>
    </g>
   </g>
   <g id="line2d_5">
    <path clip-path="url(#p24d7dde130)" d="M 414.090767 328.22 
L 409.411129 322.914498 
L 409.364323 300.366114 
L 409.317552 296.386988 
L 409.270746 289.75511 
L 409.223939 288.428735 
L 409.177133 279.144106 
L 409.083556 277.817731 
L 409.03675 275.16498 
L 408.802789 264.553976 
L 408.755983 261.901225 
L 408.475216 260.574849 
L 408.334797 257.922098 
L 408.147643 255.269347 
L 407.913647 249.963845 
L 407.63288 238.026465 
L 407.305307 235.373714 
L 407.118117 232.720963 
L 406.884121 228.741837 
L 406.416164 220.783584 
L 406.088591 218.130833 
L 405.807824 216.804457 
L 405.480251 217.928192 
L 403.935962 208.643563 
L 403.234009 205.990812 
L 402.578862 207.114547 
L 399.677474 195.177168 
L 398.367181 185.892539 
L 396.776122 183.239788 
L 395.278639 176.607911 
L 390.505388 168.649657 
L 387.97838 165.794266 
L 384.562264 152.530511 
L 380.397389 145.898633 
L 370.850924 143.043241 
L 363.831468 135.084988 
L 356.952394 125.80036 
L 347.265546 114.986715 
L 335.004882 105.702086 
L 323.118598 91.111956 
L 306.365522 75.19545 
L 285.166733 67.034556 
L 263.921209 63.055429 
L 233.456757 56.423552 
L 195.177318 66.629275 
L 58.999858 328.22 
" style="fill:none;stroke:#2ca02c;stroke-linecap:round;stroke-width:1.5;"/>
   </g>
   <g id="line2d_6">
    <g clip-path="url(#p24d7dde130)">
     <use style="stroke:#000000;" x="233.456757" xlink:href="#m996021fdc6" y="56.423552"/>
    </g>
   </g>
   <g id="line2d_7">
    <path clip-path="url(#p24d7dde130)" d="M 414.090767 328.22 
L 410.573508 325.547956 
L 410.271726 320.203869 
L 410.1247 317.531825 
L 409.705437 300.163541 
L 409.155328 297.491497 
L 408.315406 293.483431 
L 407.394605 285.4673 
L 406.623622 277.451169 
L 406.253251 274.779125 
L 406.212087 273.443103 
L 406.060847 268.099016 
L 405.605706 265.426972 
L 402.006145 256.074819 
L 398.318674 253.402775 
L 395.18794 250.730731 
L 394.409577 248.058687 
L 391.500442 242.7146 
L 390.692883 238.706534 
L 390.590536 237.370512 
L 390.198376 229.354381 
L 384.707569 224.010294 
L 384.200744 221.33825 
L 384.037188 220.002228 
L 383.334069 215.994162 
L 380.554384 207.978031 
L 377.741988 202.633944 
L 369.074398 199.9619 
L 368.106798 195.953834 
L 364.167833 194.617812 
L 361.778914 189.273725 
L 358.458969 186.601681 
L 346.004352 178.58555 
L 340.163944 174.577484 
L 336.020608 171.90544 
L 335.75296 169.233397 
L 329.620244 167.897375 
L 326.968238 163.889309 
L 322.460515 158.545222 
L 313.721894 153.201134 
L 297.477782 145.185003 
L 289.973363 139.840915 
L 282.347236 138.504893 
L 276.744945 134.496828 
L 265.000813 131.824784 
L 258.731657 129.15274 
L 257.814344 127.816718 
L 232.976169 119.800587 
L 228.844438 118.464565 
L 217.342649 114.4565 
L 213.164146 113.120478 
L 209.916306 118.772878 
L 199.991665 109.420725 
L 198.314988 105.412659 
L 189.275981 101.404594 
L 177.939145 94.724484 
L 177.602197 93.388462 
L 172.287612 89.380397 
L 166.737031 95.032797 
L 160.141465 87.016666 
L 152.453794 84.344622 
L 138.1702 72.320425 
L 125.746537 68.312359 
L 114.883834 58.960206 
L 114.604211 54.952141 
L 108.451117 60.604541 
L 107.277759 59.268519 
L 97.290151 52.58841 
L 90.322813 51.252388 
L 80.700996 47.244322 
L 79.446038 44.572278 
L 64.619383 39.228191 
L 61.992694 44.880591 
L 58.999858 328.22 
" style="fill:none;stroke:#d62728;stroke-linecap:round;stroke-width:1.5;"/>
   </g>
   <g id="line2d_8">
    <g clip-path="url(#p24d7dde130)">
     <use style="stroke:#000000;" x="64.619383" xlink:href="#m996021fdc6" y="39.228191"/>
    </g>
   </g>
   <g id="line2d_9">
    <path clip-path="url(#p24d7dde130)" d="M 414.090767 328.22 
L 409.411129 322.914498 
L 409.364323 299.039739 
L 409.317552 296.386988 
L 409.270746 291.081486 
L 409.223939 289.75511 
L 409.177133 280.470482 
L 409.130362 276.491355 
L 409.03675 275.16498 
L 408.989979 271.185853 
L 408.802789 269.859478 
L 408.709176 260.574849 
L 408.66237 257.922098 
L 408.381603 256.595722 
L 408.24122 253.942971 
L 408.05403 251.29022 
L 407.960453 248.637469 
L 407.82007 244.658343 
L 407.67965 243.331967 
L 407.492461 230.068212 
L 407.352077 226.089086 
L 406.977733 223.436335 
L 406.743737 219.457208 
L 406.275781 211.498955 
L 405.948207 208.846204 
L 405.667405 207.519829 
L 405.339832 204.867078 
L 403.889155 200.887951 
L 403.280815 195.582449 
L 402.625669 191.603323 
L 401.783333 188.950571 
L 400.753807 184.971445 
L 399.817858 182.318694 
L 398.601177 171.70769 
L 397.056888 169.054939 
L 395.559406 162.423061 
L 393.500354 158.443935 
L 390.973345 155.791184 
L 388.493143 152.935792 
L 385.217411 138.345661 
L 381.192919 131.713784 
L 371.88045 123.755531 
L 365.094954 118.450029 
L 358.403071 109.1654 
L 348.903412 94.57527 
L 336.783167 86.617017 
L 325.130843 74.679637 
L 308.564921 60.089506 
L 287.272591 41.520249 
L 234.954239 30.909245 
L 195.692081 41.114968 
L 58.999858 328.22 
" style="fill:none;stroke:#9467bd;stroke-linecap:round;stroke-width:1.5;"/>
   </g>
   <g id="line2d_10">
    <g clip-path="url(#p24d7dde130)">
     <use style="stroke:#000000;" x="234.954239" xlink:href="#m996021fdc6" y="30.909245"/>
    </g>
   </g>
   <g id="line2d_11">
    <path clip-path="url(#p24d7dde130)" d="M 414.090767 328.22 
L 409.411129 325.557638 
L 409.364323 294.94047 
L 409.270746 286.953382 
L 409.223939 281.628657 
L 409.130362 270.979208 
L 409.083556 262.99212 
L 408.896366 258.998577 
L 408.568793 248.349127 
L 408.521987 244.355583 
L 407.86684 239.030858 
L 407.67965 236.368496 
L 407.492461 231.043771 
L 407.305307 227.050227 
L 407.118117 219.06314 
L 406.930927 217.731959 
L 406.322551 215.069596 
L 406.088591 209.744872 
L 405.807824 201.757784 
L 404.731492 196.433059 
L 403.187203 192.439516 
L 402.48525 187.114791 
L 401.783333 183.121247 
L 399.817858 177.796522 
L 398.881944 175.13416 
L 397.571651 164.48471 
L 395.933785 161.822348 
L 394.389496 153.83526 
L 389.756665 148.510536 
L 387.229656 145.62631 
L 383.907118 133.645679 
L 379.882626 126.989773 
L 370.570122 117.671504 
L 363.831468 112.346779 
L 357.233161 103.028511 
L 347.733502 88.385517 
L 335.706835 81.729611 
L 324.19493 72.411343 
L 307.863004 56.437168 
L 286.804634 36.46945 
L 234.673455 28.482362 
L 195.598487 38.688085 
L 58.999858 328.22 
" style="fill:none;stroke:#8c564b;stroke-linecap:round;stroke-width:1.5;"/>
   </g>
   <g id="line2d_12">
    <g clip-path="url(#p24d7dde130)">
     <use style="stroke:#000000;" x="234.673455" xlink:href="#m996021fdc6" y="28.482362"/>
    </g>
   </g>
   <g id="line2d_13">
    <path clip-path="url(#p24d7dde130)" d="M 414.090767 328.22 
L 409.411129 322.914498 
L 409.364323 300.366114 
L 409.317552 296.386988 
L 409.270746 293.734237 
L 409.177133 280.470482 
L 409.03675 276.491355 
L 408.84956 267.206727 
L 408.802789 264.553976 
L 408.521987 263.2276 
L 408.381603 260.574849 
L 408.24122 257.922098 
L 408.007224 252.616596 
L 407.726457 239.352841 
L 407.44569 236.70009 
L 407.2585 234.047339 
L 407.024504 230.068212 
L 406.556547 222.109959 
L 406.275781 219.457208 
L 405.994978 218.130833 
L 405.667405 219.254568 
L 404.263535 209.969939 
L 403.608388 207.317188 
L 403.000013 208.440923 
L 400.192237 196.503543 
L 398.928751 187.218915 
L 397.384462 184.566164 
L 395.886979 177.934286 
L 391.254148 169.976033 
L 388.77391 167.120641 
L 385.451371 153.856886 
L 381.42688 147.225009 
L 371.974027 143.043241 
L 365.094954 135.084988 
L 358.262687 125.80036 
L 348.669415 114.986715 
L 336.455594 105.702086 
L 324.61608 91.111956 
L 307.816198 75.19545 
L 286.477061 67.034556 
L 265.044312 63.055429 
L 234.252287 56.423552 
L 195.458085 66.629275 
L 58.999858 328.22 
" style="fill:none;stroke:#e377c2;stroke-linecap:round;stroke-width:1.5;"/>
   </g>
   <g id="line2d_14">
    <g clip-path="url(#p24d7dde130)">
     <use style="stroke:#000000;" x="234.252287" xlink:href="#m996021fdc6" y="56.423552"/>
    </g>
   </g>
   <g id="line2d_15">
    <path clip-path="url(#p24d7dde130)" d="M 414.090767 328.22 
L 409.406808 321.588122 
L 409.359959 299.039739 
L 409.313145 297.713363 
L 409.266295 281.796857 
L 409.172596 279.144106 
L 409.032083 269.859478 
L 408.751057 268.533102 
L 408.704207 265.880351 
L 408.610544 263.2276 
L 408.516845 259.248474 
L 408.470031 256.595722 
L 408.329482 255.269347 
L 408.235819 242.005592 
L 407.907943 239.352841 
L 407.580067 234.047339 
L 407.392705 226.089086 
L 406.736953 218.130833 
L 405.659627 210.17258 
L 403.926585 198.2352 
L 403.083471 195.582449 
L 402.334021 191.603323 
L 401.303544 180.992318 
L 399.992041 179.665943 
L 398.727388 174.360441 
L 394.792844 166.402188 
L 392.591414 162.220421 
L 389.640497 148.956666 
L 385.987015 142.324788 
L 377.181185 134.366535 
L 370.670485 129.061033 
L 364.15975 119.776404 
L 354.838682 105.186274 
L 342.894609 97.228021 
L 331.184712 82.63789 
L 314.322432 64.068633 
L 292.401503 44.173 
L 270.105886 42.643984 
L 237.599201 36.012106 
L 196.755075 46.217829 
L 58.999858 328.22 
" style="fill:none;stroke:#7f7f7f;stroke-linecap:round;stroke-width:1.5;"/>
   </g>
   <g id="line2d_16">
    <g clip-path="url(#p24d7dde130)">
     <use style="stroke:#000000;" x="237.599201" xlink:href="#m996021fdc6" y="36.012106"/>
    </g>
   </g>
   <g id="line2d_17">
    <path clip-path="url(#p24d7dde130)" d="M 414.090767 328.22 
L 409.410513 322.895275 
L 409.3637 316.239369 
L 409.316923 282.959839 
L 409.270111 281.628657 
L 409.082896 276.303933 
L 408.942494 266.985664 
L 408.895682 264.323302 
L 408.848869 258.998577 
L 408.802092 257.667395 
L 408.614878 253.673852 
L 408.14686 243.024402 
L 408.100047 236.368496 
L 407.912833 233.706134 
L 406.976796 227.050227 
L 406.789582 223.056684 
L 406.321528 212.407234 
L 406.087536 204.420147 
L 405.853509 200.426603 
L 405.291902 197.764241 
L 404.917473 193.770697 
L 404.215427 184.452428 
L 403.326168 183.121247 
L 402.202916 177.796522 
L 400.798862 173.802979 
L 399.956414 172.471798 
L 399.113967 167.147073 
L 396.820617 165.815891 
L 395.650553 163.153529 
L 394.059284 151.172898 
L 392.140362 149.841717 
L 390.361878 140.523448 
L 387.974939 139.192267 
L 385.073204 133.867542 
L 382.358648 130.983316 
L 378.708055 119.002685 
L 374.308604 109.684417 
L 370.189993 108.353236 
L 357.600097 97.703786 
L 350.76693 87.054336 
L 341.219207 72.411343 
L 329.144142 67.086618 
L 317.63072 57.768349 
L 301.483856 44.456537 
L 281.077944 29.813544 
L 260.765621 27.151181 
L 231.420442 25.82 
L 194.446424 36.025723 
L 58.999858 328.22 
" style="fill:none;stroke:#bcbd22;stroke-linecap:round;stroke-width:1.5;"/>
   </g>
   <g id="line2d_18">
    <g clip-path="url(#p24d7dde130)">
     <use style="stroke:#000000;" x="231.420442" xlink:href="#m996021fdc6" y="25.82"/>
    </g>
   </g>
   <g id="patch_3">
    <path d="M 41.245312 343.34 
L 41.245312 10.7 
" style="fill:none;stroke:#262626;stroke-linecap:square;stroke-linejoin:miter;stroke-width:0.8;"/>
   </g>
   <g id="patch_4">
    <path d="M 41.245312 343.34 
L 431.845313 343.34 
" style="fill:none;stroke:#262626;stroke-linecap:square;stroke-linejoin:miter;stroke-width:0.8;"/>
   </g>
   <g id="legend_1">
    <g id="patch_5">
     <path d="M 438.845313 162.653125 
L 955.15625 162.653125 
Q 957.15625 162.653125 957.15625 160.653125 
L 957.15625 17.7 
Q 957.15625 15.7 955.15625 15.7 
L 438.845313 15.7 
Q 436.845313 15.7 436.845313 17.7 
L 436.845313 160.653125 
Q 436.845313 162.653125 438.845313 162.653125 
z
" style="fill:#ffffff;opacity:0.8;stroke:#cccccc;stroke-linejoin:miter;"/>
    </g>
    <g id="text_14">
     <!-- method (J-index @ score) -->
     <defs>
      <path d="M 25.78125 7.859375 
L 27.046875 0.09375 
Q 23.34375 -0.6875 20.40625 -0.6875 
Q 15.625 -0.6875 12.984375 0.828125 
Q 10.359375 2.34375 9.28125 4.8125 
Q 8.203125 7.28125 8.203125 15.1875 
L 8.203125 45.015625 
L 1.765625 45.015625 
L 1.765625 51.859375 
L 8.203125 51.859375 
L 8.203125 64.703125 
L 16.9375 69.96875 
L 16.9375 51.859375 
L 25.78125 51.859375 
L 25.78125 45.015625 
L 16.9375 45.015625 
L 16.9375 14.703125 
Q 16.9375 10.9375 17.40625 9.859375 
Q 17.875 8.796875 18.921875 8.15625 
Q 19.96875 7.515625 21.921875 7.515625 
Q 23.390625 7.515625 25.78125 7.859375 
z
" id="ArialMT-116"/>
      <path d="M 6.59375 0 
L 6.59375 71.578125 
L 15.375 71.578125 
L 15.375 45.90625 
Q 21.53125 53.03125 30.90625 53.03125 
Q 36.671875 53.03125 40.921875 50.75 
Q 45.171875 48.484375 47 44.484375 
Q 48.828125 40.484375 48.828125 32.859375 
L 48.828125 0 
L 40.046875 0 
L 40.046875 32.859375 
Q 40.046875 39.453125 37.1875 42.453125 
Q 34.328125 45.453125 29.109375 45.453125 
Q 25.203125 45.453125 21.75 43.421875 
Q 18.3125 41.40625 16.84375 37.9375 
Q 15.375 34.46875 15.375 28.375 
L 15.375 0 
z
" id="ArialMT-104"/>
      <path d="M 23.390625 -21.046875 
Q 16.109375 -11.859375 11.078125 0.4375 
Q 6.0625 12.75 6.0625 25.921875 
Q 6.0625 37.546875 9.8125 48.1875 
Q 14.203125 60.546875 23.390625 72.796875 
L 29.6875 72.796875 
Q 23.78125 62.640625 21.875 58.296875 
Q 18.890625 51.5625 17.1875 44.234375 
Q 15.09375 35.109375 15.09375 25.875 
Q 15.09375 2.390625 29.6875 -21.046875 
z
" id="ArialMT-40"/>
      <path d="M 6.59375 0 
L 6.59375 51.859375 
L 14.5 51.859375 
L 14.5 44.484375 
Q 20.21875 53.03125 31 53.03125 
Q 35.6875 53.03125 39.625 51.34375 
Q 43.5625 49.65625 45.515625 46.921875 
Q 47.46875 44.1875 48.25 40.4375 
Q 48.734375 37.984375 48.734375 31.890625 
L 48.734375 0 
L 39.9375 0 
L 39.9375 31.546875 
Q 39.9375 36.921875 38.90625 39.578125 
Q 37.890625 42.234375 35.28125 43.8125 
Q 32.671875 45.40625 29.15625 45.40625 
Q 23.53125 45.40625 19.453125 41.84375 
Q 15.375 38.28125 15.375 28.328125 
L 15.375 0 
z
" id="ArialMT-110"/>
      <path d="M 0.734375 0 
L 19.671875 26.953125 
L 2.15625 51.859375 
L 13.140625 51.859375 
L 21.09375 39.703125 
Q 23.34375 36.234375 24.703125 33.890625 
Q 26.859375 37.109375 28.65625 39.59375 
L 37.40625 51.859375 
L 47.90625 51.859375 
L 29.984375 27.4375 
L 49.265625 0 
L 38.484375 0 
L 27.828125 16.109375 
L 25 20.453125 
L 11.375 0 
z
" id="ArialMT-120"/>
      <path d="M 56.6875 7.953125 
Q 53.515625 4.296875 49.578125 2.078125 
Q 45.65625 -0.140625 41.703125 -0.140625 
Q 37.359375 -0.140625 33.25 2.390625 
Q 29.15625 4.9375 26.59375 10.203125 
Q 24.03125 15.484375 24.03125 21.78125 
Q 24.03125 29.546875 28 37.328125 
Q 31.984375 45.125 37.890625 49.03125 
Q 43.796875 52.9375 49.359375 52.9375 
Q 53.609375 52.9375 57.46875 50.703125 
Q 61.328125 48.484375 64.109375 43.953125 
L 65.765625 51.515625 
L 74.515625 51.515625 
L 67.484375 18.75 
Q 66.015625 11.921875 66.015625 11.1875 
Q 66.015625 9.859375 67.015625 8.90625 
Q 68.015625 7.953125 69.4375 7.953125 
Q 72.015625 7.953125 76.21875 10.9375 
Q 81.78125 14.84375 85.03125 21.40625 
Q 88.28125 27.984375 88.28125 34.96875 
Q 88.28125 43.109375 84.109375 50.1875 
Q 79.9375 57.28125 71.65625 61.515625 
Q 63.375 65.765625 53.375 65.765625 
Q 41.9375 65.765625 32.484375 60.421875 
Q 23.046875 55.078125 17.84375 45.09375 
Q 12.640625 35.109375 12.640625 23.6875 
Q 12.640625 11.71875 17.84375 3.078125 
Q 23.046875 -5.5625 32.875 -9.6875 
Q 42.71875 -13.8125 54.6875 -13.8125 
Q 67.484375 -13.8125 76.125 -9.515625 
Q 84.765625 -5.21875 89.0625 0.921875 
L 97.90625 0.921875 
Q 95.40625 -4.203125 89.34375 -9.515625 
Q 83.296875 -14.84375 74.953125 -17.9375 
Q 66.609375 -21.046875 54.828125 -21.046875 
Q 44 -21.046875 34.84375 -18.265625 
Q 25.6875 -15.484375 19.234375 -9.890625 
Q 12.796875 -4.296875 9.515625 2.984375 
Q 5.421875 12.203125 5.421875 22.90625 
Q 5.421875 34.8125 10.296875 45.609375 
Q 16.265625 58.84375 27.21875 65.875 
Q 38.1875 72.90625 53.8125 72.90625 
Q 65.921875 72.90625 75.5625 67.9375 
Q 85.203125 62.984375 90.765625 53.171875 
Q 95.515625 44.734375 95.515625 34.8125 
Q 95.515625 20.65625 85.546875 9.671875 
Q 76.65625 -0.203125 66.109375 -0.203125 
Q 62.75 -0.203125 60.671875 0.828125 
Q 58.59375 1.859375 57.625 3.765625 
Q 56.984375 4.984375 56.6875 7.953125 
z
M 33.0625 21.1875 
Q 33.0625 14.5 36.234375 10.78125 
Q 39.40625 7.078125 43.5 7.078125 
Q 46.234375 7.078125 49.265625 8.71875 
Q 52.296875 10.359375 55.046875 13.578125 
Q 57.8125 16.796875 59.5625 21.75 
Q 61.328125 26.703125 61.328125 31.6875 
Q 61.328125 38.328125 58.03125 41.984375 
Q 54.734375 45.65625 50 45.65625 
Q 46.875 45.65625 44.109375 44.0625 
Q 41.359375 42.484375 38.765625 38.96875 
Q 36.1875 35.453125 34.625 30.421875 
Q 33.0625 25.390625 33.0625 21.1875 
z
" id="ArialMT-64"/>
      <path d="M 12.359375 -21.046875 
L 6.0625 -21.046875 
Q 20.65625 2.390625 20.65625 25.875 
Q 20.65625 35.0625 18.5625 44.09375 
Q 16.890625 51.421875 13.921875 58.15625 
Q 12.015625 62.546875 6.0625 72.796875 
L 12.359375 72.796875 
Q 21.53125 60.546875 25.921875 48.1875 
Q 29.6875 37.546875 29.6875 25.921875 
Q 29.6875 12.75 24.625 0.4375 
Q 19.578125 -11.859375 12.359375 -21.046875 
z
" id="ArialMT-41"/>
     </defs>
     <g style="fill:#262626;" transform="translate(639.409375 26.990625)scale(0.1 -0.1)">
      <use xlink:href="#ArialMT-109"/>
      <use x="83.300781" xlink:href="#ArialMT-101"/>
      <use x="138.916016" xlink:href="#ArialMT-116"/>
      <use x="166.699219" xlink:href="#ArialMT-104"/>
      <use x="222.314453" xlink:href="#ArialMT-111"/>
      <use x="277.929688" xlink:href="#ArialMT-100"/>
      <use x="333.544922" xlink:href="#ArialMT-32"/>
      <use x="361.328125" xlink:href="#ArialMT-40"/>
      <use x="394.628906" xlink:href="#ArialMT-74"/>
      <use x="444.628906" xlink:href="#ArialMT-45"/>
      <use x="477.929688" xlink:href="#ArialMT-105"/>
      <use x="500.146484" xlink:href="#ArialMT-110"/>
      <use x="555.761719" xlink:href="#ArialMT-100"/>
      <use x="611.376953" xlink:href="#ArialMT-101"/>
      <use x="666.992188" xlink:href="#ArialMT-120"/>
      <use x="716.992188" xlink:href="#ArialMT-32"/>
      <use x="744.775391" xlink:href="#ArialMT-64"/>
      <use x="846.289062" xlink:href="#ArialMT-32"/>
      <use x="874.072266" xlink:href="#ArialMT-115"/>
      <use x="924.072266" xlink:href="#ArialMT-99"/>
      <use x="974.072266" xlink:href="#ArialMT-111"/>
      <use x="1029.6875" xlink:href="#ArialMT-114"/>
      <use x="1062.988281" xlink:href="#ArialMT-101"/>
      <use x="1118.603516" xlink:href="#ArialMT-41"/>
     </g>
    </g>
    <g id="line2d_19">
     <path d="M 440.845313 37.885937 
L 460.845313 37.885937 
" style="fill:none;stroke:#1f77b4;stroke-linecap:round;stroke-width:1.5;"/>
    </g>
    <g id="line2d_20"/>
    <g id="text_15">
     <!-- new_CCR_sift_cutoff_0.03_polyphen_cutoff_0.3_run (Peak J: 0.71 @ score: 62.24) -->
     <defs>
      <path d="M 16.15625 0 
L 0.296875 51.859375 
L 9.375 51.859375 
L 17.625 21.921875 
L 20.703125 10.796875 
Q 20.90625 11.625 23.390625 21.484375 
L 31.640625 51.859375 
L 40.671875 51.859375 
L 48.4375 21.78125 
L 51.03125 11.859375 
L 54 21.875 
L 62.890625 51.859375 
L 71.4375 51.859375 
L 55.21875 0 
L 46.09375 0 
L 37.84375 31.0625 
L 35.84375 39.890625 
L 25.34375 0 
z
" id="ArialMT-119"/>
      <path d="M -1.515625 -19.875 
L -1.515625 -13.53125 
L 56.734375 -13.53125 
L 56.734375 -19.875 
z
" id="ArialMT-95"/>
      <path d="M 58.796875 25.09375 
L 68.265625 22.703125 
Q 65.28125 11.03125 57.546875 4.90625 
Q 49.8125 -1.21875 38.625 -1.21875 
Q 27.046875 -1.21875 19.796875 3.484375 
Q 12.546875 8.203125 8.765625 17.140625 
Q 4.984375 26.078125 4.984375 36.328125 
Q 4.984375 47.515625 9.25 55.828125 
Q 13.53125 64.15625 21.40625 68.46875 
Q 29.296875 72.796875 38.765625 72.796875 
Q 49.515625 72.796875 56.828125 67.328125 
Q 64.15625 61.859375 67.046875 51.953125 
L 57.71875 49.75 
Q 55.21875 57.5625 50.484375 61.125 
Q 45.75 64.703125 38.578125 64.703125 
Q 30.328125 64.703125 24.78125 60.734375 
Q 19.234375 56.78125 16.984375 50.109375 
Q 14.75 43.453125 14.75 36.375 
Q 14.75 27.25 17.40625 20.4375 
Q 20.0625 13.625 25.671875 10.25 
Q 31.296875 6.890625 37.84375 6.890625 
Q 45.796875 6.890625 51.3125 11.46875 
Q 56.84375 16.0625 58.796875 25.09375 
z
" id="ArialMT-67"/>
      <path d="M 7.859375 0 
L 7.859375 71.578125 
L 39.59375 71.578125 
Q 49.171875 71.578125 54.140625 69.640625 
Q 59.125 67.71875 62.109375 62.828125 
Q 65.09375 57.953125 65.09375 52.046875 
Q 65.09375 44.4375 60.15625 39.203125 
Q 55.21875 33.984375 44.921875 32.5625 
Q 48.6875 30.765625 50.640625 29 
Q 54.78125 25.203125 58.5 19.484375 
L 70.953125 0 
L 59.03125 0 
L 49.5625 14.890625 
Q 45.40625 21.34375 42.71875 24.75 
Q 40.046875 28.171875 37.921875 29.53125 
Q 35.796875 30.90625 33.59375 31.453125 
Q 31.984375 31.78125 28.328125 31.78125 
L 17.328125 31.78125 
L 17.328125 0 
z
M 17.328125 39.984375 
L 37.703125 39.984375 
Q 44.1875 39.984375 47.84375 41.328125 
Q 51.515625 42.671875 53.421875 45.625 
Q 55.328125 48.578125 55.328125 52.046875 
Q 55.328125 57.125 51.640625 60.390625 
Q 47.953125 63.671875 39.984375 63.671875 
L 17.328125 63.671875 
z
" id="ArialMT-82"/>
      <path d="M 8.6875 0 
L 8.6875 45.015625 
L 0.921875 45.015625 
L 0.921875 51.859375 
L 8.6875 51.859375 
L 8.6875 57.375 
Q 8.6875 62.59375 9.625 65.140625 
Q 10.890625 68.5625 14.078125 70.671875 
Q 17.28125 72.796875 23.046875 72.796875 
Q 26.765625 72.796875 31.25 71.921875 
L 29.9375 64.265625 
Q 27.203125 64.75 24.75 64.75 
Q 20.75 64.75 19.09375 63.03125 
Q 17.4375 61.328125 17.4375 56.640625 
L 17.4375 51.859375 
L 27.546875 51.859375 
L 27.546875 45.015625 
L 17.4375 45.015625 
L 17.4375 0 
z
" id="ArialMT-102"/>
      <path d="M 40.578125 0 
L 40.578125 7.625 
Q 34.515625 -1.171875 24.125 -1.171875 
Q 19.53125 -1.171875 15.546875 0.578125 
Q 11.578125 2.34375 9.640625 5 
Q 7.71875 7.671875 6.9375 11.53125 
Q 6.390625 14.109375 6.390625 19.734375 
L 6.390625 51.859375 
L 15.1875 51.859375 
L 15.1875 23.09375 
Q 15.1875 16.21875 15.71875 13.8125 
Q 16.546875 10.359375 19.234375 8.375 
Q 21.921875 6.390625 25.875 6.390625 
Q 29.828125 6.390625 33.296875 8.421875 
Q 36.765625 10.453125 38.203125 13.9375 
Q 39.65625 17.4375 39.65625 24.078125 
L 39.65625 51.859375 
L 48.4375 51.859375 
L 48.4375 0 
z
" id="ArialMT-117"/>
      <path d="M 4.203125 18.890625 
L 12.984375 20.0625 
Q 14.5 12.59375 18.140625 9.296875 
Q 21.78125 6 27 6 
Q 33.203125 6 37.46875 10.296875 
Q 41.75 14.59375 41.75 20.953125 
Q 41.75 27 37.796875 30.921875 
Q 33.84375 34.859375 27.734375 34.859375 
Q 25.25 34.859375 21.53125 33.890625 
L 22.515625 41.609375 
Q 23.390625 41.5 23.921875 41.5 
Q 29.546875 41.5 34.03125 44.421875 
Q 38.53125 47.359375 38.53125 53.46875 
Q 38.53125 58.296875 35.25 61.46875 
Q 31.984375 64.65625 26.8125 64.65625 
Q 21.6875 64.65625 18.265625 61.421875 
Q 14.84375 58.203125 13.875 51.765625 
L 5.078125 53.328125 
Q 6.6875 62.15625 12.390625 67.015625 
Q 18.109375 71.875 26.609375 71.875 
Q 32.46875 71.875 37.390625 69.359375 
Q 42.328125 66.84375 44.9375 62.5 
Q 47.5625 58.15625 47.5625 53.265625 
Q 47.5625 48.640625 45.0625 44.828125 
Q 42.578125 41.015625 37.703125 38.765625 
Q 44.046875 37.3125 47.5625 32.6875 
Q 51.078125 28.078125 51.078125 21.140625 
Q 51.078125 11.765625 44.234375 5.25 
Q 37.40625 -1.265625 26.953125 -1.265625 
Q 17.53125 -1.265625 11.296875 4.34375 
Q 5.078125 9.96875 4.203125 18.890625 
z
" id="ArialMT-51"/>
      <path d="M 6.59375 -19.875 
L 6.59375 51.859375 
L 14.59375 51.859375 
L 14.59375 45.125 
Q 17.4375 49.078125 21 51.046875 
Q 24.5625 53.03125 29.640625 53.03125 
Q 36.28125 53.03125 41.359375 49.609375 
Q 46.4375 46.1875 49.015625 39.953125 
Q 51.609375 33.734375 51.609375 26.3125 
Q 51.609375 18.359375 48.75 11.984375 
Q 45.90625 5.609375 40.453125 2.21875 
Q 35.015625 -1.171875 29 -1.171875 
Q 24.609375 -1.171875 21.109375 0.6875 
Q 17.625 2.546875 15.375 5.375 
L 15.375 -19.875 
z
M 14.546875 25.640625 
Q 14.546875 15.625 18.59375 10.84375 
Q 22.65625 6.0625 28.421875 6.0625 
Q 34.28125 6.0625 38.453125 11.015625 
Q 42.625 15.96875 42.625 26.375 
Q 42.625 36.28125 38.546875 41.203125 
Q 34.46875 46.140625 28.8125 46.140625 
Q 23.1875 46.140625 18.859375 40.890625 
Q 14.546875 35.640625 14.546875 25.640625 
z
" id="ArialMT-112"/>
      <path d="M 6.203125 -19.96875 
L 5.21875 -11.71875 
Q 8.109375 -12.5 10.25 -12.5 
Q 13.1875 -12.5 14.9375 -11.515625 
Q 16.703125 -10.546875 17.828125 -8.796875 
Q 18.65625 -7.46875 20.515625 -2.25 
Q 20.75 -1.515625 21.296875 -0.09375 
L 1.609375 51.859375 
L 11.078125 51.859375 
L 21.875 21.828125 
Q 23.96875 16.109375 25.640625 9.8125 
Q 27.15625 15.875 29.25 21.625 
L 40.328125 51.859375 
L 49.125 51.859375 
L 29.390625 -0.875 
Q 26.21875 -9.421875 24.46875 -12.640625 
Q 22.125 -17 19.09375 -19.015625 
Q 16.0625 -21.046875 11.859375 -21.046875 
Q 9.328125 -21.046875 6.203125 -19.96875 
z
" id="ArialMT-121"/>
      <path d="M 7.71875 0 
L 7.71875 71.578125 
L 34.71875 71.578125 
Q 41.84375 71.578125 45.609375 70.90625 
Q 50.875 70.015625 54.4375 67.546875 
Q 58.015625 65.09375 60.1875 60.640625 
Q 62.359375 56.203125 62.359375 50.875 
Q 62.359375 41.75 56.546875 35.421875 
Q 50.734375 29.109375 35.546875 29.109375 
L 17.1875 29.109375 
L 17.1875 0 
z
M 17.1875 37.546875 
L 35.6875 37.546875 
Q 44.875 37.546875 48.734375 40.96875 
Q 52.59375 44.390625 52.59375 50.59375 
Q 52.59375 55.078125 50.3125 58.265625 
Q 48.046875 61.46875 44.34375 62.5 
Q 41.9375 63.140625 35.5 63.140625 
L 17.1875 63.140625 
z
" id="ArialMT-80"/>
      <path d="M 6.640625 0 
L 6.640625 71.578125 
L 15.4375 71.578125 
L 15.4375 30.765625 
L 36.234375 51.859375 
L 47.609375 51.859375 
L 27.78125 32.625 
L 49.609375 0 
L 38.765625 0 
L 21.625 26.515625 
L 15.4375 20.5625 
L 15.4375 0 
z
" id="ArialMT-107"/>
      <path d="M 9.03125 41.84375 
L 9.03125 51.859375 
L 19.046875 51.859375 
L 19.046875 41.84375 
z
M 9.03125 0 
L 9.03125 10.015625 
L 19.046875 10.015625 
L 19.046875 0 
z
" id="ArialMT-58"/>
      <path d="M 4.734375 62.203125 
L 4.734375 70.65625 
L 51.078125 70.65625 
L 51.078125 63.8125 
Q 44.234375 56.546875 37.515625 44.484375 
Q 30.8125 32.421875 27.15625 19.671875 
Q 24.515625 10.6875 23.78125 0 
L 14.75 0 
Q 14.890625 8.453125 18.0625 20.40625 
Q 21.234375 32.375 27.171875 43.484375 
Q 33.109375 54.59375 39.796875 62.203125 
z
" id="ArialMT-55"/>
     </defs>
     <g style="fill:#262626;" transform="translate(468.845313 41.385937)scale(0.1 -0.1)">
      <use xlink:href="#ArialMT-110"/>
      <use x="55.615234" xlink:href="#ArialMT-101"/>
      <use x="111.230469" xlink:href="#ArialMT-119"/>
      <use x="183.447266" xlink:href="#ArialMT-95"/>
      <use x="239.0625" xlink:href="#ArialMT-67"/>
      <use x="311.279297" xlink:href="#ArialMT-67"/>
      <use x="383.496094" xlink:href="#ArialMT-82"/>
      <use x="455.712891" xlink:href="#ArialMT-95"/>
      <use x="511.328125" xlink:href="#ArialMT-115"/>
      <use x="561.328125" xlink:href="#ArialMT-105"/>
      <use x="583.544922" xlink:href="#ArialMT-102"/>
      <use x="611.328125" xlink:href="#ArialMT-116"/>
      <use x="639.111328" xlink:href="#ArialMT-95"/>
      <use x="694.726562" xlink:href="#ArialMT-99"/>
      <use x="744.726562" xlink:href="#ArialMT-117"/>
      <use x="800.341797" xlink:href="#ArialMT-116"/>
      <use x="828.125" xlink:href="#ArialMT-111"/>
      <use x="883.740234" xlink:href="#ArialMT-102"/>
      <use x="911.507812" xlink:href="#ArialMT-102"/>
      <use x="939.291016" xlink:href="#ArialMT-95"/>
      <use x="994.90625" xlink:href="#ArialMT-48"/>
      <use x="1050.521484" xlink:href="#ArialMT-46"/>
      <use x="1078.304688" xlink:href="#ArialMT-48"/>
      <use x="1133.919922" xlink:href="#ArialMT-51"/>
      <use x="1189.535156" xlink:href="#ArialMT-95"/>
      <use x="1245.150391" xlink:href="#ArialMT-112"/>
      <use x="1300.765625" xlink:href="#ArialMT-111"/>
      <use x="1356.380859" xlink:href="#ArialMT-108"/>
      <use x="1378.597656" xlink:href="#ArialMT-121"/>
      <use x="1428.597656" xlink:href="#ArialMT-112"/>
      <use x="1484.212891" xlink:href="#ArialMT-104"/>
      <use x="1539.828125" xlink:href="#ArialMT-101"/>
      <use x="1595.443359" xlink:href="#ArialMT-110"/>
      <use x="1651.058594" xlink:href="#ArialMT-95"/>
      <use x="1706.673828" xlink:href="#ArialMT-99"/>
      <use x="1756.673828" xlink:href="#ArialMT-117"/>
      <use x="1812.289062" xlink:href="#ArialMT-116"/>
      <use x="1840.072266" xlink:href="#ArialMT-111"/>
      <use x="1895.6875" xlink:href="#ArialMT-102"/>
      <use x="1923.455078" xlink:href="#ArialMT-102"/>
      <use x="1951.238281" xlink:href="#ArialMT-95"/>
      <use x="2006.853516" xlink:href="#ArialMT-48"/>
      <use x="2062.46875" xlink:href="#ArialMT-46"/>
      <use x="2090.251953" xlink:href="#ArialMT-51"/>
      <use x="2145.867188" xlink:href="#ArialMT-95"/>
      <use x="2201.482422" xlink:href="#ArialMT-114"/>
      <use x="2234.783203" xlink:href="#ArialMT-117"/>
      <use x="2290.398438" xlink:href="#ArialMT-110"/>
      <use x="2346.013672" xlink:href="#ArialMT-32"/>
      <use x="2373.796875" xlink:href="#ArialMT-40"/>
      <use x="2407.097656" xlink:href="#ArialMT-80"/>
      <use x="2473.796875" xlink:href="#ArialMT-101"/>
      <use x="2529.412109" xlink:href="#ArialMT-97"/>
      <use x="2585.027344" xlink:href="#ArialMT-107"/>
      <use x="2635.027344" xlink:href="#ArialMT-32"/>
      <use x="2662.810547" xlink:href="#ArialMT-74"/>
      <use x="2712.810547" xlink:href="#ArialMT-58"/>
      <use x="2740.59375" xlink:href="#ArialMT-32"/>
      <use x="2768.376953" xlink:href="#ArialMT-48"/>
      <use x="2823.992188" xlink:href="#ArialMT-46"/>
      <use x="2851.775391" xlink:href="#ArialMT-55"/>
      <use x="2907.390625" xlink:href="#ArialMT-49"/>
      <use x="2963.005859" xlink:href="#ArialMT-32"/>
      <use x="2990.789062" xlink:href="#ArialMT-64"/>
      <use x="3092.302734" xlink:href="#ArialMT-32"/>
      <use x="3120.085938" xlink:href="#ArialMT-115"/>
      <use x="3170.085938" xlink:href="#ArialMT-99"/>
      <use x="3220.085938" xlink:href="#ArialMT-111"/>
      <use x="3275.701172" xlink:href="#ArialMT-114"/>
      <use x="3309.001953" xlink:href="#ArialMT-101"/>
      <use x="3364.617188" xlink:href="#ArialMT-58"/>
      <use x="3392.400391" xlink:href="#ArialMT-32"/>
      <use x="3420.183594" xlink:href="#ArialMT-54"/>
      <use x="3475.798828" xlink:href="#ArialMT-50"/>
      <use x="3531.414062" xlink:href="#ArialMT-46"/>
      <use x="3559.197266" xlink:href="#ArialMT-50"/>
      <use x="3614.8125" xlink:href="#ArialMT-52"/>
      <use x="3670.427734" xlink:href="#ArialMT-41"/>
     </g>
    </g>
    <g id="line2d_21">
     <path d="M 440.845313 52.28125 
L 460.845313 52.28125 
" style="fill:none;stroke:#ff7f0e;stroke-linecap:round;stroke-width:1.5;"/>
    </g>
    <g id="line2d_22"/>
    <g id="text_16">
     <!-- new_CCR_no_sift_polyphen_filter (Peak J: 0.81 @ score: 63.35) -->
     <defs>
      <path d="M 4.15625 18.75 
L 13.375 19.53125 
Q 14.40625 12.796875 18.140625 9.390625 
Q 21.875 6 27.15625 6 
Q 33.5 6 37.890625 10.78125 
Q 42.28125 15.578125 42.28125 23.484375 
Q 42.28125 31 38.0625 35.34375 
Q 33.84375 39.703125 27 39.703125 
Q 22.75 39.703125 19.328125 37.765625 
Q 15.921875 35.84375 13.96875 32.765625 
L 5.71875 33.84375 
L 12.640625 70.609375 
L 48.25 70.609375 
L 48.25 62.203125 
L 19.671875 62.203125 
L 15.828125 42.96875 
Q 22.265625 47.46875 29.34375 47.46875 
Q 38.71875 47.46875 45.15625 40.96875 
Q 51.609375 34.46875 51.609375 24.265625 
Q 51.609375 14.546875 45.953125 7.46875 
Q 39.0625 -1.21875 27.15625 -1.21875 
Q 17.390625 -1.21875 11.203125 4.25 
Q 5.03125 9.71875 4.15625 18.75 
z
" id="ArialMT-53"/>
     </defs>
     <g style="fill:#262626;" transform="translate(468.845313 55.78125)scale(0.1 -0.1)">
      <use xlink:href="#ArialMT-110"/>
      <use x="55.615234" xlink:href="#ArialMT-101"/>
      <use x="111.230469" xlink:href="#ArialMT-119"/>
      <use x="183.447266" xlink:href="#ArialMT-95"/>
      <use x="239.0625" xlink:href="#ArialMT-67"/>
      <use x="311.279297" xlink:href="#ArialMT-67"/>
      <use x="383.496094" xlink:href="#ArialMT-82"/>
      <use x="455.712891" xlink:href="#ArialMT-95"/>
      <use x="511.328125" xlink:href="#ArialMT-110"/>
      <use x="566.943359" xlink:href="#ArialMT-111"/>
      <use x="622.558594" xlink:href="#ArialMT-95"/>
      <use x="678.173828" xlink:href="#ArialMT-115"/>
      <use x="728.173828" xlink:href="#ArialMT-105"/>
      <use x="750.390625" xlink:href="#ArialMT-102"/>
      <use x="778.173828" xlink:href="#ArialMT-116"/>
      <use x="805.957031" xlink:href="#ArialMT-95"/>
      <use x="861.572266" xlink:href="#ArialMT-112"/>
      <use x="917.1875" xlink:href="#ArialMT-111"/>
      <use x="972.802734" xlink:href="#ArialMT-108"/>
      <use x="995.019531" xlink:href="#ArialMT-121"/>
      <use x="1045.019531" xlink:href="#ArialMT-112"/>
      <use x="1100.634766" xlink:href="#ArialMT-104"/>
      <use x="1156.25" xlink:href="#ArialMT-101"/>
      <use x="1211.865234" xlink:href="#ArialMT-110"/>
      <use x="1267.480469" xlink:href="#ArialMT-95"/>
      <use x="1323.095703" xlink:href="#ArialMT-102"/>
      <use x="1350.878906" xlink:href="#ArialMT-105"/>
      <use x="1373.095703" xlink:href="#ArialMT-108"/>
      <use x="1395.3125" xlink:href="#ArialMT-116"/>
      <use x="1423.095703" xlink:href="#ArialMT-101"/>
      <use x="1478.710938" xlink:href="#ArialMT-114"/>
      <use x="1512.011719" xlink:href="#ArialMT-32"/>
      <use x="1539.794922" xlink:href="#ArialMT-40"/>
      <use x="1573.095703" xlink:href="#ArialMT-80"/>
      <use x="1639.794922" xlink:href="#ArialMT-101"/>
      <use x="1695.410156" xlink:href="#ArialMT-97"/>
      <use x="1751.025391" xlink:href="#ArialMT-107"/>
      <use x="1801.025391" xlink:href="#ArialMT-32"/>
      <use x="1828.808594" xlink:href="#ArialMT-74"/>
      <use x="1878.808594" xlink:href="#ArialMT-58"/>
      <use x="1906.591797" xlink:href="#ArialMT-32"/>
      <use x="1934.375" xlink:href="#ArialMT-48"/>
      <use x="1989.990234" xlink:href="#ArialMT-46"/>
      <use x="2017.773438" xlink:href="#ArialMT-56"/>
      <use x="2073.388672" xlink:href="#ArialMT-49"/>
      <use x="2129.003906" xlink:href="#ArialMT-32"/>
      <use x="2156.787109" xlink:href="#ArialMT-64"/>
      <use x="2258.300781" xlink:href="#ArialMT-32"/>
      <use x="2286.083984" xlink:href="#ArialMT-115"/>
      <use x="2336.083984" xlink:href="#ArialMT-99"/>
      <use x="2386.083984" xlink:href="#ArialMT-111"/>
      <use x="2441.699219" xlink:href="#ArialMT-114"/>
      <use x="2475" xlink:href="#ArialMT-101"/>
      <use x="2530.615234" xlink:href="#ArialMT-58"/>
      <use x="2558.398438" xlink:href="#ArialMT-32"/>
      <use x="2586.181641" xlink:href="#ArialMT-54"/>
      <use x="2641.796875" xlink:href="#ArialMT-51"/>
      <use x="2697.412109" xlink:href="#ArialMT-46"/>
      <use x="2725.195312" xlink:href="#ArialMT-51"/>
      <use x="2780.810547" xlink:href="#ArialMT-53"/>
      <use x="2836.425781" xlink:href="#ArialMT-41"/>
     </g>
    </g>
    <g id="line2d_23">
     <path d="M 440.845313 66.676562 
L 460.845313 66.676562 
" style="fill:none;stroke:#2ca02c;stroke-linecap:round;stroke-width:1.5;"/>
    </g>
    <g id="line2d_24"/>
    <g id="text_17">
     <!-- new_CCR_sift_cutoff_0.04_polyphen_cutoff_0.4_run (Peak J: 0.74 @ score: 62.40) -->
     <g style="fill:#262626;" transform="translate(468.845313 70.176562)scale(0.1 -0.1)">
      <use xlink:href="#ArialMT-110"/>
      <use x="55.615234" xlink:href="#ArialMT-101"/>
      <use x="111.230469" xlink:href="#ArialMT-119"/>
      <use x="183.447266" xlink:href="#ArialMT-95"/>
      <use x="239.0625" xlink:href="#ArialMT-67"/>
      <use x="311.279297" xlink:href="#ArialMT-67"/>
      <use x="383.496094" xlink:href="#ArialMT-82"/>
      <use x="455.712891" xlink:href="#ArialMT-95"/>
      <use x="511.328125" xlink:href="#ArialMT-115"/>
      <use x="561.328125" xlink:href="#ArialMT-105"/>
      <use x="583.544922" xlink:href="#ArialMT-102"/>
      <use x="611.328125" xlink:href="#ArialMT-116"/>
      <use x="639.111328" xlink:href="#ArialMT-95"/>
      <use x="694.726562" xlink:href="#ArialMT-99"/>
      <use x="744.726562" xlink:href="#ArialMT-117"/>
      <use x="800.341797" xlink:href="#ArialMT-116"/>
      <use x="828.125" xlink:href="#ArialMT-111"/>
      <use x="883.740234" xlink:href="#ArialMT-102"/>
      <use x="911.507812" xlink:href="#ArialMT-102"/>
      <use x="939.291016" xlink:href="#ArialMT-95"/>
      <use x="994.90625" xlink:href="#ArialMT-48"/>
      <use x="1050.521484" xlink:href="#ArialMT-46"/>
      <use x="1078.304688" xlink:href="#ArialMT-48"/>
      <use x="1133.919922" xlink:href="#ArialMT-52"/>
      <use x="1189.535156" xlink:href="#ArialMT-95"/>
      <use x="1245.150391" xlink:href="#ArialMT-112"/>
      <use x="1300.765625" xlink:href="#ArialMT-111"/>
      <use x="1356.380859" xlink:href="#ArialMT-108"/>
      <use x="1378.597656" xlink:href="#ArialMT-121"/>
      <use x="1428.597656" xlink:href="#ArialMT-112"/>
      <use x="1484.212891" xlink:href="#ArialMT-104"/>
      <use x="1539.828125" xlink:href="#ArialMT-101"/>
      <use x="1595.443359" xlink:href="#ArialMT-110"/>
      <use x="1651.058594" xlink:href="#ArialMT-95"/>
      <use x="1706.673828" xlink:href="#ArialMT-99"/>
      <use x="1756.673828" xlink:href="#ArialMT-117"/>
      <use x="1812.289062" xlink:href="#ArialMT-116"/>
      <use x="1840.072266" xlink:href="#ArialMT-111"/>
      <use x="1895.6875" xlink:href="#ArialMT-102"/>
      <use x="1923.455078" xlink:href="#ArialMT-102"/>
      <use x="1951.238281" xlink:href="#ArialMT-95"/>
      <use x="2006.853516" xlink:href="#ArialMT-48"/>
      <use x="2062.46875" xlink:href="#ArialMT-46"/>
      <use x="2090.251953" xlink:href="#ArialMT-52"/>
      <use x="2145.867188" xlink:href="#ArialMT-95"/>
      <use x="2201.482422" xlink:href="#ArialMT-114"/>
      <use x="2234.783203" xlink:href="#ArialMT-117"/>
      <use x="2290.398438" xlink:href="#ArialMT-110"/>
      <use x="2346.013672" xlink:href="#ArialMT-32"/>
      <use x="2373.796875" xlink:href="#ArialMT-40"/>
      <use x="2407.097656" xlink:href="#ArialMT-80"/>
      <use x="2473.796875" xlink:href="#ArialMT-101"/>
      <use x="2529.412109" xlink:href="#ArialMT-97"/>
      <use x="2585.027344" xlink:href="#ArialMT-107"/>
      <use x="2635.027344" xlink:href="#ArialMT-32"/>
      <use x="2662.810547" xlink:href="#ArialMT-74"/>
      <use x="2712.810547" xlink:href="#ArialMT-58"/>
      <use x="2740.59375" xlink:href="#ArialMT-32"/>
      <use x="2768.376953" xlink:href="#ArialMT-48"/>
      <use x="2823.992188" xlink:href="#ArialMT-46"/>
      <use x="2851.775391" xlink:href="#ArialMT-55"/>
      <use x="2907.390625" xlink:href="#ArialMT-52"/>
      <use x="2963.005859" xlink:href="#ArialMT-32"/>
      <use x="2990.789062" xlink:href="#ArialMT-64"/>
      <use x="3092.302734" xlink:href="#ArialMT-32"/>
      <use x="3120.085938" xlink:href="#ArialMT-115"/>
      <use x="3170.085938" xlink:href="#ArialMT-99"/>
      <use x="3220.085938" xlink:href="#ArialMT-111"/>
      <use x="3275.701172" xlink:href="#ArialMT-114"/>
      <use x="3309.001953" xlink:href="#ArialMT-101"/>
      <use x="3364.617188" xlink:href="#ArialMT-58"/>
      <use x="3392.400391" xlink:href="#ArialMT-32"/>
      <use x="3420.183594" xlink:href="#ArialMT-54"/>
      <use x="3475.798828" xlink:href="#ArialMT-50"/>
      <use x="3531.414062" xlink:href="#ArialMT-46"/>
      <use x="3559.197266" xlink:href="#ArialMT-52"/>
      <use x="3614.8125" xlink:href="#ArialMT-48"/>
      <use x="3670.427734" xlink:href="#ArialMT-41"/>
     </g>
    </g>
    <g id="line2d_25">
     <path d="M 440.845313 81.071875 
L 460.845313 81.071875 
" style="fill:none;stroke:#d62728;stroke-linecap:round;stroke-width:1.5;"/>
    </g>
    <g id="line2d_26"/>
    <g id="text_18">
     <!-- chr20_jim_ccr (Peak J: 0.79 @ score: 1.60) -->
     <defs>
      <path d="M 6.546875 61.375 
L 6.546875 71.578125 
L 15.328125 71.578125 
L 15.328125 61.375 
z
M -4.59375 -20.125 
L -2.9375 -12.640625 
Q -0.296875 -13.328125 1.21875 -13.328125 
Q 3.90625 -13.328125 5.21875 -11.546875 
Q 6.546875 -9.765625 6.546875 -2.640625 
L 6.546875 51.859375 
L 15.328125 51.859375 
L 15.328125 -2.828125 
Q 15.328125 -12.40625 12.84375 -16.15625 
Q 9.671875 -21.046875 2.296875 -21.046875 
Q -1.265625 -21.046875 -4.59375 -20.125 
z
" id="ArialMT-106"/>
      <path d="M 5.46875 16.546875 
L 13.921875 17.328125 
Q 14.984375 11.375 18.015625 8.6875 
Q 21.046875 6 25.78125 6 
Q 29.828125 6 32.875 7.859375 
Q 35.9375 9.71875 37.890625 12.8125 
Q 39.84375 15.921875 41.15625 21.1875 
Q 42.484375 26.46875 42.484375 31.9375 
Q 42.484375 32.515625 42.4375 33.6875 
Q 39.796875 29.5 35.234375 26.875 
Q 30.671875 24.265625 25.34375 24.265625 
Q 16.453125 24.265625 10.296875 30.703125 
Q 4.15625 37.15625 4.15625 47.703125 
Q 4.15625 58.59375 10.578125 65.234375 
Q 17 71.875 26.65625 71.875 
Q 33.640625 71.875 39.421875 68.109375 
Q 45.21875 64.359375 48.21875 57.390625 
Q 51.21875 50.4375 51.21875 37.25 
Q 51.21875 23.53125 48.234375 15.40625 
Q 45.265625 7.28125 39.375 3.03125 
Q 33.5 -1.21875 25.59375 -1.21875 
Q 17.1875 -1.21875 11.859375 3.4375 
Q 6.546875 8.109375 5.46875 16.546875 
z
M 41.453125 48.140625 
Q 41.453125 55.71875 37.421875 60.15625 
Q 33.40625 64.59375 27.734375 64.59375 
Q 21.875 64.59375 17.53125 59.8125 
Q 13.1875 55.03125 13.1875 47.40625 
Q 13.1875 40.578125 17.3125 36.296875 
Q 21.4375 32.03125 27.484375 32.03125 
Q 33.59375 32.03125 37.515625 36.296875 
Q 41.453125 40.578125 41.453125 48.140625 
z
" id="ArialMT-57"/>
     </defs>
     <g style="fill:#262626;" transform="translate(468.845313 84.571875)scale(0.1 -0.1)">
      <use xlink:href="#ArialMT-99"/>
      <use x="50" xlink:href="#ArialMT-104"/>
      <use x="105.615234" xlink:href="#ArialMT-114"/>
      <use x="138.916016" xlink:href="#ArialMT-50"/>
      <use x="194.53125" xlink:href="#ArialMT-48"/>
      <use x="250.146484" xlink:href="#ArialMT-95"/>
      <use x="305.761719" xlink:href="#ArialMT-106"/>
      <use x="327.978516" xlink:href="#ArialMT-105"/>
      <use x="350.195312" xlink:href="#ArialMT-109"/>
      <use x="433.496094" xlink:href="#ArialMT-95"/>
      <use x="489.111328" xlink:href="#ArialMT-99"/>
      <use x="539.111328" xlink:href="#ArialMT-99"/>
      <use x="589.111328" xlink:href="#ArialMT-114"/>
      <use x="622.412109" xlink:href="#ArialMT-32"/>
      <use x="650.195312" xlink:href="#ArialMT-40"/>
      <use x="683.496094" xlink:href="#ArialMT-80"/>
      <use x="750.195312" xlink:href="#ArialMT-101"/>
      <use x="805.810547" xlink:href="#ArialMT-97"/>
      <use x="861.425781" xlink:href="#ArialMT-107"/>
      <use x="911.425781" xlink:href="#ArialMT-32"/>
      <use x="939.208984" xlink:href="#ArialMT-74"/>
      <use x="989.208984" xlink:href="#ArialMT-58"/>
      <use x="1016.992188" xlink:href="#ArialMT-32"/>
      <use x="1044.775391" xlink:href="#ArialMT-48"/>
      <use x="1100.390625" xlink:href="#ArialMT-46"/>
      <use x="1128.173828" xlink:href="#ArialMT-55"/>
      <use x="1183.789062" xlink:href="#ArialMT-57"/>
      <use x="1239.404297" xlink:href="#ArialMT-32"/>
      <use x="1267.1875" xlink:href="#ArialMT-64"/>
      <use x="1368.701172" xlink:href="#ArialMT-32"/>
      <use x="1396.484375" xlink:href="#ArialMT-115"/>
      <use x="1446.484375" xlink:href="#ArialMT-99"/>
      <use x="1496.484375" xlink:href="#ArialMT-111"/>
      <use x="1552.099609" xlink:href="#ArialMT-114"/>
      <use x="1585.400391" xlink:href="#ArialMT-101"/>
      <use x="1641.015625" xlink:href="#ArialMT-58"/>
      <use x="1668.798828" xlink:href="#ArialMT-32"/>
      <use x="1696.582031" xlink:href="#ArialMT-49"/>
      <use x="1752.197266" xlink:href="#ArialMT-46"/>
      <use x="1779.980469" xlink:href="#ArialMT-54"/>
      <use x="1835.595703" xlink:href="#ArialMT-48"/>
      <use x="1891.210938" xlink:href="#ArialMT-41"/>
     </g>
    </g>
    <g id="line2d_27">
     <path d="M 440.845313 95.467187 
L 460.845313 95.467187 
" style="fill:none;stroke:#9467bd;stroke-linecap:round;stroke-width:1.5;"/>
    </g>
    <g id="line2d_28"/>
    <g id="text_19">
     <!-- new_CCR_sift_cutoff_0.05_polyphen_cutoff_0.908_vaf_cutoff_5th_percentile (Peak J: 0.81 @ score: 62.72) -->
     <defs>
      <path d="M 21 0 
L 1.265625 51.859375 
L 10.546875 51.859375 
L 21.6875 20.796875 
Q 23.484375 15.765625 25 10.359375 
Q 26.171875 14.453125 28.265625 20.21875 
L 39.796875 51.859375 
L 48.828125 51.859375 
L 29.203125 0 
z
" id="ArialMT-118"/>
     </defs>
     <g style="fill:#262626;" transform="translate(468.845313 98.967187)scale(0.1 -0.1)">
      <use xlink:href="#ArialMT-110"/>
      <use x="55.615234" xlink:href="#ArialMT-101"/>
      <use x="111.230469" xlink:href="#ArialMT-119"/>
      <use x="183.447266" xlink:href="#ArialMT-95"/>
      <use x="239.0625" xlink:href="#ArialMT-67"/>
      <use x="311.279297" xlink:href="#ArialMT-67"/>
      <use x="383.496094" xlink:href="#ArialMT-82"/>
      <use x="455.712891" xlink:href="#ArialMT-95"/>
      <use x="511.328125" xlink:href="#ArialMT-115"/>
      <use x="561.328125" xlink:href="#ArialMT-105"/>
      <use x="583.544922" xlink:href="#ArialMT-102"/>
      <use x="611.328125" xlink:href="#ArialMT-116"/>
      <use x="639.111328" xlink:href="#ArialMT-95"/>
      <use x="694.726562" xlink:href="#ArialMT-99"/>
      <use x="744.726562" xlink:href="#ArialMT-117"/>
      <use x="800.341797" xlink:href="#ArialMT-116"/>
      <use x="828.125" xlink:href="#ArialMT-111"/>
      <use x="883.740234" xlink:href="#ArialMT-102"/>
      <use x="911.507812" xlink:href="#ArialMT-102"/>
      <use x="939.291016" xlink:href="#ArialMT-95"/>
      <use x="994.90625" xlink:href="#ArialMT-48"/>
      <use x="1050.521484" xlink:href="#ArialMT-46"/>
      <use x="1078.304688" xlink:href="#ArialMT-48"/>
      <use x="1133.919922" xlink:href="#ArialMT-53"/>
      <use x="1189.535156" xlink:href="#ArialMT-95"/>
      <use x="1245.150391" xlink:href="#ArialMT-112"/>
      <use x="1300.765625" xlink:href="#ArialMT-111"/>
      <use x="1356.380859" xlink:href="#ArialMT-108"/>
      <use x="1378.597656" xlink:href="#ArialMT-121"/>
      <use x="1428.597656" xlink:href="#ArialMT-112"/>
      <use x="1484.212891" xlink:href="#ArialMT-104"/>
      <use x="1539.828125" xlink:href="#ArialMT-101"/>
      <use x="1595.443359" xlink:href="#ArialMT-110"/>
      <use x="1651.058594" xlink:href="#ArialMT-95"/>
      <use x="1706.673828" xlink:href="#ArialMT-99"/>
      <use x="1756.673828" xlink:href="#ArialMT-117"/>
      <use x="1812.289062" xlink:href="#ArialMT-116"/>
      <use x="1840.072266" xlink:href="#ArialMT-111"/>
      <use x="1895.6875" xlink:href="#ArialMT-102"/>
      <use x="1923.455078" xlink:href="#ArialMT-102"/>
      <use x="1951.238281" xlink:href="#ArialMT-95"/>
      <use x="2006.853516" xlink:href="#ArialMT-48"/>
      <use x="2062.46875" xlink:href="#ArialMT-46"/>
      <use x="2090.251953" xlink:href="#ArialMT-57"/>
      <use x="2145.867188" xlink:href="#ArialMT-48"/>
      <use x="2201.482422" xlink:href="#ArialMT-56"/>
      <use x="2257.097656" xlink:href="#ArialMT-95"/>
      <use x="2312.712891" xlink:href="#ArialMT-118"/>
      <use x="2362.712891" xlink:href="#ArialMT-97"/>
      <use x="2418.328125" xlink:href="#ArialMT-102"/>
      <use x="2446.111328" xlink:href="#ArialMT-95"/>
      <use x="2501.726562" xlink:href="#ArialMT-99"/>
      <use x="2551.726562" xlink:href="#ArialMT-117"/>
      <use x="2607.341797" xlink:href="#ArialMT-116"/>
      <use x="2635.125" xlink:href="#ArialMT-111"/>
      <use x="2690.740234" xlink:href="#ArialMT-102"/>
      <use x="2718.507812" xlink:href="#ArialMT-102"/>
      <use x="2746.291016" xlink:href="#ArialMT-95"/>
      <use x="2801.90625" xlink:href="#ArialMT-53"/>
      <use x="2857.521484" xlink:href="#ArialMT-116"/>
      <use x="2885.304688" xlink:href="#ArialMT-104"/>
      <use x="2940.919922" xlink:href="#ArialMT-95"/>
      <use x="2996.535156" xlink:href="#ArialMT-112"/>
      <use x="3052.150391" xlink:href="#ArialMT-101"/>
      <use x="3107.765625" xlink:href="#ArialMT-114"/>
      <use x="3141.066406" xlink:href="#ArialMT-99"/>
      <use x="3191.066406" xlink:href="#ArialMT-101"/>
      <use x="3246.681641" xlink:href="#ArialMT-110"/>
      <use x="3302.296875" xlink:href="#ArialMT-116"/>
      <use x="3330.080078" xlink:href="#ArialMT-105"/>
      <use x="3352.296875" xlink:href="#ArialMT-108"/>
      <use x="3374.513672" xlink:href="#ArialMT-101"/>
      <use x="3430.128906" xlink:href="#ArialMT-32"/>
      <use x="3457.912109" xlink:href="#ArialMT-40"/>
      <use x="3491.212891" xlink:href="#ArialMT-80"/>
      <use x="3557.912109" xlink:href="#ArialMT-101"/>
      <use x="3613.527344" xlink:href="#ArialMT-97"/>
      <use x="3669.142578" xlink:href="#ArialMT-107"/>
      <use x="3719.142578" xlink:href="#ArialMT-32"/>
      <use x="3746.925781" xlink:href="#ArialMT-74"/>
      <use x="3796.925781" xlink:href="#ArialMT-58"/>
      <use x="3824.708984" xlink:href="#ArialMT-32"/>
      <use x="3852.492188" xlink:href="#ArialMT-48"/>
      <use x="3908.107422" xlink:href="#ArialMT-46"/>
      <use x="3935.890625" xlink:href="#ArialMT-56"/>
      <use x="3991.505859" xlink:href="#ArialMT-49"/>
      <use x="4047.121094" xlink:href="#ArialMT-32"/>
      <use x="4074.904297" xlink:href="#ArialMT-64"/>
      <use x="4176.417969" xlink:href="#ArialMT-32"/>
      <use x="4204.201172" xlink:href="#ArialMT-115"/>
      <use x="4254.201172" xlink:href="#ArialMT-99"/>
      <use x="4304.201172" xlink:href="#ArialMT-111"/>
      <use x="4359.816406" xlink:href="#ArialMT-114"/>
      <use x="4393.117188" xlink:href="#ArialMT-101"/>
      <use x="4448.732422" xlink:href="#ArialMT-58"/>
      <use x="4476.515625" xlink:href="#ArialMT-32"/>
      <use x="4504.298828" xlink:href="#ArialMT-54"/>
      <use x="4559.914062" xlink:href="#ArialMT-50"/>
      <use x="4615.529297" xlink:href="#ArialMT-46"/>
      <use x="4643.3125" xlink:href="#ArialMT-55"/>
      <use x="4698.927734" xlink:href="#ArialMT-50"/>
      <use x="4754.542969" xlink:href="#ArialMT-41"/>
     </g>
    </g>
    <g id="line2d_29">
     <path d="M 440.845313 109.8625 
L 460.845313 109.8625 
" style="fill:none;stroke:#8c564b;stroke-linecap:round;stroke-width:1.5;"/>
    </g>
    <g id="line2d_30"/>
    <g id="text_20">
     <!-- new_CCR_no_sift_polyphen_filter_vaf_cutoff_10th_percentile (Peak J: 0.82 @ score: 62.66) -->
     <g style="fill:#262626;" transform="translate(468.845313 113.3625)scale(0.1 -0.1)">
      <use xlink:href="#ArialMT-110"/>
      <use x="55.615234" xlink:href="#ArialMT-101"/>
      <use x="111.230469" xlink:href="#ArialMT-119"/>
      <use x="183.447266" xlink:href="#ArialMT-95"/>
      <use x="239.0625" xlink:href="#ArialMT-67"/>
      <use x="311.279297" xlink:href="#ArialMT-67"/>
      <use x="383.496094" xlink:href="#ArialMT-82"/>
      <use x="455.712891" xlink:href="#ArialMT-95"/>
      <use x="511.328125" xlink:href="#ArialMT-110"/>
      <use x="566.943359" xlink:href="#ArialMT-111"/>
      <use x="622.558594" xlink:href="#ArialMT-95"/>
      <use x="678.173828" xlink:href="#ArialMT-115"/>
      <use x="728.173828" xlink:href="#ArialMT-105"/>
      <use x="750.390625" xlink:href="#ArialMT-102"/>
      <use x="778.173828" xlink:href="#ArialMT-116"/>
      <use x="805.957031" xlink:href="#ArialMT-95"/>
      <use x="861.572266" xlink:href="#ArialMT-112"/>
      <use x="917.1875" xlink:href="#ArialMT-111"/>
      <use x="972.802734" xlink:href="#ArialMT-108"/>
      <use x="995.019531" xlink:href="#ArialMT-121"/>
      <use x="1045.019531" xlink:href="#ArialMT-112"/>
      <use x="1100.634766" xlink:href="#ArialMT-104"/>
      <use x="1156.25" xlink:href="#ArialMT-101"/>
      <use x="1211.865234" xlink:href="#ArialMT-110"/>
      <use x="1267.480469" xlink:href="#ArialMT-95"/>
      <use x="1323.095703" xlink:href="#ArialMT-102"/>
      <use x="1350.878906" xlink:href="#ArialMT-105"/>
      <use x="1373.095703" xlink:href="#ArialMT-108"/>
      <use x="1395.3125" xlink:href="#ArialMT-116"/>
      <use x="1423.095703" xlink:href="#ArialMT-101"/>
      <use x="1478.710938" xlink:href="#ArialMT-114"/>
      <use x="1512.011719" xlink:href="#ArialMT-95"/>
      <use x="1567.626953" xlink:href="#ArialMT-118"/>
      <use x="1617.626953" xlink:href="#ArialMT-97"/>
      <use x="1673.242188" xlink:href="#ArialMT-102"/>
      <use x="1701.025391" xlink:href="#ArialMT-95"/>
      <use x="1756.640625" xlink:href="#ArialMT-99"/>
      <use x="1806.640625" xlink:href="#ArialMT-117"/>
      <use x="1862.255859" xlink:href="#ArialMT-116"/>
      <use x="1890.039062" xlink:href="#ArialMT-111"/>
      <use x="1945.654297" xlink:href="#ArialMT-102"/>
      <use x="1973.421875" xlink:href="#ArialMT-102"/>
      <use x="2001.205078" xlink:href="#ArialMT-95"/>
      <use x="2056.820312" xlink:href="#ArialMT-49"/>
      <use x="2112.435547" xlink:href="#ArialMT-48"/>
      <use x="2168.050781" xlink:href="#ArialMT-116"/>
      <use x="2195.833984" xlink:href="#ArialMT-104"/>
      <use x="2251.449219" xlink:href="#ArialMT-95"/>
      <use x="2307.064453" xlink:href="#ArialMT-112"/>
      <use x="2362.679688" xlink:href="#ArialMT-101"/>
      <use x="2418.294922" xlink:href="#ArialMT-114"/>
      <use x="2451.595703" xlink:href="#ArialMT-99"/>
      <use x="2501.595703" xlink:href="#ArialMT-101"/>
      <use x="2557.210938" xlink:href="#ArialMT-110"/>
      <use x="2612.826172" xlink:href="#ArialMT-116"/>
      <use x="2640.609375" xlink:href="#ArialMT-105"/>
      <use x="2662.826172" xlink:href="#ArialMT-108"/>
      <use x="2685.042969" xlink:href="#ArialMT-101"/>
      <use x="2740.658203" xlink:href="#ArialMT-32"/>
      <use x="2768.441406" xlink:href="#ArialMT-40"/>
      <use x="2801.742188" xlink:href="#ArialMT-80"/>
      <use x="2868.441406" xlink:href="#ArialMT-101"/>
      <use x="2924.056641" xlink:href="#ArialMT-97"/>
      <use x="2979.671875" xlink:href="#ArialMT-107"/>
      <use x="3029.671875" xlink:href="#ArialMT-32"/>
      <use x="3057.455078" xlink:href="#ArialMT-74"/>
      <use x="3107.455078" xlink:href="#ArialMT-58"/>
      <use x="3135.238281" xlink:href="#ArialMT-32"/>
      <use x="3163.021484" xlink:href="#ArialMT-48"/>
      <use x="3218.636719" xlink:href="#ArialMT-46"/>
      <use x="3246.419922" xlink:href="#ArialMT-56"/>
      <use x="3302.035156" xlink:href="#ArialMT-50"/>
      <use x="3357.650391" xlink:href="#ArialMT-32"/>
      <use x="3385.433594" xlink:href="#ArialMT-64"/>
      <use x="3486.947266" xlink:href="#ArialMT-32"/>
      <use x="3514.730469" xlink:href="#ArialMT-115"/>
      <use x="3564.730469" xlink:href="#ArialMT-99"/>
      <use x="3614.730469" xlink:href="#ArialMT-111"/>
      <use x="3670.345703" xlink:href="#ArialMT-114"/>
      <use x="3703.646484" xlink:href="#ArialMT-101"/>
      <use x="3759.261719" xlink:href="#ArialMT-58"/>
      <use x="3787.044922" xlink:href="#ArialMT-32"/>
      <use x="3814.828125" xlink:href="#ArialMT-54"/>
      <use x="3870.443359" xlink:href="#ArialMT-50"/>
      <use x="3926.058594" xlink:href="#ArialMT-46"/>
      <use x="3953.841797" xlink:href="#ArialMT-54"/>
      <use x="4009.457031" xlink:href="#ArialMT-54"/>
      <use x="4065.072266" xlink:href="#ArialMT-41"/>
     </g>
    </g>
    <g id="line2d_31">
     <path d="M 440.845313 124.257812 
L 460.845313 124.257812 
" style="fill:none;stroke:#e377c2;stroke-linecap:round;stroke-width:1.5;"/>
    </g>
    <g id="line2d_32"/>
    <g id="text_21">
     <!-- new_CCR_sift_cutoff_0.05_polyphen_cutoff_0.5_run (Peak J: 0.74 @ score: 62.57) -->
     <g style="fill:#262626;" transform="translate(468.845313 127.757812)scale(0.1 -0.1)">
      <use xlink:href="#ArialMT-110"/>
      <use x="55.615234" xlink:href="#ArialMT-101"/>
      <use x="111.230469" xlink:href="#ArialMT-119"/>
      <use x="183.447266" xlink:href="#ArialMT-95"/>
      <use x="239.0625" xlink:href="#ArialMT-67"/>
      <use x="311.279297" xlink:href="#ArialMT-67"/>
      <use x="383.496094" xlink:href="#ArialMT-82"/>
      <use x="455.712891" xlink:href="#ArialMT-95"/>
      <use x="511.328125" xlink:href="#ArialMT-115"/>
      <use x="561.328125" xlink:href="#ArialMT-105"/>
      <use x="583.544922" xlink:href="#ArialMT-102"/>
      <use x="611.328125" xlink:href="#ArialMT-116"/>
      <use x="639.111328" xlink:href="#ArialMT-95"/>
      <use x="694.726562" xlink:href="#ArialMT-99"/>
      <use x="744.726562" xlink:href="#ArialMT-117"/>
      <use x="800.341797" xlink:href="#ArialMT-116"/>
      <use x="828.125" xlink:href="#ArialMT-111"/>
      <use x="883.740234" xlink:href="#ArialMT-102"/>
      <use x="911.507812" xlink:href="#ArialMT-102"/>
      <use x="939.291016" xlink:href="#ArialMT-95"/>
      <use x="994.90625" xlink:href="#ArialMT-48"/>
      <use x="1050.521484" xlink:href="#ArialMT-46"/>
      <use x="1078.304688" xlink:href="#ArialMT-48"/>
      <use x="1133.919922" xlink:href="#ArialMT-53"/>
      <use x="1189.535156" xlink:href="#ArialMT-95"/>
      <use x="1245.150391" xlink:href="#ArialMT-112"/>
      <use x="1300.765625" xlink:href="#ArialMT-111"/>
      <use x="1356.380859" xlink:href="#ArialMT-108"/>
      <use x="1378.597656" xlink:href="#ArialMT-121"/>
      <use x="1428.597656" xlink:href="#ArialMT-112"/>
      <use x="1484.212891" xlink:href="#ArialMT-104"/>
      <use x="1539.828125" xlink:href="#ArialMT-101"/>
      <use x="1595.443359" xlink:href="#ArialMT-110"/>
      <use x="1651.058594" xlink:href="#ArialMT-95"/>
      <use x="1706.673828" xlink:href="#ArialMT-99"/>
      <use x="1756.673828" xlink:href="#ArialMT-117"/>
      <use x="1812.289062" xlink:href="#ArialMT-116"/>
      <use x="1840.072266" xlink:href="#ArialMT-111"/>
      <use x="1895.6875" xlink:href="#ArialMT-102"/>
      <use x="1923.455078" xlink:href="#ArialMT-102"/>
      <use x="1951.238281" xlink:href="#ArialMT-95"/>
      <use x="2006.853516" xlink:href="#ArialMT-48"/>
      <use x="2062.46875" xlink:href="#ArialMT-46"/>
      <use x="2090.251953" xlink:href="#ArialMT-53"/>
      <use x="2145.867188" xlink:href="#ArialMT-95"/>
      <use x="2201.482422" xlink:href="#ArialMT-114"/>
      <use x="2234.783203" xlink:href="#ArialMT-117"/>
      <use x="2290.398438" xlink:href="#ArialMT-110"/>
      <use x="2346.013672" xlink:href="#ArialMT-32"/>
      <use x="2373.796875" xlink:href="#ArialMT-40"/>
      <use x="2407.097656" xlink:href="#ArialMT-80"/>
      <use x="2473.796875" xlink:href="#ArialMT-101"/>
      <use x="2529.412109" xlink:href="#ArialMT-97"/>
      <use x="2585.027344" xlink:href="#ArialMT-107"/>
      <use x="2635.027344" xlink:href="#ArialMT-32"/>
      <use x="2662.810547" xlink:href="#ArialMT-74"/>
      <use x="2712.810547" xlink:href="#ArialMT-58"/>
      <use x="2740.59375" xlink:href="#ArialMT-32"/>
      <use x="2768.376953" xlink:href="#ArialMT-48"/>
      <use x="2823.992188" xlink:href="#ArialMT-46"/>
      <use x="2851.775391" xlink:href="#ArialMT-55"/>
      <use x="2907.390625" xlink:href="#ArialMT-52"/>
      <use x="2963.005859" xlink:href="#ArialMT-32"/>
      <use x="2990.789062" xlink:href="#ArialMT-64"/>
      <use x="3092.302734" xlink:href="#ArialMT-32"/>
      <use x="3120.085938" xlink:href="#ArialMT-115"/>
      <use x="3170.085938" xlink:href="#ArialMT-99"/>
      <use x="3220.085938" xlink:href="#ArialMT-111"/>
      <use x="3275.701172" xlink:href="#ArialMT-114"/>
      <use x="3309.001953" xlink:href="#ArialMT-101"/>
      <use x="3364.617188" xlink:href="#ArialMT-58"/>
      <use x="3392.400391" xlink:href="#ArialMT-32"/>
      <use x="3420.183594" xlink:href="#ArialMT-54"/>
      <use x="3475.798828" xlink:href="#ArialMT-50"/>
      <use x="3531.414062" xlink:href="#ArialMT-46"/>
      <use x="3559.197266" xlink:href="#ArialMT-53"/>
      <use x="3614.8125" xlink:href="#ArialMT-55"/>
      <use x="3670.427734" xlink:href="#ArialMT-41"/>
     </g>
    </g>
    <g id="line2d_33">
     <path d="M 440.845313 138.653125 
L 460.845313 138.653125 
" style="fill:none;stroke:#7f7f7f;stroke-linecap:round;stroke-width:1.5;"/>
    </g>
    <g id="line2d_34"/>
    <g id="text_22">
     <!-- new_CCR_no_combine_adjacent_variants (Peak J: 0.80 @ score: 63.32) -->
     <defs>
      <path d="M 14.703125 0 
L 6.546875 0 
L 6.546875 71.578125 
L 15.328125 71.578125 
L 15.328125 46.046875 
Q 20.90625 53.03125 29.546875 53.03125 
Q 34.328125 53.03125 38.59375 51.09375 
Q 42.875 49.171875 45.625 45.671875 
Q 48.390625 42.1875 49.953125 37.25 
Q 51.515625 32.328125 51.515625 26.703125 
Q 51.515625 13.375 44.921875 6.09375 
Q 38.328125 -1.171875 29.109375 -1.171875 
Q 19.921875 -1.171875 14.703125 6.5 
z
M 14.59375 26.3125 
Q 14.59375 17 17.140625 12.84375 
Q 21.296875 6.0625 28.375 6.0625 
Q 34.125 6.0625 38.328125 11.0625 
Q 42.53125 16.0625 42.53125 25.984375 
Q 42.53125 36.140625 38.5 40.96875 
Q 34.46875 45.796875 28.765625 45.796875 
Q 23 45.796875 18.796875 40.796875 
Q 14.59375 35.796875 14.59375 26.3125 
z
" id="ArialMT-98"/>
     </defs>
     <g style="fill:#262626;" transform="translate(468.845313 142.153125)scale(0.1 -0.1)">
      <use xlink:href="#ArialMT-110"/>
      <use x="55.615234" xlink:href="#ArialMT-101"/>
      <use x="111.230469" xlink:href="#ArialMT-119"/>
      <use x="183.447266" xlink:href="#ArialMT-95"/>
      <use x="239.0625" xlink:href="#ArialMT-67"/>
      <use x="311.279297" xlink:href="#ArialMT-67"/>
      <use x="383.496094" xlink:href="#ArialMT-82"/>
      <use x="455.712891" xlink:href="#ArialMT-95"/>
      <use x="511.328125" xlink:href="#ArialMT-110"/>
      <use x="566.943359" xlink:href="#ArialMT-111"/>
      <use x="622.558594" xlink:href="#ArialMT-95"/>
      <use x="678.173828" xlink:href="#ArialMT-99"/>
      <use x="728.173828" xlink:href="#ArialMT-111"/>
      <use x="783.789062" xlink:href="#ArialMT-109"/>
      <use x="867.089844" xlink:href="#ArialMT-98"/>
      <use x="922.705078" xlink:href="#ArialMT-105"/>
      <use x="944.921875" xlink:href="#ArialMT-110"/>
      <use x="1000.537109" xlink:href="#ArialMT-101"/>
      <use x="1056.152344" xlink:href="#ArialMT-95"/>
      <use x="1111.767578" xlink:href="#ArialMT-97"/>
      <use x="1167.382812" xlink:href="#ArialMT-100"/>
      <use x="1222.998047" xlink:href="#ArialMT-106"/>
      <use x="1245.214844" xlink:href="#ArialMT-97"/>
      <use x="1300.830078" xlink:href="#ArialMT-99"/>
      <use x="1350.830078" xlink:href="#ArialMT-101"/>
      <use x="1406.445312" xlink:href="#ArialMT-110"/>
      <use x="1462.060547" xlink:href="#ArialMT-116"/>
      <use x="1489.84375" xlink:href="#ArialMT-95"/>
      <use x="1545.458984" xlink:href="#ArialMT-118"/>
      <use x="1595.458984" xlink:href="#ArialMT-97"/>
      <use x="1651.074219" xlink:href="#ArialMT-114"/>
      <use x="1684.375" xlink:href="#ArialMT-105"/>
      <use x="1706.591797" xlink:href="#ArialMT-97"/>
      <use x="1762.207031" xlink:href="#ArialMT-110"/>
      <use x="1817.822266" xlink:href="#ArialMT-116"/>
      <use x="1845.605469" xlink:href="#ArialMT-115"/>
      <use x="1895.605469" xlink:href="#ArialMT-32"/>
      <use x="1923.388672" xlink:href="#ArialMT-40"/>
      <use x="1956.689453" xlink:href="#ArialMT-80"/>
      <use x="2023.388672" xlink:href="#ArialMT-101"/>
      <use x="2079.003906" xlink:href="#ArialMT-97"/>
      <use x="2134.619141" xlink:href="#ArialMT-107"/>
      <use x="2184.619141" xlink:href="#ArialMT-32"/>
      <use x="2212.402344" xlink:href="#ArialMT-74"/>
      <use x="2262.402344" xlink:href="#ArialMT-58"/>
      <use x="2290.185547" xlink:href="#ArialMT-32"/>
      <use x="2317.96875" xlink:href="#ArialMT-48"/>
      <use x="2373.583984" xlink:href="#ArialMT-46"/>
      <use x="2401.367188" xlink:href="#ArialMT-56"/>
      <use x="2456.982422" xlink:href="#ArialMT-48"/>
      <use x="2512.597656" xlink:href="#ArialMT-32"/>
      <use x="2540.380859" xlink:href="#ArialMT-64"/>
      <use x="2641.894531" xlink:href="#ArialMT-32"/>
      <use x="2669.677734" xlink:href="#ArialMT-115"/>
      <use x="2719.677734" xlink:href="#ArialMT-99"/>
      <use x="2769.677734" xlink:href="#ArialMT-111"/>
      <use x="2825.292969" xlink:href="#ArialMT-114"/>
      <use x="2858.59375" xlink:href="#ArialMT-101"/>
      <use x="2914.208984" xlink:href="#ArialMT-58"/>
      <use x="2941.992188" xlink:href="#ArialMT-32"/>
      <use x="2969.775391" xlink:href="#ArialMT-54"/>
      <use x="3025.390625" xlink:href="#ArialMT-51"/>
      <use x="3081.005859" xlink:href="#ArialMT-46"/>
      <use x="3108.789062" xlink:href="#ArialMT-51"/>
      <use x="3164.404297" xlink:href="#ArialMT-50"/>
      <use x="3220.019531" xlink:href="#ArialMT-41"/>
     </g>
    </g>
    <g id="line2d_35">
     <path d="M 440.845313 153.048437 
L 460.845313 153.048437 
" style="fill:none;stroke:#bcbd22;stroke-linecap:round;stroke-width:1.5;"/>
    </g>
    <g id="line2d_36"/>
    <g id="text_23">
     <!-- new_CCR_sift_cutoff_0.05_polyphen_cutoff_0.908_vaf_cutoff_15th_percentile (Peak J: 0.82 @ score: 61.97) -->
     <g style="fill:#262626;" transform="translate(468.845313 156.548437)scale(0.1 -0.1)">
      <use xlink:href="#ArialMT-110"/>
      <use x="55.615234" xlink:href="#ArialMT-101"/>
      <use x="111.230469" xlink:href="#ArialMT-119"/>
      <use x="183.447266" xlink:href="#ArialMT-95"/>
      <use x="239.0625" xlink:href="#ArialMT-67"/>
      <use x="311.279297" xlink:href="#ArialMT-67"/>
      <use x="383.496094" xlink:href="#ArialMT-82"/>
      <use x="455.712891" xlink:href="#ArialMT-95"/>
      <use x="511.328125" xlink:href="#ArialMT-115"/>
      <use x="561.328125" xlink:href="#ArialMT-105"/>
      <use x="583.544922" xlink:href="#ArialMT-102"/>
      <use x="611.328125" xlink:href="#ArialMT-116"/>
      <use x="639.111328" xlink:href="#ArialMT-95"/>
      <use x="694.726562" xlink:href="#ArialMT-99"/>
      <use x="744.726562" xlink:href="#ArialMT-117"/>
      <use x="800.341797" xlink:href="#ArialMT-116"/>
      <use x="828.125" xlink:href="#ArialMT-111"/>
      <use x="883.740234" xlink:href="#ArialMT-102"/>
      <use x="911.507812" xlink:href="#ArialMT-102"/>
      <use x="939.291016" xlink:href="#ArialMT-95"/>
      <use x="994.90625" xlink:href="#ArialMT-48"/>
      <use x="1050.521484" xlink:href="#ArialMT-46"/>
      <use x="1078.304688" xlink:href="#ArialMT-48"/>
      <use x="1133.919922" xlink:href="#ArialMT-53"/>
      <use x="1189.535156" xlink:href="#ArialMT-95"/>
      <use x="1245.150391" xlink:href="#ArialMT-112"/>
      <use x="1300.765625" xlink:href="#ArialMT-111"/>
      <use x="1356.380859" xlink:href="#ArialMT-108"/>
      <use x="1378.597656" xlink:href="#ArialMT-121"/>
      <use x="1428.597656" xlink:href="#ArialMT-112"/>
      <use x="1484.212891" xlink:href="#ArialMT-104"/>
      <use x="1539.828125" xlink:href="#ArialMT-101"/>
      <use x="1595.443359" xlink:href="#ArialMT-110"/>
      <use x="1651.058594" xlink:href="#ArialMT-95"/>
      <use x="1706.673828" xlink:href="#ArialMT-99"/>
      <use x="1756.673828" xlink:href="#ArialMT-117"/>
      <use x="1812.289062" xlink:href="#ArialMT-116"/>
      <use x="1840.072266" xlink:href="#ArialMT-111"/>
      <use x="1895.6875" xlink:href="#ArialMT-102"/>
      <use x="1923.455078" xlink:href="#ArialMT-102"/>
      <use x="1951.238281" xlink:href="#ArialMT-95"/>
      <use x="2006.853516" xlink:href="#ArialMT-48"/>
      <use x="2062.46875" xlink:href="#ArialMT-46"/>
      <use x="2090.251953" xlink:href="#ArialMT-57"/>
      <use x="2145.867188" xlink:href="#ArialMT-48"/>
      <use x="2201.482422" xlink:href="#ArialMT-56"/>
      <use x="2257.097656" xlink:href="#ArialMT-95"/>
      <use x="2312.712891" xlink:href="#ArialMT-118"/>
      <use x="2362.712891" xlink:href="#ArialMT-97"/>
      <use x="2418.328125" xlink:href="#ArialMT-102"/>
      <use x="2446.111328" xlink:href="#ArialMT-95"/>
      <use x="2501.726562" xlink:href="#ArialMT-99"/>
      <use x="2551.726562" xlink:href="#ArialMT-117"/>
      <use x="2607.341797" xlink:href="#ArialMT-116"/>
      <use x="2635.125" xlink:href="#ArialMT-111"/>
      <use x="2690.740234" xlink:href="#ArialMT-102"/>
      <use x="2718.507812" xlink:href="#ArialMT-102"/>
      <use x="2746.291016" xlink:href="#ArialMT-95"/>
      <use x="2801.90625" xlink:href="#ArialMT-49"/>
      <use x="2857.521484" xlink:href="#ArialMT-53"/>
      <use x="2913.136719" xlink:href="#ArialMT-116"/>
      <use x="2940.919922" xlink:href="#ArialMT-104"/>
      <use x="2996.535156" xlink:href="#ArialMT-95"/>
      <use x="3052.150391" xlink:href="#ArialMT-112"/>
      <use x="3107.765625" xlink:href="#ArialMT-101"/>
      <use x="3163.380859" xlink:href="#ArialMT-114"/>
      <use x="3196.681641" xlink:href="#ArialMT-99"/>
      <use x="3246.681641" xlink:href="#ArialMT-101"/>
      <use x="3302.296875" xlink:href="#ArialMT-110"/>
      <use x="3357.912109" xlink:href="#ArialMT-116"/>
      <use x="3385.695312" xlink:href="#ArialMT-105"/>
      <use x="3407.912109" xlink:href="#ArialMT-108"/>
      <use x="3430.128906" xlink:href="#ArialMT-101"/>
      <use x="3485.744141" xlink:href="#ArialMT-32"/>
      <use x="3513.527344" xlink:href="#ArialMT-40"/>
      <use x="3546.828125" xlink:href="#ArialMT-80"/>
      <use x="3613.527344" xlink:href="#ArialMT-101"/>
      <use x="3669.142578" xlink:href="#ArialMT-97"/>
      <use x="3724.757812" xlink:href="#ArialMT-107"/>
      <use x="3774.757812" xlink:href="#ArialMT-32"/>
      <use x="3802.541016" xlink:href="#ArialMT-74"/>
      <use x="3852.541016" xlink:href="#ArialMT-58"/>
      <use x="3880.324219" xlink:href="#ArialMT-32"/>
      <use x="3908.107422" xlink:href="#ArialMT-48"/>
      <use x="3963.722656" xlink:href="#ArialMT-46"/>
      <use x="3991.505859" xlink:href="#ArialMT-56"/>
      <use x="4047.121094" xlink:href="#ArialMT-50"/>
      <use x="4102.736328" xlink:href="#ArialMT-32"/>
      <use x="4130.519531" xlink:href="#ArialMT-64"/>
      <use x="4232.033203" xlink:href="#ArialMT-32"/>
      <use x="4259.816406" xlink:href="#ArialMT-115"/>
      <use x="4309.816406" xlink:href="#ArialMT-99"/>
      <use x="4359.816406" xlink:href="#ArialMT-111"/>
      <use x="4415.431641" xlink:href="#ArialMT-114"/>
      <use x="4448.732422" xlink:href="#ArialMT-101"/>
      <use x="4504.347656" xlink:href="#ArialMT-58"/>
      <use x="4532.130859" xlink:href="#ArialMT-32"/>
      <use x="4559.914062" xlink:href="#ArialMT-54"/>
      <use x="4615.529297" xlink:href="#ArialMT-49"/>
      <use x="4671.144531" xlink:href="#ArialMT-46"/>
      <use x="4698.927734" xlink:href="#ArialMT-57"/>
      <use x="4754.542969" xlink:href="#ArialMT-55"/>
      <use x="4810.158203" xlink:href="#ArialMT-41"/>
     </g>
    </g>
   </g>
  </g>
 </g>
 <defs>
  <clipPath id="p24d7dde130">
   <rect height="332.64" width="390.6" x="41.245312" y="10.7"/>
  </clipPath>
 </defs>
</svg>
