<?xml version="1.0" encoding="utf-8" standalone="no"?>
<!DOCTYPE svg PUBLIC "-//W3C//DTD SVG 1.1//EN"
  "http://www.w3.org/Graphics/SVG/1.1/DTD/svg11.dtd">
<!-- Created with matplotlib (https://matplotlib.org/) -->
<svg height="635.444607pt" version="1.1" viewBox="0 0 1192.636156 635.444607" width="1192.636156pt" xmlns="http://www.w3.org/2000/svg" xmlns:xlink="http://www.w3.org/1999/xlink">
 <defs>
  <style type="text/css">
*{stroke-linecap:butt;stroke-linejoin:round;}
  </style>
 </defs>
 <g id="figure_1">
  <g id="patch_1">
   <path d="M 0 635.444607 
L 1192.636156 635.444607 
L 1192.636156 0 
L 0 0 
z
" style="fill:#ffffff;"/>
  </g>
  <g id="axes_1">
   <g id="patch_2">
    <path d="M 207.089281 482.68 
L 597.689281 482.68 
L 597.689281 150.04 
L 207.089281 150.04 
z
" style="fill:#ffffff;"/>
   </g>
   <g id="line2d_1">
    <path clip-path="url(#pe1cfc34b51)" d="M 207.395394 482.68 
L 283.923607 150.04 
" style="fill:none;stroke:#777777;stroke-dasharray:5.55,2.4;stroke-dashoffset:0;stroke-width:1.5;"/>
   </g>
   <g id="matplotlib.axis_1">
    <g id="xtick_1">
     <g id="text_1">
      <!-- new_CCR_sift_cutoff_0.03_polyphen_cutoff_0.3_run -->
      <defs>
       <path d="M 6.59375 0 
L 6.59375 51.859375 
L 14.5 51.859375 
L 14.5 44.484375 
Q 20.21875 53.03125 31 53.03125 
Q 35.6875 53.03125 39.625 51.34375 
Q 43.5625 49.65625 45.515625 46.921875 
Q 47.46875 44.1875 48.25 40.4375 
Q 48.734375 37.984375 48.734375 31.890625 
L 48.734375 0 
L 39.9375 0 
L 39.9375 31.546875 
Q 39.9375 36.921875 38.90625 39.578125 
Q 37.890625 42.234375 35.28125 43.8125 
Q 32.671875 45.40625 29.15625 45.40625 
Q 23.53125 45.40625 19.453125 41.84375 
Q 15.375 38.28125 15.375 28.328125 
L 15.375 0 
z
" id="ArialMT-110"/>
       <path d="M 42.09375 16.703125 
L 51.171875 15.578125 
Q 49.03125 7.625 43.21875 3.21875 
Q 37.40625 -1.171875 28.375 -1.171875 
Q 17 -1.171875 10.328125 5.828125 
Q 3.65625 12.84375 3.65625 25.484375 
Q 3.65625 38.578125 10.390625 45.796875 
Q 17.140625 53.03125 27.875 53.03125 
Q 38.28125 53.03125 44.875 45.953125 
Q 51.46875 38.875 51.46875 26.03125 
Q 51.46875 25.25 51.421875 23.6875 
L 12.75 23.6875 
Q 13.234375 15.140625 17.578125 10.59375 
Q 21.921875 6.0625 28.421875 6.0625 
Q 33.25 6.0625 36.671875 8.59375 
Q 40.09375 11.140625 42.09375 16.703125 
z
M 13.234375 30.90625 
L 42.1875 30.90625 
Q 41.609375 37.453125 38.875 40.71875 
Q 34.671875 45.796875 27.984375 45.796875 
Q 21.921875 45.796875 17.796875 41.75 
Q 13.671875 37.703125 13.234375 30.90625 
z
" id="ArialMT-101"/>
       <path d="M 16.15625 0 
L 0.296875 51.859375 
L 9.375 51.859375 
L 17.625 21.921875 
L 20.703125 10.796875 
Q 20.90625 11.625 23.390625 21.484375 
L 31.640625 51.859375 
L 40.671875 51.859375 
L 48.4375 21.78125 
L 51.03125 11.859375 
L 54 21.875 
L 62.890625 51.859375 
L 71.4375 51.859375 
L 55.21875 0 
L 46.09375 0 
L 37.84375 31.0625 
L 35.84375 39.890625 
L 25.34375 0 
z
" id="ArialMT-119"/>
       <path d="M -1.515625 -19.875 
L -1.515625 -13.53125 
L 56.734375 -13.53125 
L 56.734375 -19.875 
z
" id="ArialMT-95"/>
       <path d="M 58.796875 25.09375 
L 68.265625 22.703125 
Q 65.28125 11.03125 57.546875 4.90625 
Q 49.8125 -1.21875 38.625 -1.21875 
Q 27.046875 -1.21875 19.796875 3.484375 
Q 12.546875 8.203125 8.765625 17.140625 
Q 4.984375 26.078125 4.984375 36.328125 
Q 4.984375 47.515625 9.25 55.828125 
Q 13.53125 64.15625 21.40625 68.46875 
Q 29.296875 72.796875 38.765625 72.796875 
Q 49.515625 72.796875 56.828125 67.328125 
Q 64.15625 61.859375 67.046875 51.953125 
L 57.71875 49.75 
Q 55.21875 57.5625 50.484375 61.125 
Q 45.75 64.703125 38.578125 64.703125 
Q 30.328125 64.703125 24.78125 60.734375 
Q 19.234375 56.78125 16.984375 50.109375 
Q 14.75 43.453125 14.75 36.375 
Q 14.75 27.25 17.40625 20.4375 
Q 20.0625 13.625 25.671875 10.25 
Q 31.296875 6.890625 37.84375 6.890625 
Q 45.796875 6.890625 51.3125 11.46875 
Q 56.84375 16.0625 58.796875 25.09375 
z
" id="ArialMT-67"/>
       <path d="M 7.859375 0 
L 7.859375 71.578125 
L 39.59375 71.578125 
Q 49.171875 71.578125 54.140625 69.640625 
Q 59.125 67.71875 62.109375 62.828125 
Q 65.09375 57.953125 65.09375 52.046875 
Q 65.09375 44.4375 60.15625 39.203125 
Q 55.21875 33.984375 44.921875 32.5625 
Q 48.6875 30.765625 50.640625 29 
Q 54.78125 25.203125 58.5 19.484375 
L 70.953125 0 
L 59.03125 0 
L 49.5625 14.890625 
Q 45.40625 21.34375 42.71875 24.75 
Q 40.046875 28.171875 37.921875 29.53125 
Q 35.796875 30.90625 33.59375 31.453125 
Q 31.984375 31.78125 28.328125 31.78125 
L 17.328125 31.78125 
L 17.328125 0 
z
M 17.328125 39.984375 
L 37.703125 39.984375 
Q 44.1875 39.984375 47.84375 41.328125 
Q 51.515625 42.671875 53.421875 45.625 
Q 55.328125 48.578125 55.328125 52.046875 
Q 55.328125 57.125 51.640625 60.390625 
Q 47.953125 63.671875 39.984375 63.671875 
L 17.328125 63.671875 
z
" id="ArialMT-82"/>
       <path d="M 3.078125 15.484375 
L 11.765625 16.84375 
Q 12.5 11.625 15.84375 8.84375 
Q 19.1875 6.0625 25.203125 6.0625 
Q 31.25 6.0625 34.171875 8.515625 
Q 37.109375 10.984375 37.109375 14.3125 
Q 37.109375 17.28125 34.515625 19 
Q 32.71875 20.171875 25.53125 21.96875 
Q 15.875 24.421875 12.140625 26.203125 
Q 8.40625 27.984375 6.46875 31.125 
Q 4.546875 34.28125 4.546875 38.09375 
Q 4.546875 41.546875 6.125 44.5 
Q 7.71875 47.46875 10.453125 49.421875 
Q 12.5 50.921875 16.03125 51.96875 
Q 19.578125 53.03125 23.640625 53.03125 
Q 29.734375 53.03125 34.34375 51.265625 
Q 38.96875 49.515625 41.15625 46.5 
Q 43.359375 43.5 44.1875 38.484375 
L 35.59375 37.3125 
Q 35.015625 41.3125 32.203125 43.546875 
Q 29.390625 45.796875 24.265625 45.796875 
Q 18.21875 45.796875 15.625 43.796875 
Q 13.03125 41.796875 13.03125 39.109375 
Q 13.03125 37.40625 14.109375 36.03125 
Q 15.1875 34.625 17.484375 33.6875 
Q 18.796875 33.203125 25.25 31.453125 
Q 34.578125 28.953125 38.25 27.359375 
Q 41.9375 25.78125 44.03125 22.75 
Q 46.140625 19.734375 46.140625 15.234375 
Q 46.140625 10.84375 43.578125 6.953125 
Q 41.015625 3.078125 36.171875 0.953125 
Q 31.34375 -1.171875 25.25 -1.171875 
Q 15.140625 -1.171875 9.84375 3.03125 
Q 4.546875 7.234375 3.078125 15.484375 
z
" id="ArialMT-115"/>
       <path d="M 6.640625 61.46875 
L 6.640625 71.578125 
L 15.4375 71.578125 
L 15.4375 61.46875 
z
M 6.640625 0 
L 6.640625 51.859375 
L 15.4375 51.859375 
L 15.4375 0 
z
" id="ArialMT-105"/>
       <path d="M 8.6875 0 
L 8.6875 45.015625 
L 0.921875 45.015625 
L 0.921875 51.859375 
L 8.6875 51.859375 
L 8.6875 57.375 
Q 8.6875 62.59375 9.625 65.140625 
Q 10.890625 68.5625 14.078125 70.671875 
Q 17.28125 72.796875 23.046875 72.796875 
Q 26.765625 72.796875 31.25 71.921875 
L 29.9375 64.265625 
Q 27.203125 64.75 24.75 64.75 
Q 20.75 64.75 19.09375 63.03125 
Q 17.4375 61.328125 17.4375 56.640625 
L 17.4375 51.859375 
L 27.546875 51.859375 
L 27.546875 45.015625 
L 17.4375 45.015625 
L 17.4375 0 
z
" id="ArialMT-102"/>
       <path d="M 25.78125 7.859375 
L 27.046875 0.09375 
Q 23.34375 -0.6875 20.40625 -0.6875 
Q 15.625 -0.6875 12.984375 0.828125 
Q 10.359375 2.34375 9.28125 4.8125 
Q 8.203125 7.28125 8.203125 15.1875 
L 8.203125 45.015625 
L 1.765625 45.015625 
L 1.765625 51.859375 
L 8.203125 51.859375 
L 8.203125 64.703125 
L 16.9375 69.96875 
L 16.9375 51.859375 
L 25.78125 51.859375 
L 25.78125 45.015625 
L 16.9375 45.015625 
L 16.9375 14.703125 
Q 16.9375 10.9375 17.40625 9.859375 
Q 17.875 8.796875 18.921875 8.15625 
Q 19.96875 7.515625 21.921875 7.515625 
Q 23.390625 7.515625 25.78125 7.859375 
z
" id="ArialMT-116"/>
       <path d="M 40.4375 19 
L 49.078125 17.875 
Q 47.65625 8.9375 41.8125 3.875 
Q 35.984375 -1.171875 27.484375 -1.171875 
Q 16.84375 -1.171875 10.375 5.78125 
Q 3.90625 12.75 3.90625 25.734375 
Q 3.90625 34.125 6.6875 40.421875 
Q 9.46875 46.734375 15.15625 49.875 
Q 20.84375 53.03125 27.546875 53.03125 
Q 35.984375 53.03125 41.359375 48.75 
Q 46.734375 44.484375 48.25 36.625 
L 39.703125 35.296875 
Q 38.484375 40.53125 35.375 43.15625 
Q 32.28125 45.796875 27.875 45.796875 
Q 21.234375 45.796875 17.078125 41.03125 
Q 12.9375 36.28125 12.9375 25.984375 
Q 12.9375 15.53125 16.9375 10.796875 
Q 20.953125 6.0625 27.390625 6.0625 
Q 32.5625 6.0625 36.03125 9.234375 
Q 39.5 12.40625 40.4375 19 
z
" id="ArialMT-99"/>
       <path d="M 40.578125 0 
L 40.578125 7.625 
Q 34.515625 -1.171875 24.125 -1.171875 
Q 19.53125 -1.171875 15.546875 0.578125 
Q 11.578125 2.34375 9.640625 5 
Q 7.71875 7.671875 6.9375 11.53125 
Q 6.390625 14.109375 6.390625 19.734375 
L 6.390625 51.859375 
L 15.1875 51.859375 
L 15.1875 23.09375 
Q 15.1875 16.21875 15.71875 13.8125 
Q 16.546875 10.359375 19.234375 8.375 
Q 21.921875 6.390625 25.875 6.390625 
Q 29.828125 6.390625 33.296875 8.421875 
Q 36.765625 10.453125 38.203125 13.9375 
Q 39.65625 17.4375 39.65625 24.078125 
L 39.65625 51.859375 
L 48.4375 51.859375 
L 48.4375 0 
z
" id="ArialMT-117"/>
       <path d="M 3.328125 25.921875 
Q 3.328125 40.328125 11.328125 47.265625 
Q 18.015625 53.03125 27.640625 53.03125 
Q 38.328125 53.03125 45.109375 46.015625 
Q 51.90625 39.015625 51.90625 26.65625 
Q 51.90625 16.65625 48.90625 10.90625 
Q 45.90625 5.171875 40.15625 2 
Q 34.421875 -1.171875 27.640625 -1.171875 
Q 16.75 -1.171875 10.03125 5.8125 
Q 3.328125 12.796875 3.328125 25.921875 
z
M 12.359375 25.921875 
Q 12.359375 15.96875 16.703125 11.015625 
Q 21.046875 6.0625 27.640625 6.0625 
Q 34.1875 6.0625 38.53125 11.03125 
Q 42.875 16.015625 42.875 26.21875 
Q 42.875 35.84375 38.5 40.796875 
Q 34.125 45.75 27.640625 45.75 
Q 21.046875 45.75 16.703125 40.8125 
Q 12.359375 35.890625 12.359375 25.921875 
z
" id="ArialMT-111"/>
       <path d="M 4.15625 35.296875 
Q 4.15625 48 6.765625 55.734375 
Q 9.375 63.484375 14.515625 67.671875 
Q 19.671875 71.875 27.484375 71.875 
Q 33.25 71.875 37.59375 69.546875 
Q 41.9375 67.234375 44.765625 62.859375 
Q 47.609375 58.5 49.21875 52.21875 
Q 50.828125 45.953125 50.828125 35.296875 
Q 50.828125 22.703125 48.234375 14.96875 
Q 45.65625 7.234375 40.5 3 
Q 35.359375 -1.21875 27.484375 -1.21875 
Q 17.140625 -1.21875 11.234375 6.203125 
Q 4.15625 15.140625 4.15625 35.296875 
z
M 13.1875 35.296875 
Q 13.1875 17.671875 17.3125 11.828125 
Q 21.4375 6 27.484375 6 
Q 33.546875 6 37.671875 11.859375 
Q 41.796875 17.71875 41.796875 35.296875 
Q 41.796875 52.984375 37.671875 58.78125 
Q 33.546875 64.59375 27.390625 64.59375 
Q 21.34375 64.59375 17.71875 59.46875 
Q 13.1875 52.9375 13.1875 35.296875 
z
" id="ArialMT-48"/>
       <path d="M 9.078125 0 
L 9.078125 10.015625 
L 19.09375 10.015625 
L 19.09375 0 
z
" id="ArialMT-46"/>
       <path d="M 4.203125 18.890625 
L 12.984375 20.0625 
Q 14.5 12.59375 18.140625 9.296875 
Q 21.78125 6 27 6 
Q 33.203125 6 37.46875 10.296875 
Q 41.75 14.59375 41.75 20.953125 
Q 41.75 27 37.796875 30.921875 
Q 33.84375 34.859375 27.734375 34.859375 
Q 25.25 34.859375 21.53125 33.890625 
L 22.515625 41.609375 
Q 23.390625 41.5 23.921875 41.5 
Q 29.546875 41.5 34.03125 44.421875 
Q 38.53125 47.359375 38.53125 53.46875 
Q 38.53125 58.296875 35.25 61.46875 
Q 31.984375 64.65625 26.8125 64.65625 
Q 21.6875 64.65625 18.265625 61.421875 
Q 14.84375 58.203125 13.875 51.765625 
L 5.078125 53.328125 
Q 6.6875 62.15625 12.390625 67.015625 
Q 18.109375 71.875 26.609375 71.875 
Q 32.46875 71.875 37.390625 69.359375 
Q 42.328125 66.84375 44.9375 62.5 
Q 47.5625 58.15625 47.5625 53.265625 
Q 47.5625 48.640625 45.0625 44.828125 
Q 42.578125 41.015625 37.703125 38.765625 
Q 44.046875 37.3125 47.5625 32.6875 
Q 51.078125 28.078125 51.078125 21.140625 
Q 51.078125 11.765625 44.234375 5.25 
Q 37.40625 -1.265625 26.953125 -1.265625 
Q 17.53125 -1.265625 11.296875 4.34375 
Q 5.078125 9.96875 4.203125 18.890625 
z
" id="ArialMT-51"/>
       <path d="M 6.59375 -19.875 
L 6.59375 51.859375 
L 14.59375 51.859375 
L 14.59375 45.125 
Q 17.4375 49.078125 21 51.046875 
Q 24.5625 53.03125 29.640625 53.03125 
Q 36.28125 53.03125 41.359375 49.609375 
Q 46.4375 46.1875 49.015625 39.953125 
Q 51.609375 33.734375 51.609375 26.3125 
Q 51.609375 18.359375 48.75 11.984375 
Q 45.90625 5.609375 40.453125 2.21875 
Q 35.015625 -1.171875 29 -1.171875 
Q 24.609375 -1.171875 21.109375 0.6875 
Q 17.625 2.546875 15.375 5.375 
L 15.375 -19.875 
z
M 14.546875 25.640625 
Q 14.546875 15.625 18.59375 10.84375 
Q 22.65625 6.0625 28.421875 6.0625 
Q 34.28125 6.0625 38.453125 11.015625 
Q 42.625 15.96875 42.625 26.375 
Q 42.625 36.28125 38.546875 41.203125 
Q 34.46875 46.140625 28.8125 46.140625 
Q 23.1875 46.140625 18.859375 40.890625 
Q 14.546875 35.640625 14.546875 25.640625 
z
" id="ArialMT-112"/>
       <path d="M 6.390625 0 
L 6.390625 71.578125 
L 15.1875 71.578125 
L 15.1875 0 
z
" id="ArialMT-108"/>
       <path d="M 6.203125 -19.96875 
L 5.21875 -11.71875 
Q 8.109375 -12.5 10.25 -12.5 
Q 13.1875 -12.5 14.9375 -11.515625 
Q 16.703125 -10.546875 17.828125 -8.796875 
Q 18.65625 -7.46875 20.515625 -2.25 
Q 20.75 -1.515625 21.296875 -0.09375 
L 1.609375 51.859375 
L 11.078125 51.859375 
L 21.875 21.828125 
Q 23.96875 16.109375 25.640625 9.8125 
Q 27.15625 15.875 29.25 21.625 
L 40.328125 51.859375 
L 49.125 51.859375 
L 29.390625 -0.875 
Q 26.21875 -9.421875 24.46875 -12.640625 
Q 22.125 -17 19.09375 -19.015625 
Q 16.0625 -21.046875 11.859375 -21.046875 
Q 9.328125 -21.046875 6.203125 -19.96875 
z
" id="ArialMT-121"/>
       <path d="M 6.59375 0 
L 6.59375 71.578125 
L 15.375 71.578125 
L 15.375 45.90625 
Q 21.53125 53.03125 30.90625 53.03125 
Q 36.671875 53.03125 40.921875 50.75 
Q 45.171875 48.484375 47 44.484375 
Q 48.828125 40.484375 48.828125 32.859375 
L 48.828125 0 
L 40.046875 0 
L 40.046875 32.859375 
Q 40.046875 39.453125 37.1875 42.453125 
Q 34.328125 45.453125 29.109375 45.453125 
Q 25.203125 45.453125 21.75 43.421875 
Q 18.3125 41.40625 16.84375 37.9375 
Q 15.375 34.46875 15.375 28.375 
L 15.375 0 
z
" id="ArialMT-104"/>
       <path d="M 6.5 0 
L 6.5 51.859375 
L 14.40625 51.859375 
L 14.40625 44 
Q 17.4375 49.515625 20 51.265625 
Q 22.5625 53.03125 25.640625 53.03125 
Q 30.078125 53.03125 34.671875 50.203125 
L 31.640625 42.046875 
Q 28.421875 43.953125 25.203125 43.953125 
Q 22.3125 43.953125 20.015625 42.21875 
Q 17.71875 40.484375 16.75 37.40625 
Q 15.28125 32.71875 15.28125 27.15625 
L 15.28125 0 
z
" id="ArialMT-114"/>
      </defs>
      <g style="fill:#262626;" transform="translate(10.839844 613.276582)rotate(-30)scale(0.1 -0.1)">
       <use xlink:href="#ArialMT-110"/>
       <use x="55.615234" xlink:href="#ArialMT-101"/>
       <use x="111.230469" xlink:href="#ArialMT-119"/>
       <use x="183.447266" xlink:href="#ArialMT-95"/>
       <use x="239.0625" xlink:href="#ArialMT-67"/>
       <use x="311.279297" xlink:href="#ArialMT-67"/>
       <use x="383.496094" xlink:href="#ArialMT-82"/>
       <use x="455.712891" xlink:href="#ArialMT-95"/>
       <use x="511.328125" xlink:href="#ArialMT-115"/>
       <use x="561.328125" xlink:href="#ArialMT-105"/>
       <use x="583.544922" xlink:href="#ArialMT-102"/>
       <use x="611.328125" xlink:href="#ArialMT-116"/>
       <use x="639.111328" xlink:href="#ArialMT-95"/>
       <use x="694.726562" xlink:href="#ArialMT-99"/>
       <use x="744.726562" xlink:href="#ArialMT-117"/>
       <use x="800.341797" xlink:href="#ArialMT-116"/>
       <use x="828.125" xlink:href="#ArialMT-111"/>
       <use x="883.740234" xlink:href="#ArialMT-102"/>
       <use x="911.507812" xlink:href="#ArialMT-102"/>
       <use x="939.291016" xlink:href="#ArialMT-95"/>
       <use x="994.90625" xlink:href="#ArialMT-48"/>
       <use x="1050.521484" xlink:href="#ArialMT-46"/>
       <use x="1078.304688" xlink:href="#ArialMT-48"/>
       <use x="1133.919922" xlink:href="#ArialMT-51"/>
       <use x="1189.535156" xlink:href="#ArialMT-95"/>
       <use x="1245.150391" xlink:href="#ArialMT-112"/>
       <use x="1300.765625" xlink:href="#ArialMT-111"/>
       <use x="1356.380859" xlink:href="#ArialMT-108"/>
       <use x="1378.597656" xlink:href="#ArialMT-121"/>
       <use x="1428.597656" xlink:href="#ArialMT-112"/>
       <use x="1484.212891" xlink:href="#ArialMT-104"/>
       <use x="1539.828125" xlink:href="#ArialMT-101"/>
       <use x="1595.443359" xlink:href="#ArialMT-110"/>
       <use x="1651.058594" xlink:href="#ArialMT-95"/>
       <use x="1706.673828" xlink:href="#ArialMT-99"/>
       <use x="1756.673828" xlink:href="#ArialMT-117"/>
       <use x="1812.289062" xlink:href="#ArialMT-116"/>
       <use x="1840.072266" xlink:href="#ArialMT-111"/>
       <use x="1895.6875" xlink:href="#ArialMT-102"/>
       <use x="1923.455078" xlink:href="#ArialMT-102"/>
       <use x="1951.238281" xlink:href="#ArialMT-95"/>
       <use x="2006.853516" xlink:href="#ArialMT-48"/>
       <use x="2062.46875" xlink:href="#ArialMT-46"/>
       <use x="2090.251953" xlink:href="#ArialMT-51"/>
       <use x="2145.867188" xlink:href="#ArialMT-95"/>
       <use x="2201.482422" xlink:href="#ArialMT-114"/>
       <use x="2234.783203" xlink:href="#ArialMT-117"/>
       <use x="2290.398438" xlink:href="#ArialMT-110"/>
      </g>
     </g>
    </g>
    <g id="xtick_2">
     <g id="text_2">
      <!-- new_CCR_no_sift_polyphen_filter -->
      <g style="fill:#262626;" transform="translate(159.58781 571.580488)rotate(-30)scale(0.1 -0.1)">
       <use xlink:href="#ArialMT-110"/>
       <use x="55.615234" xlink:href="#ArialMT-101"/>
       <use x="111.230469" xlink:href="#ArialMT-119"/>
       <use x="183.447266" xlink:href="#ArialMT-95"/>
       <use x="239.0625" xlink:href="#ArialMT-67"/>
       <use x="311.279297" xlink:href="#ArialMT-67"/>
       <use x="383.496094" xlink:href="#ArialMT-82"/>
       <use x="455.712891" xlink:href="#ArialMT-95"/>
       <use x="511.328125" xlink:href="#ArialMT-110"/>
       <use x="566.943359" xlink:href="#ArialMT-111"/>
       <use x="622.558594" xlink:href="#ArialMT-95"/>
       <use x="678.173828" xlink:href="#ArialMT-115"/>
       <use x="728.173828" xlink:href="#ArialMT-105"/>
       <use x="750.390625" xlink:href="#ArialMT-102"/>
       <use x="778.173828" xlink:href="#ArialMT-116"/>
       <use x="805.957031" xlink:href="#ArialMT-95"/>
       <use x="861.572266" xlink:href="#ArialMT-112"/>
       <use x="917.1875" xlink:href="#ArialMT-111"/>
       <use x="972.802734" xlink:href="#ArialMT-108"/>
       <use x="995.019531" xlink:href="#ArialMT-121"/>
       <use x="1045.019531" xlink:href="#ArialMT-112"/>
       <use x="1100.634766" xlink:href="#ArialMT-104"/>
       <use x="1156.25" xlink:href="#ArialMT-101"/>
       <use x="1211.865234" xlink:href="#ArialMT-110"/>
       <use x="1267.480469" xlink:href="#ArialMT-95"/>
       <use x="1323.095703" xlink:href="#ArialMT-102"/>
       <use x="1350.878906" xlink:href="#ArialMT-105"/>
       <use x="1373.095703" xlink:href="#ArialMT-108"/>
       <use x="1395.3125" xlink:href="#ArialMT-116"/>
       <use x="1423.095703" xlink:href="#ArialMT-101"/>
       <use x="1478.710938" xlink:href="#ArialMT-114"/>
      </g>
     </g>
    </g>
    <g id="xtick_3">
     <g id="text_3">
      <!-- new_CCR_sift_cutoff_0.04_polyphen_cutoff_0.4_run -->
      <defs>
       <path d="M 32.328125 0 
L 32.328125 17.140625 
L 1.265625 17.140625 
L 1.265625 25.203125 
L 33.9375 71.578125 
L 41.109375 71.578125 
L 41.109375 25.203125 
L 50.78125 25.203125 
L 50.78125 17.140625 
L 41.109375 17.140625 
L 41.109375 0 
z
M 32.328125 25.203125 
L 32.328125 57.46875 
L 9.90625 25.203125 
z
" id="ArialMT-52"/>
      </defs>
      <g style="fill:#262626;" transform="translate(163.89627 613.276582)rotate(-30)scale(0.1 -0.1)">
       <use xlink:href="#ArialMT-110"/>
       <use x="55.615234" xlink:href="#ArialMT-101"/>
       <use x="111.230469" xlink:href="#ArialMT-119"/>
       <use x="183.447266" xlink:href="#ArialMT-95"/>
       <use x="239.0625" xlink:href="#ArialMT-67"/>
       <use x="311.279297" xlink:href="#ArialMT-67"/>
       <use x="383.496094" xlink:href="#ArialMT-82"/>
       <use x="455.712891" xlink:href="#ArialMT-95"/>
       <use x="511.328125" xlink:href="#ArialMT-115"/>
       <use x="561.328125" xlink:href="#ArialMT-105"/>
       <use x="583.544922" xlink:href="#ArialMT-102"/>
       <use x="611.328125" xlink:href="#ArialMT-116"/>
       <use x="639.111328" xlink:href="#ArialMT-95"/>
       <use x="694.726562" xlink:href="#ArialMT-99"/>
       <use x="744.726562" xlink:href="#ArialMT-117"/>
       <use x="800.341797" xlink:href="#ArialMT-116"/>
       <use x="828.125" xlink:href="#ArialMT-111"/>
       <use x="883.740234" xlink:href="#ArialMT-102"/>
       <use x="911.507812" xlink:href="#ArialMT-102"/>
       <use x="939.291016" xlink:href="#ArialMT-95"/>
       <use x="994.90625" xlink:href="#ArialMT-48"/>
       <use x="1050.521484" xlink:href="#ArialMT-46"/>
       <use x="1078.304688" xlink:href="#ArialMT-48"/>
       <use x="1133.919922" xlink:href="#ArialMT-52"/>
       <use x="1189.535156" xlink:href="#ArialMT-95"/>
       <use x="1245.150391" xlink:href="#ArialMT-112"/>
       <use x="1300.765625" xlink:href="#ArialMT-111"/>
       <use x="1356.380859" xlink:href="#ArialMT-108"/>
       <use x="1378.597656" xlink:href="#ArialMT-121"/>
       <use x="1428.597656" xlink:href="#ArialMT-112"/>
       <use x="1484.212891" xlink:href="#ArialMT-104"/>
       <use x="1539.828125" xlink:href="#ArialMT-101"/>
       <use x="1595.443359" xlink:href="#ArialMT-110"/>
       <use x="1651.058594" xlink:href="#ArialMT-95"/>
       <use x="1706.673828" xlink:href="#ArialMT-99"/>
       <use x="1756.673828" xlink:href="#ArialMT-117"/>
       <use x="1812.289062" xlink:href="#ArialMT-116"/>
       <use x="1840.072266" xlink:href="#ArialMT-111"/>
       <use x="1895.6875" xlink:href="#ArialMT-102"/>
       <use x="1923.455078" xlink:href="#ArialMT-102"/>
       <use x="1951.238281" xlink:href="#ArialMT-95"/>
       <use x="2006.853516" xlink:href="#ArialMT-48"/>
       <use x="2062.46875" xlink:href="#ArialMT-46"/>
       <use x="2090.251953" xlink:href="#ArialMT-52"/>
       <use x="2145.867188" xlink:href="#ArialMT-95"/>
       <use x="2201.482422" xlink:href="#ArialMT-114"/>
       <use x="2234.783203" xlink:href="#ArialMT-117"/>
       <use x="2290.398438" xlink:href="#ArialMT-110"/>
      </g>
     </g>
    </g>
    <g id="xtick_4">
     <g id="text_4">
      <!-- chr20_jim_ccr -->
      <defs>
       <path d="M 50.34375 8.453125 
L 50.34375 0 
L 3.03125 0 
Q 2.9375 3.171875 4.046875 6.109375 
Q 5.859375 10.9375 9.828125 15.625 
Q 13.8125 20.3125 21.34375 26.46875 
Q 33.015625 36.03125 37.109375 41.625 
Q 41.21875 47.21875 41.21875 52.203125 
Q 41.21875 57.421875 37.46875 61 
Q 33.734375 64.59375 27.734375 64.59375 
Q 21.390625 64.59375 17.578125 60.78125 
Q 13.765625 56.984375 13.71875 50.25 
L 4.6875 51.171875 
Q 5.609375 61.28125 11.65625 66.578125 
Q 17.71875 71.875 27.9375 71.875 
Q 38.234375 71.875 44.234375 66.15625 
Q 50.25 60.453125 50.25 52 
Q 50.25 47.703125 48.484375 43.546875 
Q 46.734375 39.40625 42.65625 34.8125 
Q 38.578125 30.21875 29.109375 22.21875 
Q 21.1875 15.578125 18.9375 13.203125 
Q 16.703125 10.84375 15.234375 8.453125 
z
" id="ArialMT-50"/>
       <path d="M 6.546875 61.375 
L 6.546875 71.578125 
L 15.328125 71.578125 
L 15.328125 61.375 
z
M -4.59375 -20.125 
L -2.9375 -12.640625 
Q -0.296875 -13.328125 1.21875 -13.328125 
Q 3.90625 -13.328125 5.21875 -11.546875 
Q 6.546875 -9.765625 6.546875 -2.640625 
L 6.546875 51.859375 
L 15.328125 51.859375 
L 15.328125 -2.828125 
Q 15.328125 -12.40625 12.84375 -16.15625 
Q 9.671875 -21.046875 2.296875 -21.046875 
Q -1.265625 -21.046875 -4.59375 -20.125 
z
" id="ArialMT-106"/>
       <path d="M 6.59375 0 
L 6.59375 51.859375 
L 14.453125 51.859375 
L 14.453125 44.578125 
Q 16.890625 48.390625 20.9375 50.703125 
Q 25 53.03125 30.171875 53.03125 
Q 35.9375 53.03125 39.625 50.640625 
Q 43.3125 48.25 44.828125 43.953125 
Q 50.984375 53.03125 60.84375 53.03125 
Q 68.5625 53.03125 72.703125 48.75 
Q 76.859375 44.484375 76.859375 35.59375 
L 76.859375 0 
L 68.109375 0 
L 68.109375 32.671875 
Q 68.109375 37.9375 67.25 40.25 
Q 66.40625 42.578125 64.15625 43.984375 
Q 61.921875 45.40625 58.890625 45.40625 
Q 53.421875 45.40625 49.796875 41.765625 
Q 46.1875 38.140625 46.1875 30.125 
L 46.1875 0 
L 37.40625 0 
L 37.40625 33.6875 
Q 37.40625 39.546875 35.25 42.46875 
Q 33.109375 45.40625 28.21875 45.40625 
Q 24.515625 45.40625 21.359375 43.453125 
Q 18.21875 41.5 16.796875 37.734375 
Q 15.375 33.984375 15.375 26.90625 
L 15.375 0 
z
" id="ArialMT-109"/>
      </defs>
      <g style="fill:#262626;" transform="translate(389.681255 527.023308)rotate(-30)scale(0.1 -0.1)">
       <use xlink:href="#ArialMT-99"/>
       <use x="50" xlink:href="#ArialMT-104"/>
       <use x="105.615234" xlink:href="#ArialMT-114"/>
       <use x="138.916016" xlink:href="#ArialMT-50"/>
       <use x="194.53125" xlink:href="#ArialMT-48"/>
       <use x="250.146484" xlink:href="#ArialMT-95"/>
       <use x="305.761719" xlink:href="#ArialMT-106"/>
       <use x="327.978516" xlink:href="#ArialMT-105"/>
       <use x="350.195312" xlink:href="#ArialMT-109"/>
       <use x="433.496094" xlink:href="#ArialMT-95"/>
       <use x="489.111328" xlink:href="#ArialMT-99"/>
       <use x="539.111328" xlink:href="#ArialMT-99"/>
       <use x="589.111328" xlink:href="#ArialMT-114"/>
      </g>
     </g>
    </g>
    <g id="xtick_5">
     <g id="text_5">
      <!-- new_CCR_sift_cutoff_0.05_polyphen_cutoff_0.5_run -->
      <defs>
       <path d="M 4.15625 18.75 
L 13.375 19.53125 
Q 14.40625 12.796875 18.140625 9.390625 
Q 21.875 6 27.15625 6 
Q 33.5 6 37.890625 10.78125 
Q 42.28125 15.578125 42.28125 23.484375 
Q 42.28125 31 38.0625 35.34375 
Q 33.84375 39.703125 27 39.703125 
Q 22.75 39.703125 19.328125 37.765625 
Q 15.921875 35.84375 13.96875 32.765625 
L 5.71875 33.84375 
L 12.640625 70.609375 
L 48.25 70.609375 
L 48.25 62.203125 
L 19.671875 62.203125 
L 15.828125 42.96875 
Q 22.265625 47.46875 29.34375 47.46875 
Q 38.71875 47.46875 45.15625 40.96875 
Q 51.609375 34.46875 51.609375 24.265625 
Q 51.609375 14.546875 45.953125 7.46875 
Q 39.0625 -1.21875 27.15625 -1.21875 
Q 17.390625 -1.21875 11.203125 4.25 
Q 5.03125 9.71875 4.15625 18.75 
z
" id="ArialMT-53"/>
      </defs>
      <g style="fill:#262626;" transform="translate(316.952696 613.276582)rotate(-30)scale(0.1 -0.1)">
       <use xlink:href="#ArialMT-110"/>
       <use x="55.615234" xlink:href="#ArialMT-101"/>
       <use x="111.230469" xlink:href="#ArialMT-119"/>
       <use x="183.447266" xlink:href="#ArialMT-95"/>
       <use x="239.0625" xlink:href="#ArialMT-67"/>
       <use x="311.279297" xlink:href="#ArialMT-67"/>
       <use x="383.496094" xlink:href="#ArialMT-82"/>
       <use x="455.712891" xlink:href="#ArialMT-95"/>
       <use x="511.328125" xlink:href="#ArialMT-115"/>
       <use x="561.328125" xlink:href="#ArialMT-105"/>
       <use x="583.544922" xlink:href="#ArialMT-102"/>
       <use x="611.328125" xlink:href="#ArialMT-116"/>
       <use x="639.111328" xlink:href="#ArialMT-95"/>
       <use x="694.726562" xlink:href="#ArialMT-99"/>
       <use x="744.726562" xlink:href="#ArialMT-117"/>
       <use x="800.341797" xlink:href="#ArialMT-116"/>
       <use x="828.125" xlink:href="#ArialMT-111"/>
       <use x="883.740234" xlink:href="#ArialMT-102"/>
       <use x="911.507812" xlink:href="#ArialMT-102"/>
       <use x="939.291016" xlink:href="#ArialMT-95"/>
       <use x="994.90625" xlink:href="#ArialMT-48"/>
       <use x="1050.521484" xlink:href="#ArialMT-46"/>
       <use x="1078.304688" xlink:href="#ArialMT-48"/>
       <use x="1133.919922" xlink:href="#ArialMT-53"/>
       <use x="1189.535156" xlink:href="#ArialMT-95"/>
       <use x="1245.150391" xlink:href="#ArialMT-112"/>
       <use x="1300.765625" xlink:href="#ArialMT-111"/>
       <use x="1356.380859" xlink:href="#ArialMT-108"/>
       <use x="1378.597656" xlink:href="#ArialMT-121"/>
       <use x="1428.597656" xlink:href="#ArialMT-112"/>
       <use x="1484.212891" xlink:href="#ArialMT-104"/>
       <use x="1539.828125" xlink:href="#ArialMT-101"/>
       <use x="1595.443359" xlink:href="#ArialMT-110"/>
       <use x="1651.058594" xlink:href="#ArialMT-95"/>
       <use x="1706.673828" xlink:href="#ArialMT-99"/>
       <use x="1756.673828" xlink:href="#ArialMT-117"/>
       <use x="1812.289062" xlink:href="#ArialMT-116"/>
       <use x="1840.072266" xlink:href="#ArialMT-111"/>
       <use x="1895.6875" xlink:href="#ArialMT-102"/>
       <use x="1923.455078" xlink:href="#ArialMT-102"/>
       <use x="1951.238281" xlink:href="#ArialMT-95"/>
       <use x="2006.853516" xlink:href="#ArialMT-48"/>
       <use x="2062.46875" xlink:href="#ArialMT-46"/>
       <use x="2090.251953" xlink:href="#ArialMT-53"/>
       <use x="2145.867188" xlink:href="#ArialMT-95"/>
       <use x="2201.482422" xlink:href="#ArialMT-114"/>
       <use x="2234.783203" xlink:href="#ArialMT-117"/>
       <use x="2290.398438" xlink:href="#ArialMT-110"/>
      </g>
     </g>
    </g>
    <g id="xtick_6">
     <g id="text_6">
      <!-- new_CCR_no_combine_adjacent_variants -->
      <defs>
       <path d="M 14.703125 0 
L 6.546875 0 
L 6.546875 71.578125 
L 15.328125 71.578125 
L 15.328125 46.046875 
Q 20.90625 53.03125 29.546875 53.03125 
Q 34.328125 53.03125 38.59375 51.09375 
Q 42.875 49.171875 45.625 45.671875 
Q 48.390625 42.1875 49.953125 37.25 
Q 51.515625 32.328125 51.515625 26.703125 
Q 51.515625 13.375 44.921875 6.09375 
Q 38.328125 -1.171875 29.109375 -1.171875 
Q 19.921875 -1.171875 14.703125 6.5 
z
M 14.59375 26.3125 
Q 14.59375 17 17.140625 12.84375 
Q 21.296875 6.0625 28.375 6.0625 
Q 34.125 6.0625 38.328125 11.0625 
Q 42.53125 16.0625 42.53125 25.984375 
Q 42.53125 36.140625 38.5 40.96875 
Q 34.46875 45.796875 28.765625 45.796875 
Q 23 45.796875 18.796875 40.796875 
Q 14.59375 35.796875 14.59375 26.3125 
z
" id="ArialMT-98"/>
       <path d="M 40.4375 6.390625 
Q 35.546875 2.25 31.03125 0.53125 
Q 26.515625 -1.171875 21.34375 -1.171875 
Q 12.796875 -1.171875 8.203125 3 
Q 3.609375 7.171875 3.609375 13.671875 
Q 3.609375 17.484375 5.34375 20.625 
Q 7.078125 23.78125 9.890625 25.6875 
Q 12.703125 27.59375 16.21875 28.5625 
Q 18.796875 29.25 24.03125 29.890625 
Q 34.671875 31.15625 39.703125 32.90625 
Q 39.75 34.71875 39.75 35.203125 
Q 39.75 40.578125 37.25 42.78125 
Q 33.890625 45.75 27.25 45.75 
Q 21.046875 45.75 18.09375 43.578125 
Q 15.140625 41.40625 13.71875 35.890625 
L 5.125 37.0625 
Q 6.296875 42.578125 8.984375 45.96875 
Q 11.671875 49.359375 16.75 51.1875 
Q 21.828125 53.03125 28.515625 53.03125 
Q 35.15625 53.03125 39.296875 51.46875 
Q 43.453125 49.90625 45.40625 47.53125 
Q 47.359375 45.171875 48.140625 41.546875 
Q 48.578125 39.3125 48.578125 33.453125 
L 48.578125 21.734375 
Q 48.578125 9.46875 49.140625 6.21875 
Q 49.703125 2.984375 51.375 0 
L 42.1875 0 
Q 40.828125 2.734375 40.4375 6.390625 
z
M 39.703125 26.03125 
Q 34.90625 24.078125 25.34375 22.703125 
Q 19.921875 21.921875 17.671875 20.9375 
Q 15.4375 19.96875 14.203125 18.09375 
Q 12.984375 16.21875 12.984375 13.921875 
Q 12.984375 10.40625 15.640625 8.0625 
Q 18.3125 5.71875 23.4375 5.71875 
Q 28.515625 5.71875 32.46875 7.9375 
Q 36.421875 10.15625 38.28125 14.015625 
Q 39.703125 17 39.703125 22.796875 
z
" id="ArialMT-97"/>
       <path d="M 40.234375 0 
L 40.234375 6.546875 
Q 35.296875 -1.171875 25.734375 -1.171875 
Q 19.53125 -1.171875 14.328125 2.25 
Q 9.125 5.671875 6.265625 11.796875 
Q 3.421875 17.921875 3.421875 25.875 
Q 3.421875 33.640625 6 39.96875 
Q 8.59375 46.296875 13.765625 49.65625 
Q 18.953125 53.03125 25.34375 53.03125 
Q 30.03125 53.03125 33.6875 51.046875 
Q 37.359375 49.078125 39.65625 45.90625 
L 39.65625 71.578125 
L 48.390625 71.578125 
L 48.390625 0 
z
M 12.453125 25.875 
Q 12.453125 15.921875 16.640625 10.984375 
Q 20.84375 6.0625 26.5625 6.0625 
Q 32.328125 6.0625 36.34375 10.765625 
Q 40.375 15.484375 40.375 25.140625 
Q 40.375 35.796875 36.265625 40.765625 
Q 32.171875 45.75 26.171875 45.75 
Q 20.3125 45.75 16.375 40.96875 
Q 12.453125 36.1875 12.453125 25.875 
z
" id="ArialMT-100"/>
       <path d="M 21 0 
L 1.265625 51.859375 
L 10.546875 51.859375 
L 21.6875 20.796875 
Q 23.484375 15.765625 25 10.359375 
Q 26.171875 14.453125 28.265625 20.21875 
L 39.796875 51.859375 
L 48.828125 51.859375 
L 29.203125 0 
z
" id="ArialMT-118"/>
      </defs>
      <g style="fill:#262626;" transform="translate(432.483176 590.758613)rotate(-30)scale(0.1 -0.1)">
       <use xlink:href="#ArialMT-110"/>
       <use x="55.615234" xlink:href="#ArialMT-101"/>
       <use x="111.230469" xlink:href="#ArialMT-119"/>
       <use x="183.447266" xlink:href="#ArialMT-95"/>
       <use x="239.0625" xlink:href="#ArialMT-67"/>
       <use x="311.279297" xlink:href="#ArialMT-67"/>
       <use x="383.496094" xlink:href="#ArialMT-82"/>
       <use x="455.712891" xlink:href="#ArialMT-95"/>
       <use x="511.328125" xlink:href="#ArialMT-110"/>
       <use x="566.943359" xlink:href="#ArialMT-111"/>
       <use x="622.558594" xlink:href="#ArialMT-95"/>
       <use x="678.173828" xlink:href="#ArialMT-99"/>
       <use x="728.173828" xlink:href="#ArialMT-111"/>
       <use x="783.789062" xlink:href="#ArialMT-109"/>
       <use x="867.089844" xlink:href="#ArialMT-98"/>
       <use x="922.705078" xlink:href="#ArialMT-105"/>
       <use x="944.921875" xlink:href="#ArialMT-110"/>
       <use x="1000.537109" xlink:href="#ArialMT-101"/>
       <use x="1056.152344" xlink:href="#ArialMT-95"/>
       <use x="1111.767578" xlink:href="#ArialMT-97"/>
       <use x="1167.382812" xlink:href="#ArialMT-100"/>
       <use x="1222.998047" xlink:href="#ArialMT-106"/>
       <use x="1245.214844" xlink:href="#ArialMT-97"/>
       <use x="1300.830078" xlink:href="#ArialMT-99"/>
       <use x="1350.830078" xlink:href="#ArialMT-101"/>
       <use x="1406.445312" xlink:href="#ArialMT-110"/>
       <use x="1462.060547" xlink:href="#ArialMT-116"/>
       <use x="1489.84375" xlink:href="#ArialMT-95"/>
       <use x="1545.458984" xlink:href="#ArialMT-118"/>
       <use x="1595.458984" xlink:href="#ArialMT-97"/>
       <use x="1651.074219" xlink:href="#ArialMT-114"/>
       <use x="1684.375" xlink:href="#ArialMT-105"/>
       <use x="1706.591797" xlink:href="#ArialMT-97"/>
       <use x="1762.207031" xlink:href="#ArialMT-110"/>
       <use x="1817.822266" xlink:href="#ArialMT-116"/>
       <use x="1845.605469" xlink:href="#ArialMT-115"/>
      </g>
     </g>
    </g>
    <g id="text_7">
     <!-- False Positive Rate -->
     <defs>
      <path d="M 8.203125 0 
L 8.203125 71.578125 
L 56.5 71.578125 
L 56.5 63.140625 
L 17.671875 63.140625 
L 17.671875 40.96875 
L 51.265625 40.96875 
L 51.265625 32.515625 
L 17.671875 32.515625 
L 17.671875 0 
z
" id="ArialMT-70"/>
      <path id="ArialMT-32"/>
      <path d="M 7.71875 0 
L 7.71875 71.578125 
L 34.71875 71.578125 
Q 41.84375 71.578125 45.609375 70.90625 
Q 50.875 70.015625 54.4375 67.546875 
Q 58.015625 65.09375 60.1875 60.640625 
Q 62.359375 56.203125 62.359375 50.875 
Q 62.359375 41.75 56.546875 35.421875 
Q 50.734375 29.109375 35.546875 29.109375 
L 17.1875 29.109375 
L 17.1875 0 
z
M 17.1875 37.546875 
L 35.6875 37.546875 
Q 44.875 37.546875 48.734375 40.96875 
Q 52.59375 44.390625 52.59375 50.59375 
Q 52.59375 55.078125 50.3125 58.265625 
Q 48.046875 61.46875 44.34375 62.5 
Q 41.9375 63.140625 35.5 63.140625 
L 17.1875 63.140625 
z
" id="ArialMT-80"/>
     </defs>
     <g style="fill:#262626;" transform="translate(359.317406 626.257107)scale(0.1 -0.1)">
      <use xlink:href="#ArialMT-70"/>
      <use x="61.083984" xlink:href="#ArialMT-97"/>
      <use x="116.699219" xlink:href="#ArialMT-108"/>
      <use x="138.916016" xlink:href="#ArialMT-115"/>
      <use x="188.916016" xlink:href="#ArialMT-101"/>
      <use x="244.53125" xlink:href="#ArialMT-32"/>
      <use x="272.314453" xlink:href="#ArialMT-80"/>
      <use x="339.013672" xlink:href="#ArialMT-111"/>
      <use x="394.628906" xlink:href="#ArialMT-115"/>
      <use x="444.628906" xlink:href="#ArialMT-105"/>
      <use x="466.845703" xlink:href="#ArialMT-116"/>
      <use x="494.628906" xlink:href="#ArialMT-105"/>
      <use x="516.845703" xlink:href="#ArialMT-118"/>
      <use x="566.845703" xlink:href="#ArialMT-101"/>
      <use x="622.460938" xlink:href="#ArialMT-32"/>
      <use x="650.244141" xlink:href="#ArialMT-82"/>
      <use x="722.460938" xlink:href="#ArialMT-97"/>
      <use x="778.076172" xlink:href="#ArialMT-116"/>
      <use x="805.859375" xlink:href="#ArialMT-101"/>
     </g>
    </g>
   </g>
   <g id="matplotlib.axis_2">
    <g id="ytick_1">
     <g id="text_8">
      <!-- 0.0 -->
      <g style="fill:#262626;" transform="translate(186.189281 486.258906)scale(0.1 -0.1)">
       <use xlink:href="#ArialMT-48"/>
       <use x="55.615234" xlink:href="#ArialMT-46"/>
       <use x="83.398438" xlink:href="#ArialMT-48"/>
      </g>
     </g>
    </g>
    <g id="ytick_2">
     <g id="text_9">
      <!-- 0.2 -->
      <g style="fill:#262626;" transform="translate(186.189281 419.730906)scale(0.1 -0.1)">
       <use xlink:href="#ArialMT-48"/>
       <use x="55.615234" xlink:href="#ArialMT-46"/>
       <use x="83.398438" xlink:href="#ArialMT-50"/>
      </g>
     </g>
    </g>
    <g id="ytick_3">
     <g id="text_10">
      <!-- 0.4 -->
      <g style="fill:#262626;" transform="translate(186.189281 353.202906)scale(0.1 -0.1)">
       <use xlink:href="#ArialMT-48"/>
       <use x="55.615234" xlink:href="#ArialMT-46"/>
       <use x="83.398438" xlink:href="#ArialMT-52"/>
      </g>
     </g>
    </g>
    <g id="ytick_4">
     <g id="text_11">
      <!-- 0.6 -->
      <defs>
       <path d="M 49.75 54.046875 
L 41.015625 53.375 
Q 39.84375 58.546875 37.703125 60.890625 
Q 34.125 64.65625 28.90625 64.65625 
Q 24.703125 64.65625 21.53125 62.3125 
Q 17.390625 59.28125 14.984375 53.46875 
Q 12.59375 47.65625 12.5 36.921875 
Q 15.671875 41.75 20.265625 44.09375 
Q 24.859375 46.4375 29.890625 46.4375 
Q 38.671875 46.4375 44.84375 39.96875 
Q 51.03125 33.5 51.03125 23.25 
Q 51.03125 16.5 48.125 10.71875 
Q 45.21875 4.9375 40.140625 1.859375 
Q 35.0625 -1.21875 28.609375 -1.21875 
Q 17.625 -1.21875 10.6875 6.859375 
Q 3.765625 14.9375 3.765625 33.5 
Q 3.765625 54.25 11.421875 63.671875 
Q 18.109375 71.875 29.4375 71.875 
Q 37.890625 71.875 43.28125 67.140625 
Q 48.6875 62.40625 49.75 54.046875 
z
M 13.875 23.1875 
Q 13.875 18.65625 15.796875 14.5 
Q 17.71875 10.359375 21.1875 8.171875 
Q 24.65625 6 28.46875 6 
Q 34.03125 6 38.03125 10.484375 
Q 42.046875 14.984375 42.046875 22.703125 
Q 42.046875 30.125 38.078125 34.390625 
Q 34.125 38.671875 28.125 38.671875 
Q 22.171875 38.671875 18.015625 34.390625 
Q 13.875 30.125 13.875 23.1875 
z
" id="ArialMT-54"/>
      </defs>
      <g style="fill:#262626;" transform="translate(186.189281 286.674906)scale(0.1 -0.1)">
       <use xlink:href="#ArialMT-48"/>
       <use x="55.615234" xlink:href="#ArialMT-46"/>
       <use x="83.398438" xlink:href="#ArialMT-54"/>
      </g>
     </g>
    </g>
    <g id="ytick_5">
     <g id="text_12">
      <!-- 0.8 -->
      <defs>
       <path d="M 17.671875 38.8125 
Q 12.203125 40.828125 9.5625 44.53125 
Q 6.9375 48.25 6.9375 53.421875 
Q 6.9375 61.234375 12.546875 66.546875 
Q 18.171875 71.875 27.484375 71.875 
Q 36.859375 71.875 42.578125 66.421875 
Q 48.296875 60.984375 48.296875 53.171875 
Q 48.296875 48.1875 45.671875 44.5 
Q 43.0625 40.828125 37.75 38.8125 
Q 44.34375 36.671875 47.78125 31.875 
Q 51.21875 27.09375 51.21875 20.453125 
Q 51.21875 11.28125 44.71875 5.03125 
Q 38.234375 -1.21875 27.640625 -1.21875 
Q 17.046875 -1.21875 10.546875 5.046875 
Q 4.046875 11.328125 4.046875 20.703125 
Q 4.046875 27.6875 7.59375 32.390625 
Q 11.140625 37.109375 17.671875 38.8125 
z
M 15.921875 53.71875 
Q 15.921875 48.640625 19.1875 45.40625 
Q 22.46875 42.1875 27.6875 42.1875 
Q 32.765625 42.1875 36.015625 45.375 
Q 39.265625 48.578125 39.265625 53.21875 
Q 39.265625 58.0625 35.90625 61.359375 
Q 32.5625 64.65625 27.59375 64.65625 
Q 22.5625 64.65625 19.234375 61.421875 
Q 15.921875 58.203125 15.921875 53.71875 
z
M 13.09375 20.65625 
Q 13.09375 16.890625 14.875 13.375 
Q 16.65625 9.859375 20.171875 7.921875 
Q 23.6875 6 27.734375 6 
Q 34.03125 6 38.125 10.046875 
Q 42.234375 14.109375 42.234375 20.359375 
Q 42.234375 26.703125 38.015625 30.859375 
Q 33.796875 35.015625 27.4375 35.015625 
Q 21.234375 35.015625 17.15625 30.90625 
Q 13.09375 26.8125 13.09375 20.65625 
z
" id="ArialMT-56"/>
      </defs>
      <g style="fill:#262626;" transform="translate(186.189281 220.146906)scale(0.1 -0.1)">
       <use xlink:href="#ArialMT-48"/>
       <use x="55.615234" xlink:href="#ArialMT-46"/>
       <use x="83.398438" xlink:href="#ArialMT-56"/>
      </g>
     </g>
    </g>
    <g id="ytick_6">
     <g id="text_13">
      <!-- 1.0 -->
      <defs>
       <path d="M 37.25 0 
L 28.46875 0 
L 28.46875 56 
Q 25.296875 52.984375 20.140625 49.953125 
Q 14.984375 46.921875 10.890625 45.40625 
L 10.890625 53.90625 
Q 18.265625 57.375 23.78125 62.296875 
Q 29.296875 67.234375 31.59375 71.875 
L 37.25 71.875 
z
" id="ArialMT-49"/>
      </defs>
      <g style="fill:#262626;" transform="translate(186.189281 153.618906)scale(0.1 -0.1)">
       <use xlink:href="#ArialMT-49"/>
       <use x="55.615234" xlink:href="#ArialMT-46"/>
       <use x="83.398438" xlink:href="#ArialMT-48"/>
      </g>
     </g>
    </g>
    <g id="text_14">
     <!-- J-index -->
     <defs>
      <path d="M 2.875 20.3125 
L 11.421875 21.484375 
Q 11.765625 13.28125 14.5 10.25 
Q 17.234375 7.234375 22.078125 7.234375 
Q 25.640625 7.234375 28.21875 8.859375 
Q 30.8125 10.5 31.78125 13.296875 
Q 32.765625 16.109375 32.765625 22.265625 
L 32.765625 71.578125 
L 42.234375 71.578125 
L 42.234375 22.796875 
Q 42.234375 13.8125 40.0625 8.875 
Q 37.890625 3.953125 33.171875 1.359375 
Q 28.46875 -1.21875 22.125 -1.21875 
Q 12.703125 -1.21875 7.6875 4.203125 
Q 2.6875 9.625 2.875 20.3125 
z
" id="ArialMT-74"/>
      <path d="M 3.171875 21.484375 
L 3.171875 30.328125 
L 30.171875 30.328125 
L 30.171875 21.484375 
z
" id="ArialMT-45"/>
      <path d="M 0.734375 0 
L 19.671875 26.953125 
L 2.15625 51.859375 
L 13.140625 51.859375 
L 21.09375 39.703125 
Q 23.34375 36.234375 24.703125 33.890625 
Q 26.859375 37.109375 28.65625 39.59375 
L 37.40625 51.859375 
L 47.90625 51.859375 
L 29.984375 27.4375 
L 49.265625 0 
L 38.484375 0 
L 27.828125 16.109375 
L 25 20.453125 
L 11.375 0 
z
" id="ArialMT-120"/>
     </defs>
     <g style="fill:#262626;" transform="translate(180.201781 332.477187)rotate(-90)scale(0.1 -0.1)">
      <use xlink:href="#ArialMT-74"/>
      <use x="50" xlink:href="#ArialMT-45"/>
      <use x="83.300781" xlink:href="#ArialMT-105"/>
      <use x="105.517578" xlink:href="#ArialMT-110"/>
      <use x="161.132812" xlink:href="#ArialMT-100"/>
      <use x="216.748047" xlink:href="#ArialMT-101"/>
      <use x="272.363281" xlink:href="#ArialMT-120"/>
     </g>
    </g>
   </g>
   <g id="patch_3">
    <path clip-path="url(#pe1cfc34b51)" d="M 184.43693 482.68 
L 245.659501 482.68 
L 245.659501 245.842455 
L 184.43693 245.842455 
z
" style="fill:#1f77b4;stroke:#1f77b4;stroke-linejoin:miter;"/>
   </g>
   <g id="patch_4">
    <path clip-path="url(#pe1cfc34b51)" d="M 260.965143 482.68 
L 322.187714 482.68 
L 322.187714 213.502455 
L 260.965143 213.502455 
z
" style="fill:#ff7f0e;stroke:#ff7f0e;stroke-linejoin:miter;"/>
   </g>
   <g id="patch_5">
    <path clip-path="url(#pe1cfc34b51)" d="M 337.493357 482.68 
L 398.715927 482.68 
L 398.715927 236.602455 
L 337.493357 236.602455 
z
" style="fill:#2ca02c;stroke:#2ca02c;stroke-linejoin:miter;"/>
   </g>
   <g id="patch_6">
    <path clip-path="url(#pe1cfc34b51)" d="M 414.02157 482.68 
L 475.24414 482.68 
L 475.24414 481.4704 
L 414.02157 481.4704 
z
" style="fill:#d62728;stroke:#d62728;stroke-linejoin:miter;"/>
   </g>
   <g id="patch_7">
    <path clip-path="url(#pe1cfc34b51)" d="M 490.549783 482.68 
L 551.772354 482.68 
L 551.772354 236.602455 
L 490.549783 236.602455 
z
" style="fill:#9467bd;stroke:#9467bd;stroke-linejoin:miter;"/>
   </g>
   <g id="patch_8">
    <path clip-path="url(#pe1cfc34b51)" d="M 567.077996 482.68 
L 628.300567 482.68 
L 628.300567 218.122455 
L 567.077996 218.122455 
z
" style="fill:#8c564b;stroke:#8c564b;stroke-linejoin:miter;"/>
   </g>
   <g id="LineCollection_1">
    <path clip-path="url(#pe1cfc34b51)" d="M 215.048216 260.331919 
L 215.048216 231.352991 
" style="fill:none;stroke:#000000;stroke-width:1.5;"/>
    <path clip-path="url(#pe1cfc34b51)" d="M 291.576429 222.402461 
L 291.576429 204.602448 
" style="fill:none;stroke:#000000;stroke-width:1.5;"/>
    <path clip-path="url(#pe1cfc34b51)" d="M 368.104642 249.852223 
L 368.104642 223.352686 
" style="fill:none;stroke:#000000;stroke-width:1.5;"/>
    <path clip-path="url(#pe1cfc34b51)" d="M 444.632855 482.677799 
L 444.632855 480.263001 
" style="fill:none;stroke:#000000;stroke-width:1.5;"/>
    <path clip-path="url(#pe1cfc34b51)" d="M 521.161068 249.852223 
L 521.161068 223.352686 
" style="fill:none;stroke:#000000;stroke-width:1.5;"/>
    <path clip-path="url(#pe1cfc34b51)" d="M 597.689281 228.105699 
L 597.689281 208.139211 
" style="fill:none;stroke:#000000;stroke-width:1.5;"/>
   </g>
   <g id="line2d_2">
    <path clip-path="url(#pe1cfc34b51)" d="M 207.395394 482.68 
L 207.395394 477.876534 
L 207.395394 457.461805 
L 207.395394 453.859206 
L 207.395394 447.854874 
L 207.395394 446.654007 
L 207.395394 438.247942 
L 207.395394 437.047076 
L 207.395394 434.645343 
L 207.395394 433.444477 
L 207.395394 423.837545 
L 207.395394 421.435812 
L 207.395394 420.234946 
L 207.395394 417.833213 
L 207.395394 415.43148 
L 207.395394 410.628014 
L 207.395394 399.820217 
L 207.395394 397.418484 
L 207.395394 395.016751 
L 207.395394 391.414152 
L 207.395394 384.208953 
L 207.395394 381.80722 
L 207.395394 380.606354 
L 208.458286 377.003755 
L 208.458286 368.59769 
L 208.458286 366.195957 
L 209.521178 362.593357 
L 209.521178 358.990758 
L 209.521178 356.589025 
L 209.521178 352.986426 
L 209.521178 344.580361 
L 209.521178 342.178628 
L 209.521178 334.97343 
L 209.521178 327.768231 
L 210.58407 320.563032 
L 210.58407 306.152635 
L 211.646962 300.148303 
L 211.646962 292.943105 
L 212.709854 285.737906 
L 212.709854 276.130975 
L 213.772745 262.921444 
L 213.772745 254.515379 
L 213.772745 228.096318 
L 214.835637 218.489386 
L 215.898529 214.886787 
L 215.898529 208.882455 
L 218.024313 208.882455 
L 283.923607 150.04 
" style="fill:none;stroke:#1f77b4;stroke-linecap:round;stroke-width:1.5;"/>
   </g>
   <g id="line2d_3">
    <defs>
     <path d="M 0 3 
C 0.795609 3 1.55874 2.683901 2.12132 2.12132 
C 2.683901 1.55874 3 0.795609 3 0 
C 3 -0.795609 2.683901 -1.55874 2.12132 -2.12132 
C 1.55874 -2.683901 0.795609 -3 0 -3 
C -0.795609 -3 -1.55874 -2.683901 -2.12132 -2.12132 
C -2.683901 -1.55874 -3 -0.795609 -3 0 
C -3 0.795609 -2.683901 1.55874 -2.12132 2.12132 
C -1.55874 2.683901 -0.795609 3 0 3 
z
" id="m58ac2ea60f" style="stroke:#000000;"/>
    </defs>
    <g clip-path="url(#pe1cfc34b51)">
     <use style="stroke:#000000;" x="215.898529" xlink:href="#m58ac2ea60f" y="208.882455"/>
    </g>
   </g>
   <g id="line2d_4">
    <path clip-path="url(#pe1cfc34b51)" d="M 207.395394 482.68 
L 207.395394 476.675668 
L 207.395394 456.260939 
L 207.395394 455.060072 
L 207.395394 440.649675 
L 207.395394 438.247942 
L 207.395394 429.841877 
L 207.395394 428.641011 
L 207.395394 426.239278 
L 207.395394 423.837545 
L 207.395394 420.234946 
L 207.395394 417.833213 
L 207.395394 416.632347 
L 207.395394 404.623682 
L 207.395394 402.221949 
L 207.395394 397.418484 
L 207.395394 390.213285 
L 207.395394 383.008087 
L 207.395394 375.802888 
L 207.395394 368.59769 
L 207.395394 366.195957 
L 207.395394 358.990758 
L 207.395394 350.584693 
L 207.395394 348.18296 
L 207.395394 343.379495 
L 207.395394 336.174296 
L 208.458286 327.768231 
L 208.458286 315.759567 
L 208.458286 309.755235 
L 208.458286 302.550036 
L 208.458286 297.74657 
L 208.458286 289.340505 
L 208.458286 276.130975 
L 208.458286 268.925776 
L 208.458286 256.917112 
L 208.458286 220.891119 
L 208.458286 208.882455 
L 210.58407 208.882455 
L 283.923607 150.04 
" style="fill:none;stroke:#ff7f0e;stroke-linecap:round;stroke-width:1.5;"/>
   </g>
   <g id="line2d_5">
    <g clip-path="url(#pe1cfc34b51)">
     <use style="stroke:#000000;" x="208.458286" xlink:href="#m58ac2ea60f" y="208.882455"/>
    </g>
   </g>
   <g id="line2d_6">
    <path clip-path="url(#pe1cfc34b51)" d="M 207.395394 482.68 
L 207.395394 477.876534 
L 207.395394 457.461805 
L 207.395394 453.859206 
L 207.395394 447.854874 
L 207.395394 446.654007 
L 207.395394 438.247942 
L 207.395394 437.047076 
L 207.395394 434.645343 
L 207.395394 425.038412 
L 207.395394 422.636679 
L 207.395394 421.435812 
L 207.395394 419.034079 
L 207.395394 416.632347 
L 207.395394 411.828881 
L 207.395394 401.021083 
L 207.395394 398.61935 
L 207.395394 396.217617 
L 207.395394 392.615018 
L 207.395394 385.409819 
L 207.395394 383.008087 
L 207.395394 381.80722 
L 208.458286 378.204621 
L 208.458286 369.798556 
L 208.458286 367.396823 
L 209.521178 363.794224 
L 209.521178 352.986426 
L 209.521178 344.580361 
L 209.521178 342.178628 
L 209.521178 336.174296 
L 209.521178 328.969097 
L 210.58407 321.763899 
L 210.58407 309.755235 
L 210.58407 303.750903 
L 211.646962 296.545704 
L 211.646962 289.340505 
L 211.646962 280.93444 
L 212.709854 266.524043 
L 212.709854 258.117978 
L 212.709854 244.908448 
L 212.709854 230.498051 
L 213.772745 218.489386 
L 213.772745 214.886787 
L 213.772745 208.882455 
L 215.898529 208.882455 
L 283.923607 150.04 
" style="fill:none;stroke:#2ca02c;stroke-linecap:round;stroke-width:1.5;"/>
   </g>
   <g id="line2d_7">
    <g clip-path="url(#pe1cfc34b51)">
     <use style="stroke:#000000;" x="213.772745" xlink:href="#m58ac2ea60f" y="208.882455"/>
    </g>
   </g>
   <g id="line2d_8">
    <path clip-path="url(#pe1cfc34b51)" d="M 207.395394 482.68 
L 207.395394 481.4704 
L 209.750109 481.4704 
L 209.750109 480.2608 
L 219.168966 480.2608 
L 219.168966 475.4224 
L 220.346323 475.4224 
L 220.346323 469.3744 
L 226.233108 469.3744 
L 226.233108 466.9552 
L 227.410465 466.9552 
L 227.410465 464.536 
L 229.76518 464.536 
L 229.76518 459.6976 
L 235.651965 459.6976 
L 235.651965 453.6496 
L 241.538751 453.6496 
L 241.538751 451.2304 
L 242.716108 451.2304 
L 242.716108 447.6016 
L 247.425537 447.6016 
L 247.425537 445.1824 
L 249.780251 445.1824 
L 249.780251 439.1344 
L 250.957608 439.1344 
L 253.312322 439.1344 
L 254.489679 439.1344 
L 254.489679 435.5056 
L 255.667036 435.5056 
L 255.667036 434.296 
L 261.553822 434.296 
L 261.553822 433.0864 
L 263.908536 433.0864 
L 263.908536 429.4576 
L 266.263251 429.4576 
L 266.263251 425.8288 
L 269.795322 425.8288 
L 269.795322 423.4096 
L 274.50475 423.4096 
L 274.50475 419.7808 
L 275.682108 419.7808 
L 275.682108 416.152 
L 280.391536 416.152 
L 280.391536 404.056 
L 281.568893 404.056 
L 281.568893 402.8464 
L 283.923607 402.8464 
L 283.923607 362.9296 
L 283.923607 359.3008 
L 283.923607 343.576 
L 283.923607 341.1568 
L 283.923607 323.0128 
L 283.923607 320.5936 
L 283.923607 313.336 
L 283.923607 310.9168 
L 283.923607 304.8688 
L 283.923607 302.4496 
L 283.923607 300.0304 
L 283.923607 295.192 
L 283.923607 293.9824 
L 283.923607 291.5632 
L 283.923607 290.3536 
L 283.923607 287.9344 
L 283.923607 286.7248 
L 283.923607 284.3056 
L 283.923607 277.048 
L 283.923607 274.6288 
L 283.923607 271 
L 283.923607 262.5328 
L 283.923607 260.1136 
L 283.923607 257.6944 
L 283.923607 250.4368 
L 283.923607 246.808 
L 283.923607 245.5984 
L 283.923607 243.1792 
L 283.923607 238.3408 
L 283.923607 231.0832 
L 283.923607 229.8736 
L 283.923607 226.2448 
L 283.923607 222.616 
L 283.923607 220.1968 
L 283.923607 217.7776 
L 283.923607 215.3584 
L 283.923607 206.8912 
L 283.923607 204.472 
L 283.923607 199.6336 
L 283.923607 198.424 
L 283.923607 196.0048 
L 283.923607 188.7472 
L 283.923607 181.4896 
L 283.923607 177.8608 
L 283.923607 175.4416 
L 283.923607 159.7168 
L 283.923607 157.2976 
L 283.923607 150.04 
" style="fill:none;stroke:#d62728;stroke-linecap:round;stroke-width:1.5;"/>
   </g>
   <g id="line2d_9">
    <g clip-path="url(#pe1cfc34b51)">
     <use style="stroke:#000000;" x="207.395394" xlink:href="#m58ac2ea60f" y="481.4704"/>
    </g>
   </g>
   <g id="line2d_10">
    <path clip-path="url(#pe1cfc34b51)" d="M 207.395394 482.68 
L 207.395394 477.876534 
L 207.395394 457.461805 
L 207.395394 453.859206 
L 207.395394 451.457473 
L 207.395394 439.448809 
L 207.395394 435.846209 
L 207.395394 427.440144 
L 207.395394 425.038412 
L 207.395394 423.837545 
L 207.395394 421.435812 
L 207.395394 419.034079 
L 207.395394 414.230614 
L 207.395394 402.221949 
L 207.395394 399.820217 
L 207.395394 397.418484 
L 207.395394 393.815884 
L 207.395394 386.610686 
L 207.395394 384.208953 
L 207.395394 383.008087 
L 208.458286 379.405487 
L 208.458286 370.999422 
L 208.458286 368.59769 
L 209.521178 364.99509 
L 209.521178 354.187292 
L 209.521178 345.781227 
L 209.521178 343.379495 
L 209.521178 337.375162 
L 209.521178 330.169964 
L 210.58407 322.964765 
L 210.58407 310.956101 
L 210.58407 304.951769 
L 211.646962 296.545704 
L 211.646962 289.340505 
L 211.646962 280.93444 
L 212.709854 266.524043 
L 212.709854 258.117978 
L 212.709854 244.908448 
L 212.709854 230.498051 
L 213.772745 218.489386 
L 213.772745 214.886787 
L 213.772745 208.882455 
L 215.898529 208.882455 
L 283.923607 150.04 
" style="fill:none;stroke:#9467bd;stroke-linecap:round;stroke-width:1.5;"/>
   </g>
   <g id="line2d_11">
    <g clip-path="url(#pe1cfc34b51)">
     <use style="stroke:#000000;" x="213.772745" xlink:href="#m58ac2ea60f" y="208.882455"/>
    </g>
   </g>
   <g id="line2d_12">
    <path clip-path="url(#pe1cfc34b51)" d="M 207.395394 482.68 
L 207.395394 476.675668 
L 207.395394 456.260939 
L 207.395394 455.060072 
L 207.395394 440.649675 
L 207.395394 438.247942 
L 207.395394 429.841877 
L 207.395394 428.641011 
L 207.395394 426.239278 
L 207.395394 423.837545 
L 207.395394 420.234946 
L 207.395394 417.833213 
L 207.395394 416.632347 
L 207.395394 404.623682 
L 207.395394 402.221949 
L 207.395394 397.418484 
L 207.395394 390.213285 
L 207.395394 383.008087 
L 207.395394 375.802888 
L 207.395394 364.99509 
L 207.395394 362.593357 
L 207.395394 358.990758 
L 207.395394 349.383827 
L 207.395394 348.18296 
L 207.395394 343.379495 
L 207.395394 336.174296 
L 208.458286 327.768231 
L 208.458286 315.759567 
L 208.458286 309.755235 
L 208.458286 302.550036 
L 208.458286 297.74657 
L 208.458286 289.340505 
L 208.458286 276.130975 
L 208.458286 268.925776 
L 208.458286 255.716245 
L 208.458286 238.904116 
L 208.458286 220.891119 
L 209.521178 214.886787 
L 209.521178 208.882455 
L 211.646962 208.882455 
L 283.923607 150.04 
" style="fill:none;stroke:#8c564b;stroke-linecap:round;stroke-width:1.5;"/>
   </g>
   <g id="line2d_13">
    <g clip-path="url(#pe1cfc34b51)">
     <use style="stroke:#000000;" x="209.521178" xlink:href="#m58ac2ea60f" y="208.882455"/>
    </g>
   </g>
   <g id="line2d_14">
    <defs>
     <path d="M 6 0 
L -6 -0 
" id="m7569e9366f" style="stroke:#000000;"/>
    </defs>
    <g clip-path="url(#pe1cfc34b51)">
     <use style="stroke:#000000;" x="215.048216" xlink:href="#m7569e9366f" y="260.331919"/>
     <use style="stroke:#000000;" x="291.576429" xlink:href="#m7569e9366f" y="222.402461"/>
     <use style="stroke:#000000;" x="368.104642" xlink:href="#m7569e9366f" y="249.852223"/>
     <use style="stroke:#000000;" x="444.632855" xlink:href="#m7569e9366f" y="482.677799"/>
     <use style="stroke:#000000;" x="521.161068" xlink:href="#m7569e9366f" y="249.852223"/>
     <use style="stroke:#000000;" x="597.689281" xlink:href="#m7569e9366f" y="228.105699"/>
    </g>
   </g>
   <g id="line2d_15">
    <g clip-path="url(#pe1cfc34b51)">
     <use style="stroke:#000000;" x="215.048216" xlink:href="#m7569e9366f" y="231.352991"/>
     <use style="stroke:#000000;" x="291.576429" xlink:href="#m7569e9366f" y="204.602448"/>
     <use style="stroke:#000000;" x="368.104642" xlink:href="#m7569e9366f" y="223.352686"/>
     <use style="stroke:#000000;" x="444.632855" xlink:href="#m7569e9366f" y="480.263001"/>
     <use style="stroke:#000000;" x="521.161068" xlink:href="#m7569e9366f" y="223.352686"/>
     <use style="stroke:#000000;" x="597.689281" xlink:href="#m7569e9366f" y="208.139211"/>
    </g>
   </g>
   <g id="patch_9">
    <path d="M 207.089281 482.68 
L 207.089281 150.04 
" style="fill:none;stroke:#262626;stroke-linecap:square;stroke-linejoin:miter;stroke-width:0.8;"/>
   </g>
   <g id="patch_10">
    <path d="M 207.089281 482.68 
L 597.689281 482.68 
" style="fill:none;stroke:#262626;stroke-linecap:square;stroke-linejoin:miter;stroke-width:0.8;"/>
   </g>
   <g id="legend_1">
    <g id="patch_11">
     <path d="M 268.189281 477.68 
L 590.689281 477.68 
Q 592.689281 477.68 592.689281 475.68 
L 592.689281 375.989375 
Q 592.689281 373.989375 590.689281 373.989375 
L 268.189281 373.989375 
Q 266.189281 373.989375 266.189281 375.989375 
L 266.189281 475.68 
Q 266.189281 477.68 268.189281 477.68 
z
" style="fill:#ffffff;opacity:0.8;stroke:#cccccc;stroke-linejoin:miter;"/>
    </g>
    <g id="text_15">
     <!-- method (AUC, J index) -->
     <defs>
      <path d="M 23.390625 -21.046875 
Q 16.109375 -11.859375 11.078125 0.4375 
Q 6.0625 12.75 6.0625 25.921875 
Q 6.0625 37.546875 9.8125 48.1875 
Q 14.203125 60.546875 23.390625 72.796875 
L 29.6875 72.796875 
Q 23.78125 62.640625 21.875 58.296875 
Q 18.890625 51.5625 17.1875 44.234375 
Q 15.09375 35.109375 15.09375 25.875 
Q 15.09375 2.390625 29.6875 -21.046875 
z
" id="ArialMT-40"/>
      <path d="M -0.140625 0 
L 27.34375 71.578125 
L 37.546875 71.578125 
L 66.84375 0 
L 56.0625 0 
L 47.703125 21.6875 
L 17.78125 21.6875 
L 9.90625 0 
z
M 20.515625 29.390625 
L 44.78125 29.390625 
L 37.3125 49.21875 
Q 33.890625 58.25 32.234375 64.0625 
Q 30.859375 57.171875 28.375 50.390625 
z
" id="ArialMT-65"/>
      <path d="M 54.6875 71.578125 
L 64.15625 71.578125 
L 64.15625 30.21875 
Q 64.15625 19.4375 61.71875 13.078125 
Q 59.28125 6.734375 52.90625 2.75 
Q 46.53125 -1.21875 36.1875 -1.21875 
Q 26.125 -1.21875 19.71875 2.25 
Q 13.328125 5.71875 10.59375 12.28125 
Q 7.859375 18.84375 7.859375 30.21875 
L 7.859375 71.578125 
L 17.328125 71.578125 
L 17.328125 30.28125 
Q 17.328125 20.953125 19.0625 16.53125 
Q 20.796875 12.109375 25.015625 9.71875 
Q 29.25 7.328125 35.359375 7.328125 
Q 45.796875 7.328125 50.234375 12.0625 
Q 54.6875 16.796875 54.6875 30.28125 
z
" id="ArialMT-85"/>
      <path d="M 8.890625 0 
L 8.890625 10.015625 
L 18.890625 10.015625 
L 18.890625 0 
Q 18.890625 -5.515625 16.9375 -8.90625 
Q 14.984375 -12.3125 10.75 -14.15625 
L 8.296875 -10.40625 
Q 11.078125 -9.1875 12.390625 -6.8125 
Q 13.71875 -4.4375 13.875 0 
z
" id="ArialMT-44"/>
      <path d="M 12.359375 -21.046875 
L 6.0625 -21.046875 
Q 20.65625 2.390625 20.65625 25.875 
Q 20.65625 35.0625 18.5625 44.09375 
Q 16.890625 51.421875 13.921875 58.15625 
Q 12.015625 62.546875 6.0625 72.796875 
L 12.359375 72.796875 
Q 21.53125 60.546875 25.921875 48.1875 
Q 29.6875 37.546875 29.6875 25.921875 
Q 29.6875 12.75 24.625 0.4375 
Q 19.578125 -11.859375 12.359375 -21.046875 
z
" id="ArialMT-41"/>
     </defs>
     <g style="fill:#262626;" transform="translate(378.868188 385.269062)scale(0.1 -0.1)">
      <use xlink:href="#ArialMT-109"/>
      <use x="83.300781" xlink:href="#ArialMT-101"/>
      <use x="138.916016" xlink:href="#ArialMT-116"/>
      <use x="166.699219" xlink:href="#ArialMT-104"/>
      <use x="222.314453" xlink:href="#ArialMT-111"/>
      <use x="277.929688" xlink:href="#ArialMT-100"/>
      <use x="333.544922" xlink:href="#ArialMT-32"/>
      <use x="361.328125" xlink:href="#ArialMT-40"/>
      <use x="394.628906" xlink:href="#ArialMT-65"/>
      <use x="461.328125" xlink:href="#ArialMT-85"/>
      <use x="533.544922" xlink:href="#ArialMT-67"/>
      <use x="605.761719" xlink:href="#ArialMT-44"/>
      <use x="633.544922" xlink:href="#ArialMT-32"/>
      <use x="661.328125" xlink:href="#ArialMT-74"/>
      <use x="711.328125" xlink:href="#ArialMT-32"/>
      <use x="739.111328" xlink:href="#ArialMT-105"/>
      <use x="761.328125" xlink:href="#ArialMT-110"/>
      <use x="816.943359" xlink:href="#ArialMT-100"/>
      <use x="872.558594" xlink:href="#ArialMT-101"/>
      <use x="928.173828" xlink:href="#ArialMT-120"/>
      <use x="978.173828" xlink:href="#ArialMT-41"/>
     </g>
    </g>
    <g id="line2d_16">
     <path d="M 270.189281 396.153437 
L 290.189281 396.153437 
" style="fill:none;stroke:#1f77b4;stroke-linecap:round;stroke-width:1.5;"/>
    </g>
    <g id="line2d_17"/>
    <g id="text_16">
     <!-- new_CCR_sift_cutoff_0.03_polyphen_cutoff_0.3_run (0.87, 0.71) -->
     <defs>
      <path d="M 4.734375 62.203125 
L 4.734375 70.65625 
L 51.078125 70.65625 
L 51.078125 63.8125 
Q 44.234375 56.546875 37.515625 44.484375 
Q 30.8125 32.421875 27.15625 19.671875 
Q 24.515625 10.6875 23.78125 0 
L 14.75 0 
Q 14.890625 8.453125 18.0625 20.40625 
Q 21.234375 32.375 27.171875 43.484375 
Q 33.109375 54.59375 39.796875 62.203125 
z
" id="ArialMT-55"/>
     </defs>
     <g style="fill:#262626;" transform="translate(300.189281 399.653437)scale(0.1 -0.1)">
      <use xlink:href="#ArialMT-110"/>
      <use x="55.615234" xlink:href="#ArialMT-101"/>
      <use x="111.230469" xlink:href="#ArialMT-119"/>
      <use x="183.447266" xlink:href="#ArialMT-95"/>
      <use x="239.0625" xlink:href="#ArialMT-67"/>
      <use x="311.279297" xlink:href="#ArialMT-67"/>
      <use x="383.496094" xlink:href="#ArialMT-82"/>
      <use x="455.712891" xlink:href="#ArialMT-95"/>
      <use x="511.328125" xlink:href="#ArialMT-115"/>
      <use x="561.328125" xlink:href="#ArialMT-105"/>
      <use x="583.544922" xlink:href="#ArialMT-102"/>
      <use x="611.328125" xlink:href="#ArialMT-116"/>
      <use x="639.111328" xlink:href="#ArialMT-95"/>
      <use x="694.726562" xlink:href="#ArialMT-99"/>
      <use x="744.726562" xlink:href="#ArialMT-117"/>
      <use x="800.341797" xlink:href="#ArialMT-116"/>
      <use x="828.125" xlink:href="#ArialMT-111"/>
      <use x="883.740234" xlink:href="#ArialMT-102"/>
      <use x="911.507812" xlink:href="#ArialMT-102"/>
      <use x="939.291016" xlink:href="#ArialMT-95"/>
      <use x="994.90625" xlink:href="#ArialMT-48"/>
      <use x="1050.521484" xlink:href="#ArialMT-46"/>
      <use x="1078.304688" xlink:href="#ArialMT-48"/>
      <use x="1133.919922" xlink:href="#ArialMT-51"/>
      <use x="1189.535156" xlink:href="#ArialMT-95"/>
      <use x="1245.150391" xlink:href="#ArialMT-112"/>
      <use x="1300.765625" xlink:href="#ArialMT-111"/>
      <use x="1356.380859" xlink:href="#ArialMT-108"/>
      <use x="1378.597656" xlink:href="#ArialMT-121"/>
      <use x="1428.597656" xlink:href="#ArialMT-112"/>
      <use x="1484.212891" xlink:href="#ArialMT-104"/>
      <use x="1539.828125" xlink:href="#ArialMT-101"/>
      <use x="1595.443359" xlink:href="#ArialMT-110"/>
      <use x="1651.058594" xlink:href="#ArialMT-95"/>
      <use x="1706.673828" xlink:href="#ArialMT-99"/>
      <use x="1756.673828" xlink:href="#ArialMT-117"/>
      <use x="1812.289062" xlink:href="#ArialMT-116"/>
      <use x="1840.072266" xlink:href="#ArialMT-111"/>
      <use x="1895.6875" xlink:href="#ArialMT-102"/>
      <use x="1923.455078" xlink:href="#ArialMT-102"/>
      <use x="1951.238281" xlink:href="#ArialMT-95"/>
      <use x="2006.853516" xlink:href="#ArialMT-48"/>
      <use x="2062.46875" xlink:href="#ArialMT-46"/>
      <use x="2090.251953" xlink:href="#ArialMT-51"/>
      <use x="2145.867188" xlink:href="#ArialMT-95"/>
      <use x="2201.482422" xlink:href="#ArialMT-114"/>
      <use x="2234.783203" xlink:href="#ArialMT-117"/>
      <use x="2290.398438" xlink:href="#ArialMT-110"/>
      <use x="2346.013672" xlink:href="#ArialMT-32"/>
      <use x="2373.796875" xlink:href="#ArialMT-40"/>
      <use x="2407.097656" xlink:href="#ArialMT-48"/>
      <use x="2462.712891" xlink:href="#ArialMT-46"/>
      <use x="2490.496094" xlink:href="#ArialMT-56"/>
      <use x="2546.111328" xlink:href="#ArialMT-55"/>
      <use x="2601.726562" xlink:href="#ArialMT-44"/>
      <use x="2629.509766" xlink:href="#ArialMT-32"/>
      <use x="2657.292969" xlink:href="#ArialMT-48"/>
      <use x="2712.908203" xlink:href="#ArialMT-46"/>
      <use x="2740.691406" xlink:href="#ArialMT-55"/>
      <use x="2796.306641" xlink:href="#ArialMT-49"/>
      <use x="2851.921875" xlink:href="#ArialMT-41"/>
     </g>
    </g>
    <g id="line2d_18">
     <path d="M 270.189281 410.537812 
L 290.189281 410.537812 
" style="fill:none;stroke:#ff7f0e;stroke-linecap:round;stroke-width:1.5;"/>
    </g>
    <g id="line2d_19"/>
    <g id="text_17">
     <!-- new_CCR_no_sift_polyphen_filter (0.90, 0.81) -->
     <defs>
      <path d="M 5.46875 16.546875 
L 13.921875 17.328125 
Q 14.984375 11.375 18.015625 8.6875 
Q 21.046875 6 25.78125 6 
Q 29.828125 6 32.875 7.859375 
Q 35.9375 9.71875 37.890625 12.8125 
Q 39.84375 15.921875 41.15625 21.1875 
Q 42.484375 26.46875 42.484375 31.9375 
Q 42.484375 32.515625 42.4375 33.6875 
Q 39.796875 29.5 35.234375 26.875 
Q 30.671875 24.265625 25.34375 24.265625 
Q 16.453125 24.265625 10.296875 30.703125 
Q 4.15625 37.15625 4.15625 47.703125 
Q 4.15625 58.59375 10.578125 65.234375 
Q 17 71.875 26.65625 71.875 
Q 33.640625 71.875 39.421875 68.109375 
Q 45.21875 64.359375 48.21875 57.390625 
Q 51.21875 50.4375 51.21875 37.25 
Q 51.21875 23.53125 48.234375 15.40625 
Q 45.265625 7.28125 39.375 3.03125 
Q 33.5 -1.21875 25.59375 -1.21875 
Q 17.1875 -1.21875 11.859375 3.4375 
Q 6.546875 8.109375 5.46875 16.546875 
z
M 41.453125 48.140625 
Q 41.453125 55.71875 37.421875 60.15625 
Q 33.40625 64.59375 27.734375 64.59375 
Q 21.875 64.59375 17.53125 59.8125 
Q 13.1875 55.03125 13.1875 47.40625 
Q 13.1875 40.578125 17.3125 36.296875 
Q 21.4375 32.03125 27.484375 32.03125 
Q 33.59375 32.03125 37.515625 36.296875 
Q 41.453125 40.578125 41.453125 48.140625 
z
" id="ArialMT-57"/>
     </defs>
     <g style="fill:#262626;" transform="translate(300.189281 414.037812)scale(0.1 -0.1)">
      <use xlink:href="#ArialMT-110"/>
      <use x="55.615234" xlink:href="#ArialMT-101"/>
      <use x="111.230469" xlink:href="#ArialMT-119"/>
      <use x="183.447266" xlink:href="#ArialMT-95"/>
      <use x="239.0625" xlink:href="#ArialMT-67"/>
      <use x="311.279297" xlink:href="#ArialMT-67"/>
      <use x="383.496094" xlink:href="#ArialMT-82"/>
      <use x="455.712891" xlink:href="#ArialMT-95"/>
      <use x="511.328125" xlink:href="#ArialMT-110"/>
      <use x="566.943359" xlink:href="#ArialMT-111"/>
      <use x="622.558594" xlink:href="#ArialMT-95"/>
      <use x="678.173828" xlink:href="#ArialMT-115"/>
      <use x="728.173828" xlink:href="#ArialMT-105"/>
      <use x="750.390625" xlink:href="#ArialMT-102"/>
      <use x="778.173828" xlink:href="#ArialMT-116"/>
      <use x="805.957031" xlink:href="#ArialMT-95"/>
      <use x="861.572266" xlink:href="#ArialMT-112"/>
      <use x="917.1875" xlink:href="#ArialMT-111"/>
      <use x="972.802734" xlink:href="#ArialMT-108"/>
      <use x="995.019531" xlink:href="#ArialMT-121"/>
      <use x="1045.019531" xlink:href="#ArialMT-112"/>
      <use x="1100.634766" xlink:href="#ArialMT-104"/>
      <use x="1156.25" xlink:href="#ArialMT-101"/>
      <use x="1211.865234" xlink:href="#ArialMT-110"/>
      <use x="1267.480469" xlink:href="#ArialMT-95"/>
      <use x="1323.095703" xlink:href="#ArialMT-102"/>
      <use x="1350.878906" xlink:href="#ArialMT-105"/>
      <use x="1373.095703" xlink:href="#ArialMT-108"/>
      <use x="1395.3125" xlink:href="#ArialMT-116"/>
      <use x="1423.095703" xlink:href="#ArialMT-101"/>
      <use x="1478.710938" xlink:href="#ArialMT-114"/>
      <use x="1512.011719" xlink:href="#ArialMT-32"/>
      <use x="1539.794922" xlink:href="#ArialMT-40"/>
      <use x="1573.095703" xlink:href="#ArialMT-48"/>
      <use x="1628.710938" xlink:href="#ArialMT-46"/>
      <use x="1656.494141" xlink:href="#ArialMT-57"/>
      <use x="1712.109375" xlink:href="#ArialMT-48"/>
      <use x="1767.724609" xlink:href="#ArialMT-44"/>
      <use x="1795.507812" xlink:href="#ArialMT-32"/>
      <use x="1823.291016" xlink:href="#ArialMT-48"/>
      <use x="1878.90625" xlink:href="#ArialMT-46"/>
      <use x="1906.689453" xlink:href="#ArialMT-56"/>
      <use x="1962.304688" xlink:href="#ArialMT-49"/>
      <use x="2017.919922" xlink:href="#ArialMT-41"/>
     </g>
    </g>
    <g id="line2d_20">
     <path d="M 270.189281 424.922187 
L 290.189281 424.922187 
" style="fill:none;stroke:#2ca02c;stroke-linecap:round;stroke-width:1.5;"/>
    </g>
    <g id="line2d_21"/>
    <g id="text_18">
     <!-- new_CCR_sift_cutoff_0.04_polyphen_cutoff_0.4_run (0.88, 0.74) -->
     <g style="fill:#262626;" transform="translate(300.189281 428.422187)scale(0.1 -0.1)">
      <use xlink:href="#ArialMT-110"/>
      <use x="55.615234" xlink:href="#ArialMT-101"/>
      <use x="111.230469" xlink:href="#ArialMT-119"/>
      <use x="183.447266" xlink:href="#ArialMT-95"/>
      <use x="239.0625" xlink:href="#ArialMT-67"/>
      <use x="311.279297" xlink:href="#ArialMT-67"/>
      <use x="383.496094" xlink:href="#ArialMT-82"/>
      <use x="455.712891" xlink:href="#ArialMT-95"/>
      <use x="511.328125" xlink:href="#ArialMT-115"/>
      <use x="561.328125" xlink:href="#ArialMT-105"/>
      <use x="583.544922" xlink:href="#ArialMT-102"/>
      <use x="611.328125" xlink:href="#ArialMT-116"/>
      <use x="639.111328" xlink:href="#ArialMT-95"/>
      <use x="694.726562" xlink:href="#ArialMT-99"/>
      <use x="744.726562" xlink:href="#ArialMT-117"/>
      <use x="800.341797" xlink:href="#ArialMT-116"/>
      <use x="828.125" xlink:href="#ArialMT-111"/>
      <use x="883.740234" xlink:href="#ArialMT-102"/>
      <use x="911.507812" xlink:href="#ArialMT-102"/>
      <use x="939.291016" xlink:href="#ArialMT-95"/>
      <use x="994.90625" xlink:href="#ArialMT-48"/>
      <use x="1050.521484" xlink:href="#ArialMT-46"/>
      <use x="1078.304688" xlink:href="#ArialMT-48"/>
      <use x="1133.919922" xlink:href="#ArialMT-52"/>
      <use x="1189.535156" xlink:href="#ArialMT-95"/>
      <use x="1245.150391" xlink:href="#ArialMT-112"/>
      <use x="1300.765625" xlink:href="#ArialMT-111"/>
      <use x="1356.380859" xlink:href="#ArialMT-108"/>
      <use x="1378.597656" xlink:href="#ArialMT-121"/>
      <use x="1428.597656" xlink:href="#ArialMT-112"/>
      <use x="1484.212891" xlink:href="#ArialMT-104"/>
      <use x="1539.828125" xlink:href="#ArialMT-101"/>
      <use x="1595.443359" xlink:href="#ArialMT-110"/>
      <use x="1651.058594" xlink:href="#ArialMT-95"/>
      <use x="1706.673828" xlink:href="#ArialMT-99"/>
      <use x="1756.673828" xlink:href="#ArialMT-117"/>
      <use x="1812.289062" xlink:href="#ArialMT-116"/>
      <use x="1840.072266" xlink:href="#ArialMT-111"/>
      <use x="1895.6875" xlink:href="#ArialMT-102"/>
      <use x="1923.455078" xlink:href="#ArialMT-102"/>
      <use x="1951.238281" xlink:href="#ArialMT-95"/>
      <use x="2006.853516" xlink:href="#ArialMT-48"/>
      <use x="2062.46875" xlink:href="#ArialMT-46"/>
      <use x="2090.251953" xlink:href="#ArialMT-52"/>
      <use x="2145.867188" xlink:href="#ArialMT-95"/>
      <use x="2201.482422" xlink:href="#ArialMT-114"/>
      <use x="2234.783203" xlink:href="#ArialMT-117"/>
      <use x="2290.398438" xlink:href="#ArialMT-110"/>
      <use x="2346.013672" xlink:href="#ArialMT-32"/>
      <use x="2373.796875" xlink:href="#ArialMT-40"/>
      <use x="2407.097656" xlink:href="#ArialMT-48"/>
      <use x="2462.712891" xlink:href="#ArialMT-46"/>
      <use x="2490.496094" xlink:href="#ArialMT-56"/>
      <use x="2546.111328" xlink:href="#ArialMT-56"/>
      <use x="2601.726562" xlink:href="#ArialMT-44"/>
      <use x="2629.509766" xlink:href="#ArialMT-32"/>
      <use x="2657.292969" xlink:href="#ArialMT-48"/>
      <use x="2712.908203" xlink:href="#ArialMT-46"/>
      <use x="2740.691406" xlink:href="#ArialMT-55"/>
      <use x="2796.306641" xlink:href="#ArialMT-52"/>
      <use x="2851.921875" xlink:href="#ArialMT-41"/>
     </g>
    </g>
    <g id="line2d_22">
     <path d="M 270.189281 439.306562 
L 290.189281 439.306562 
" style="fill:none;stroke:#d62728;stroke-linecap:round;stroke-width:1.5;"/>
    </g>
    <g id="line2d_23"/>
    <g id="text_19">
     <!-- chr20_jim_ccr (0.11, 0.00) -->
     <g style="fill:#262626;" transform="translate(300.189281 442.806562)scale(0.1 -0.1)">
      <use xlink:href="#ArialMT-99"/>
      <use x="50" xlink:href="#ArialMT-104"/>
      <use x="105.615234" xlink:href="#ArialMT-114"/>
      <use x="138.916016" xlink:href="#ArialMT-50"/>
      <use x="194.53125" xlink:href="#ArialMT-48"/>
      <use x="250.146484" xlink:href="#ArialMT-95"/>
      <use x="305.761719" xlink:href="#ArialMT-106"/>
      <use x="327.978516" xlink:href="#ArialMT-105"/>
      <use x="350.195312" xlink:href="#ArialMT-109"/>
      <use x="433.496094" xlink:href="#ArialMT-95"/>
      <use x="489.111328" xlink:href="#ArialMT-99"/>
      <use x="539.111328" xlink:href="#ArialMT-99"/>
      <use x="589.111328" xlink:href="#ArialMT-114"/>
      <use x="622.412109" xlink:href="#ArialMT-32"/>
      <use x="650.195312" xlink:href="#ArialMT-40"/>
      <use x="683.496094" xlink:href="#ArialMT-48"/>
      <use x="739.111328" xlink:href="#ArialMT-46"/>
      <use x="766.894531" xlink:href="#ArialMT-49"/>
      <use x="822.400391" xlink:href="#ArialMT-49"/>
      <use x="878.015625" xlink:href="#ArialMT-44"/>
      <use x="905.798828" xlink:href="#ArialMT-32"/>
      <use x="933.582031" xlink:href="#ArialMT-48"/>
      <use x="989.197266" xlink:href="#ArialMT-46"/>
      <use x="1016.980469" xlink:href="#ArialMT-48"/>
      <use x="1072.595703" xlink:href="#ArialMT-48"/>
      <use x="1128.210938" xlink:href="#ArialMT-41"/>
     </g>
    </g>
    <g id="line2d_24">
     <path d="M 270.189281 453.690937 
L 290.189281 453.690937 
" style="fill:none;stroke:#9467bd;stroke-linecap:round;stroke-width:1.5;"/>
    </g>
    <g id="line2d_25"/>
    <g id="text_20">
     <!-- new_CCR_sift_cutoff_0.05_polyphen_cutoff_0.5_run (0.88, 0.74) -->
     <g style="fill:#262626;" transform="translate(300.189281 457.190937)scale(0.1 -0.1)">
      <use xlink:href="#ArialMT-110"/>
      <use x="55.615234" xlink:href="#ArialMT-101"/>
      <use x="111.230469" xlink:href="#ArialMT-119"/>
      <use x="183.447266" xlink:href="#ArialMT-95"/>
      <use x="239.0625" xlink:href="#ArialMT-67"/>
      <use x="311.279297" xlink:href="#ArialMT-67"/>
      <use x="383.496094" xlink:href="#ArialMT-82"/>
      <use x="455.712891" xlink:href="#ArialMT-95"/>
      <use x="511.328125" xlink:href="#ArialMT-115"/>
      <use x="561.328125" xlink:href="#ArialMT-105"/>
      <use x="583.544922" xlink:href="#ArialMT-102"/>
      <use x="611.328125" xlink:href="#ArialMT-116"/>
      <use x="639.111328" xlink:href="#ArialMT-95"/>
      <use x="694.726562" xlink:href="#ArialMT-99"/>
      <use x="744.726562" xlink:href="#ArialMT-117"/>
      <use x="800.341797" xlink:href="#ArialMT-116"/>
      <use x="828.125" xlink:href="#ArialMT-111"/>
      <use x="883.740234" xlink:href="#ArialMT-102"/>
      <use x="911.507812" xlink:href="#ArialMT-102"/>
      <use x="939.291016" xlink:href="#ArialMT-95"/>
      <use x="994.90625" xlink:href="#ArialMT-48"/>
      <use x="1050.521484" xlink:href="#ArialMT-46"/>
      <use x="1078.304688" xlink:href="#ArialMT-48"/>
      <use x="1133.919922" xlink:href="#ArialMT-53"/>
      <use x="1189.535156" xlink:href="#ArialMT-95"/>
      <use x="1245.150391" xlink:href="#ArialMT-112"/>
      <use x="1300.765625" xlink:href="#ArialMT-111"/>
      <use x="1356.380859" xlink:href="#ArialMT-108"/>
      <use x="1378.597656" xlink:href="#ArialMT-121"/>
      <use x="1428.597656" xlink:href="#ArialMT-112"/>
      <use x="1484.212891" xlink:href="#ArialMT-104"/>
      <use x="1539.828125" xlink:href="#ArialMT-101"/>
      <use x="1595.443359" xlink:href="#ArialMT-110"/>
      <use x="1651.058594" xlink:href="#ArialMT-95"/>
      <use x="1706.673828" xlink:href="#ArialMT-99"/>
      <use x="1756.673828" xlink:href="#ArialMT-117"/>
      <use x="1812.289062" xlink:href="#ArialMT-116"/>
      <use x="1840.072266" xlink:href="#ArialMT-111"/>
      <use x="1895.6875" xlink:href="#ArialMT-102"/>
      <use x="1923.455078" xlink:href="#ArialMT-102"/>
      <use x="1951.238281" xlink:href="#ArialMT-95"/>
      <use x="2006.853516" xlink:href="#ArialMT-48"/>
      <use x="2062.46875" xlink:href="#ArialMT-46"/>
      <use x="2090.251953" xlink:href="#ArialMT-53"/>
      <use x="2145.867188" xlink:href="#ArialMT-95"/>
      <use x="2201.482422" xlink:href="#ArialMT-114"/>
      <use x="2234.783203" xlink:href="#ArialMT-117"/>
      <use x="2290.398438" xlink:href="#ArialMT-110"/>
      <use x="2346.013672" xlink:href="#ArialMT-32"/>
      <use x="2373.796875" xlink:href="#ArialMT-40"/>
      <use x="2407.097656" xlink:href="#ArialMT-48"/>
      <use x="2462.712891" xlink:href="#ArialMT-46"/>
      <use x="2490.496094" xlink:href="#ArialMT-56"/>
      <use x="2546.111328" xlink:href="#ArialMT-56"/>
      <use x="2601.726562" xlink:href="#ArialMT-44"/>
      <use x="2629.509766" xlink:href="#ArialMT-32"/>
      <use x="2657.292969" xlink:href="#ArialMT-48"/>
      <use x="2712.908203" xlink:href="#ArialMT-46"/>
      <use x="2740.691406" xlink:href="#ArialMT-55"/>
      <use x="2796.306641" xlink:href="#ArialMT-52"/>
      <use x="2851.921875" xlink:href="#ArialMT-41"/>
     </g>
    </g>
    <g id="line2d_26">
     <path d="M 270.189281 468.075312 
L 290.189281 468.075312 
" style="fill:none;stroke:#8c564b;stroke-linecap:round;stroke-width:1.5;"/>
    </g>
    <g id="line2d_27"/>
    <g id="text_21">
     <!-- new_CCR_no_combine_adjacent_variants (0.90, 0.80) -->
     <g style="fill:#262626;" transform="translate(300.189281 471.575312)scale(0.1 -0.1)">
      <use xlink:href="#ArialMT-110"/>
      <use x="55.615234" xlink:href="#ArialMT-101"/>
      <use x="111.230469" xlink:href="#ArialMT-119"/>
      <use x="183.447266" xlink:href="#ArialMT-95"/>
      <use x="239.0625" xlink:href="#ArialMT-67"/>
      <use x="311.279297" xlink:href="#ArialMT-67"/>
      <use x="383.496094" xlink:href="#ArialMT-82"/>
      <use x="455.712891" xlink:href="#ArialMT-95"/>
      <use x="511.328125" xlink:href="#ArialMT-110"/>
      <use x="566.943359" xlink:href="#ArialMT-111"/>
      <use x="622.558594" xlink:href="#ArialMT-95"/>
      <use x="678.173828" xlink:href="#ArialMT-99"/>
      <use x="728.173828" xlink:href="#ArialMT-111"/>
      <use x="783.789062" xlink:href="#ArialMT-109"/>
      <use x="867.089844" xlink:href="#ArialMT-98"/>
      <use x="922.705078" xlink:href="#ArialMT-105"/>
      <use x="944.921875" xlink:href="#ArialMT-110"/>
      <use x="1000.537109" xlink:href="#ArialMT-101"/>
      <use x="1056.152344" xlink:href="#ArialMT-95"/>
      <use x="1111.767578" xlink:href="#ArialMT-97"/>
      <use x="1167.382812" xlink:href="#ArialMT-100"/>
      <use x="1222.998047" xlink:href="#ArialMT-106"/>
      <use x="1245.214844" xlink:href="#ArialMT-97"/>
      <use x="1300.830078" xlink:href="#ArialMT-99"/>
      <use x="1350.830078" xlink:href="#ArialMT-101"/>
      <use x="1406.445312" xlink:href="#ArialMT-110"/>
      <use x="1462.060547" xlink:href="#ArialMT-116"/>
      <use x="1489.84375" xlink:href="#ArialMT-95"/>
      <use x="1545.458984" xlink:href="#ArialMT-118"/>
      <use x="1595.458984" xlink:href="#ArialMT-97"/>
      <use x="1651.074219" xlink:href="#ArialMT-114"/>
      <use x="1684.375" xlink:href="#ArialMT-105"/>
      <use x="1706.591797" xlink:href="#ArialMT-97"/>
      <use x="1762.207031" xlink:href="#ArialMT-110"/>
      <use x="1817.822266" xlink:href="#ArialMT-116"/>
      <use x="1845.605469" xlink:href="#ArialMT-115"/>
      <use x="1895.605469" xlink:href="#ArialMT-32"/>
      <use x="1923.388672" xlink:href="#ArialMT-40"/>
      <use x="1956.689453" xlink:href="#ArialMT-48"/>
      <use x="2012.304688" xlink:href="#ArialMT-46"/>
      <use x="2040.087891" xlink:href="#ArialMT-57"/>
      <use x="2095.703125" xlink:href="#ArialMT-48"/>
      <use x="2151.318359" xlink:href="#ArialMT-44"/>
      <use x="2179.101562" xlink:href="#ArialMT-32"/>
      <use x="2206.884766" xlink:href="#ArialMT-48"/>
      <use x="2262.5" xlink:href="#ArialMT-46"/>
      <use x="2290.283203" xlink:href="#ArialMT-56"/>
      <use x="2345.898438" xlink:href="#ArialMT-48"/>
      <use x="2401.513672" xlink:href="#ArialMT-41"/>
     </g>
    </g>
   </g>
  </g>
 </g>
 <defs>
  <clipPath id="pe1cfc34b51">
   <rect height="332.64" width="390.6" x="207.089281" y="150.04"/>
  </clipPath>
 </defs>
</svg>
